G04 #@! TF.GenerationSoftware,KiCad,Pcbnew,(5.1.5)-3*
G04 #@! TF.CreationDate,2020-07-08T18:31:05-03:00*
G04 #@! TF.ProjectId,EEN60002020,45454e36-3030-4303-9230-32302e6b6963,rev?*
G04 #@! TF.SameCoordinates,Original*
G04 #@! TF.FileFunction,Copper,L3,Inr*
G04 #@! TF.FilePolarity,Positive*
%FSLAX46Y46*%
G04 Gerber Fmt 4.6, Leading zero omitted, Abs format (unit mm)*
G04 Created by KiCad (PCBNEW (5.1.5)-3) date 2020-07-08 18:31:05*
%MOMM*%
%LPD*%
G04 APERTURE LIST*
%ADD10C,0.200000*%
%ADD11C,0.300000*%
%ADD12C,0.100000*%
%ADD13O,1.727200X1.727200*%
%ADD14R,1.727200X1.727200*%
%ADD15C,1.800000*%
%ADD16R,1.800000X1.800000*%
%ADD17R,1.400000X1.400000*%
%ADD18C,1.400000*%
%ADD19C,1.294000*%
%ADD20C,0.600000*%
%ADD21C,0.800000*%
%ADD22C,1.200000*%
%ADD23C,0.400000*%
%ADD24C,0.600000*%
%ADD25C,0.500000*%
%ADD26C,0.800000*%
%ADD27C,1.000000*%
%ADD28C,0.254000*%
G04 APERTURE END LIST*
D10*
X148082000Y-78930500D02*
X148082000Y-76454000D01*
X146113500Y-78930500D02*
X146113500Y-76454000D01*
X144145000Y-78930500D02*
X144145000Y-76454000D01*
X142176500Y-78930500D02*
X142176500Y-76454000D01*
X140208000Y-78930500D02*
X140208000Y-76454000D01*
X140208000Y-76454000D02*
X148082000Y-76454000D01*
X148082000Y-78930500D02*
X140208000Y-78930500D01*
D11*
X144618666Y-76940671D02*
X145547237Y-76940671D01*
X145047237Y-77512100D01*
X145261523Y-77512100D01*
X145404380Y-77583528D01*
X145475808Y-77654957D01*
X145547237Y-77797814D01*
X145547237Y-78154957D01*
X145475808Y-78297814D01*
X145404380Y-78369242D01*
X145261523Y-78440671D01*
X144832951Y-78440671D01*
X144690094Y-78369242D01*
X144618666Y-78297814D01*
G04 #@! TA.AperFunction,ViaPad*
D12*
G36*
X162116592Y-119596842D02*
G01*
X162153722Y-119602350D01*
X162190134Y-119611470D01*
X162225476Y-119624116D01*
X162259409Y-119640165D01*
X162291606Y-119659463D01*
X162321755Y-119681824D01*
X162349568Y-119707032D01*
X162374776Y-119734845D01*
X162397137Y-119764994D01*
X162416435Y-119797191D01*
X162432484Y-119831124D01*
X162445130Y-119866466D01*
X162454250Y-119902878D01*
X162459758Y-119940008D01*
X162461600Y-119977500D01*
X162461600Y-120742500D01*
X162459758Y-120779992D01*
X162454250Y-120817122D01*
X162445130Y-120853534D01*
X162432484Y-120888876D01*
X162416435Y-120922809D01*
X162397137Y-120955006D01*
X162374776Y-120985155D01*
X162349568Y-121012968D01*
X162321755Y-121038176D01*
X162291606Y-121060537D01*
X162259409Y-121079835D01*
X162225476Y-121095884D01*
X162190134Y-121108530D01*
X162153722Y-121117650D01*
X162116592Y-121123158D01*
X162079100Y-121125000D01*
X161114100Y-121125000D01*
X161076608Y-121123158D01*
X161039478Y-121117650D01*
X161003066Y-121108530D01*
X160967724Y-121095884D01*
X160933791Y-121079835D01*
X160901594Y-121060537D01*
X160871445Y-121038176D01*
X160843632Y-121012968D01*
X160818424Y-120985155D01*
X160796063Y-120955006D01*
X160776765Y-120922809D01*
X160760716Y-120888876D01*
X160748070Y-120853534D01*
X160738950Y-120817122D01*
X160733442Y-120779992D01*
X160731600Y-120742500D01*
X160731600Y-119977500D01*
X160733442Y-119940008D01*
X160738950Y-119902878D01*
X160748070Y-119866466D01*
X160760716Y-119831124D01*
X160776765Y-119797191D01*
X160796063Y-119764994D01*
X160818424Y-119734845D01*
X160843632Y-119707032D01*
X160871445Y-119681824D01*
X160901594Y-119659463D01*
X160933791Y-119640165D01*
X160967724Y-119624116D01*
X161003066Y-119611470D01*
X161039478Y-119602350D01*
X161076608Y-119596842D01*
X161114100Y-119595000D01*
X162079100Y-119595000D01*
X162116592Y-119596842D01*
G37*
G04 #@! TD.AperFunction*
G04 #@! TA.AperFunction,ViaPad*
G36*
X162741592Y-121546842D02*
G01*
X162778722Y-121552350D01*
X162815134Y-121561470D01*
X162850476Y-121574116D01*
X162884409Y-121590165D01*
X162916606Y-121609463D01*
X162946755Y-121631824D01*
X162974568Y-121657032D01*
X162999776Y-121684845D01*
X163022137Y-121714994D01*
X163041435Y-121747191D01*
X163057484Y-121781124D01*
X163070130Y-121816466D01*
X163079250Y-121852878D01*
X163084758Y-121890008D01*
X163086600Y-121927500D01*
X163086600Y-122692500D01*
X163084758Y-122729992D01*
X163079250Y-122767122D01*
X163070130Y-122803534D01*
X163057484Y-122838876D01*
X163041435Y-122872809D01*
X163022137Y-122905006D01*
X162999776Y-122935155D01*
X162974568Y-122962968D01*
X162946755Y-122988176D01*
X162916606Y-123010537D01*
X162884409Y-123029835D01*
X162850476Y-123045884D01*
X162815134Y-123058530D01*
X162778722Y-123067650D01*
X162741592Y-123073158D01*
X162704100Y-123075000D01*
X161739100Y-123075000D01*
X161701608Y-123073158D01*
X161664478Y-123067650D01*
X161628066Y-123058530D01*
X161592724Y-123045884D01*
X161558791Y-123029835D01*
X161526594Y-123010537D01*
X161496445Y-122988176D01*
X161468632Y-122962968D01*
X161443424Y-122935155D01*
X161421063Y-122905006D01*
X161401765Y-122872809D01*
X161385716Y-122838876D01*
X161373070Y-122803534D01*
X161363950Y-122767122D01*
X161358442Y-122729992D01*
X161356600Y-122692500D01*
X161356600Y-121927500D01*
X161358442Y-121890008D01*
X161363950Y-121852878D01*
X161373070Y-121816466D01*
X161385716Y-121781124D01*
X161401765Y-121747191D01*
X161421063Y-121714994D01*
X161443424Y-121684845D01*
X161468632Y-121657032D01*
X161496445Y-121631824D01*
X161526594Y-121609463D01*
X161558791Y-121590165D01*
X161592724Y-121574116D01*
X161628066Y-121561470D01*
X161664478Y-121552350D01*
X161701608Y-121546842D01*
X161739100Y-121545000D01*
X162704100Y-121545000D01*
X162741592Y-121546842D01*
G37*
G04 #@! TD.AperFunction*
G04 #@! TA.AperFunction,ViaPad*
G36*
X165516592Y-119596842D02*
G01*
X165553722Y-119602350D01*
X165590134Y-119611470D01*
X165625476Y-119624116D01*
X165659409Y-119640165D01*
X165691606Y-119659463D01*
X165721755Y-119681824D01*
X165749568Y-119707032D01*
X165774776Y-119734845D01*
X165797137Y-119764994D01*
X165816435Y-119797191D01*
X165832484Y-119831124D01*
X165845130Y-119866466D01*
X165854250Y-119902878D01*
X165859758Y-119940008D01*
X165861600Y-119977500D01*
X165861600Y-120742500D01*
X165859758Y-120779992D01*
X165854250Y-120817122D01*
X165845130Y-120853534D01*
X165832484Y-120888876D01*
X165816435Y-120922809D01*
X165797137Y-120955006D01*
X165774776Y-120985155D01*
X165749568Y-121012968D01*
X165721755Y-121038176D01*
X165691606Y-121060537D01*
X165659409Y-121079835D01*
X165625476Y-121095884D01*
X165590134Y-121108530D01*
X165553722Y-121117650D01*
X165516592Y-121123158D01*
X165479100Y-121125000D01*
X164514100Y-121125000D01*
X164476608Y-121123158D01*
X164439478Y-121117650D01*
X164403066Y-121108530D01*
X164367724Y-121095884D01*
X164333791Y-121079835D01*
X164301594Y-121060537D01*
X164271445Y-121038176D01*
X164243632Y-121012968D01*
X164218424Y-120985155D01*
X164196063Y-120955006D01*
X164176765Y-120922809D01*
X164160716Y-120888876D01*
X164148070Y-120853534D01*
X164138950Y-120817122D01*
X164133442Y-120779992D01*
X164131600Y-120742500D01*
X164131600Y-119977500D01*
X164133442Y-119940008D01*
X164138950Y-119902878D01*
X164148070Y-119866466D01*
X164160716Y-119831124D01*
X164176765Y-119797191D01*
X164196063Y-119764994D01*
X164218424Y-119734845D01*
X164243632Y-119707032D01*
X164271445Y-119681824D01*
X164301594Y-119659463D01*
X164333791Y-119640165D01*
X164367724Y-119624116D01*
X164403066Y-119611470D01*
X164439478Y-119602350D01*
X164476608Y-119596842D01*
X164514100Y-119595000D01*
X165479100Y-119595000D01*
X165516592Y-119596842D01*
G37*
G04 #@! TD.AperFunction*
G04 #@! TA.AperFunction,ViaPad*
G36*
X164891592Y-121546842D02*
G01*
X164928722Y-121552350D01*
X164965134Y-121561470D01*
X165000476Y-121574116D01*
X165034409Y-121590165D01*
X165066606Y-121609463D01*
X165096755Y-121631824D01*
X165124568Y-121657032D01*
X165149776Y-121684845D01*
X165172137Y-121714994D01*
X165191435Y-121747191D01*
X165207484Y-121781124D01*
X165220130Y-121816466D01*
X165229250Y-121852878D01*
X165234758Y-121890008D01*
X165236600Y-121927500D01*
X165236600Y-122692500D01*
X165234758Y-122729992D01*
X165229250Y-122767122D01*
X165220130Y-122803534D01*
X165207484Y-122838876D01*
X165191435Y-122872809D01*
X165172137Y-122905006D01*
X165149776Y-122935155D01*
X165124568Y-122962968D01*
X165096755Y-122988176D01*
X165066606Y-123010537D01*
X165034409Y-123029835D01*
X165000476Y-123045884D01*
X164965134Y-123058530D01*
X164928722Y-123067650D01*
X164891592Y-123073158D01*
X164854100Y-123075000D01*
X163889100Y-123075000D01*
X163851608Y-123073158D01*
X163814478Y-123067650D01*
X163778066Y-123058530D01*
X163742724Y-123045884D01*
X163708791Y-123029835D01*
X163676594Y-123010537D01*
X163646445Y-122988176D01*
X163618632Y-122962968D01*
X163593424Y-122935155D01*
X163571063Y-122905006D01*
X163551765Y-122872809D01*
X163535716Y-122838876D01*
X163523070Y-122803534D01*
X163513950Y-122767122D01*
X163508442Y-122729992D01*
X163506600Y-122692500D01*
X163506600Y-121927500D01*
X163508442Y-121890008D01*
X163513950Y-121852878D01*
X163523070Y-121816466D01*
X163535716Y-121781124D01*
X163551765Y-121747191D01*
X163571063Y-121714994D01*
X163593424Y-121684845D01*
X163618632Y-121657032D01*
X163646445Y-121631824D01*
X163676594Y-121609463D01*
X163708791Y-121590165D01*
X163742724Y-121574116D01*
X163778066Y-121561470D01*
X163814478Y-121552350D01*
X163851608Y-121546842D01*
X163889100Y-121545000D01*
X164854100Y-121545000D01*
X164891592Y-121546842D01*
G37*
G04 #@! TD.AperFunction*
D13*
X151130000Y-106045000D03*
X151130000Y-108585000D03*
X148590000Y-106045000D03*
X148590000Y-108585000D03*
X146050000Y-106045000D03*
X146050000Y-108585000D03*
X143510000Y-106045000D03*
X143510000Y-108585000D03*
X140970000Y-106045000D03*
D14*
X140970000Y-108585000D03*
G04 #@! TA.AperFunction,ViaPad*
D12*
G36*
X142554992Y-119546842D02*
G01*
X142592122Y-119552350D01*
X142628534Y-119561470D01*
X142663876Y-119574116D01*
X142697809Y-119590165D01*
X142730006Y-119609463D01*
X142760155Y-119631824D01*
X142787968Y-119657032D01*
X142813176Y-119684845D01*
X142835537Y-119714994D01*
X142854835Y-119747191D01*
X142870884Y-119781124D01*
X142883530Y-119816466D01*
X142892650Y-119852878D01*
X142898158Y-119890008D01*
X142900000Y-119927500D01*
X142900000Y-120692500D01*
X142898158Y-120729992D01*
X142892650Y-120767122D01*
X142883530Y-120803534D01*
X142870884Y-120838876D01*
X142854835Y-120872809D01*
X142835537Y-120905006D01*
X142813176Y-120935155D01*
X142787968Y-120962968D01*
X142760155Y-120988176D01*
X142730006Y-121010537D01*
X142697809Y-121029835D01*
X142663876Y-121045884D01*
X142628534Y-121058530D01*
X142592122Y-121067650D01*
X142554992Y-121073158D01*
X142517500Y-121075000D01*
X141552500Y-121075000D01*
X141515008Y-121073158D01*
X141477878Y-121067650D01*
X141441466Y-121058530D01*
X141406124Y-121045884D01*
X141372191Y-121029835D01*
X141339994Y-121010537D01*
X141309845Y-120988176D01*
X141282032Y-120962968D01*
X141256824Y-120935155D01*
X141234463Y-120905006D01*
X141215165Y-120872809D01*
X141199116Y-120838876D01*
X141186470Y-120803534D01*
X141177350Y-120767122D01*
X141171842Y-120729992D01*
X141170000Y-120692500D01*
X141170000Y-119927500D01*
X141171842Y-119890008D01*
X141177350Y-119852878D01*
X141186470Y-119816466D01*
X141199116Y-119781124D01*
X141215165Y-119747191D01*
X141234463Y-119714994D01*
X141256824Y-119684845D01*
X141282032Y-119657032D01*
X141309845Y-119631824D01*
X141339994Y-119609463D01*
X141372191Y-119590165D01*
X141406124Y-119574116D01*
X141441466Y-119561470D01*
X141477878Y-119552350D01*
X141515008Y-119546842D01*
X141552500Y-119545000D01*
X142517500Y-119545000D01*
X142554992Y-119546842D01*
G37*
G04 #@! TD.AperFunction*
G04 #@! TA.AperFunction,ViaPad*
G36*
X141929992Y-121496842D02*
G01*
X141967122Y-121502350D01*
X142003534Y-121511470D01*
X142038876Y-121524116D01*
X142072809Y-121540165D01*
X142105006Y-121559463D01*
X142135155Y-121581824D01*
X142162968Y-121607032D01*
X142188176Y-121634845D01*
X142210537Y-121664994D01*
X142229835Y-121697191D01*
X142245884Y-121731124D01*
X142258530Y-121766466D01*
X142267650Y-121802878D01*
X142273158Y-121840008D01*
X142275000Y-121877500D01*
X142275000Y-122642500D01*
X142273158Y-122679992D01*
X142267650Y-122717122D01*
X142258530Y-122753534D01*
X142245884Y-122788876D01*
X142229835Y-122822809D01*
X142210537Y-122855006D01*
X142188176Y-122885155D01*
X142162968Y-122912968D01*
X142135155Y-122938176D01*
X142105006Y-122960537D01*
X142072809Y-122979835D01*
X142038876Y-122995884D01*
X142003534Y-123008530D01*
X141967122Y-123017650D01*
X141929992Y-123023158D01*
X141892500Y-123025000D01*
X140927500Y-123025000D01*
X140890008Y-123023158D01*
X140852878Y-123017650D01*
X140816466Y-123008530D01*
X140781124Y-122995884D01*
X140747191Y-122979835D01*
X140714994Y-122960537D01*
X140684845Y-122938176D01*
X140657032Y-122912968D01*
X140631824Y-122885155D01*
X140609463Y-122855006D01*
X140590165Y-122822809D01*
X140574116Y-122788876D01*
X140561470Y-122753534D01*
X140552350Y-122717122D01*
X140546842Y-122679992D01*
X140545000Y-122642500D01*
X140545000Y-121877500D01*
X140546842Y-121840008D01*
X140552350Y-121802878D01*
X140561470Y-121766466D01*
X140574116Y-121731124D01*
X140590165Y-121697191D01*
X140609463Y-121664994D01*
X140631824Y-121634845D01*
X140657032Y-121607032D01*
X140684845Y-121581824D01*
X140714994Y-121559463D01*
X140747191Y-121540165D01*
X140781124Y-121524116D01*
X140816466Y-121511470D01*
X140852878Y-121502350D01*
X140890008Y-121496842D01*
X140927500Y-121495000D01*
X141892500Y-121495000D01*
X141929992Y-121496842D01*
G37*
G04 #@! TD.AperFunction*
G04 #@! TA.AperFunction,ViaPad*
G36*
X139154992Y-119546842D02*
G01*
X139192122Y-119552350D01*
X139228534Y-119561470D01*
X139263876Y-119574116D01*
X139297809Y-119590165D01*
X139330006Y-119609463D01*
X139360155Y-119631824D01*
X139387968Y-119657032D01*
X139413176Y-119684845D01*
X139435537Y-119714994D01*
X139454835Y-119747191D01*
X139470884Y-119781124D01*
X139483530Y-119816466D01*
X139492650Y-119852878D01*
X139498158Y-119890008D01*
X139500000Y-119927500D01*
X139500000Y-120692500D01*
X139498158Y-120729992D01*
X139492650Y-120767122D01*
X139483530Y-120803534D01*
X139470884Y-120838876D01*
X139454835Y-120872809D01*
X139435537Y-120905006D01*
X139413176Y-120935155D01*
X139387968Y-120962968D01*
X139360155Y-120988176D01*
X139330006Y-121010537D01*
X139297809Y-121029835D01*
X139263876Y-121045884D01*
X139228534Y-121058530D01*
X139192122Y-121067650D01*
X139154992Y-121073158D01*
X139117500Y-121075000D01*
X138152500Y-121075000D01*
X138115008Y-121073158D01*
X138077878Y-121067650D01*
X138041466Y-121058530D01*
X138006124Y-121045884D01*
X137972191Y-121029835D01*
X137939994Y-121010537D01*
X137909845Y-120988176D01*
X137882032Y-120962968D01*
X137856824Y-120935155D01*
X137834463Y-120905006D01*
X137815165Y-120872809D01*
X137799116Y-120838876D01*
X137786470Y-120803534D01*
X137777350Y-120767122D01*
X137771842Y-120729992D01*
X137770000Y-120692500D01*
X137770000Y-119927500D01*
X137771842Y-119890008D01*
X137777350Y-119852878D01*
X137786470Y-119816466D01*
X137799116Y-119781124D01*
X137815165Y-119747191D01*
X137834463Y-119714994D01*
X137856824Y-119684845D01*
X137882032Y-119657032D01*
X137909845Y-119631824D01*
X137939994Y-119609463D01*
X137972191Y-119590165D01*
X138006124Y-119574116D01*
X138041466Y-119561470D01*
X138077878Y-119552350D01*
X138115008Y-119546842D01*
X138152500Y-119545000D01*
X139117500Y-119545000D01*
X139154992Y-119546842D01*
G37*
G04 #@! TD.AperFunction*
G04 #@! TA.AperFunction,ViaPad*
G36*
X139779992Y-121496842D02*
G01*
X139817122Y-121502350D01*
X139853534Y-121511470D01*
X139888876Y-121524116D01*
X139922809Y-121540165D01*
X139955006Y-121559463D01*
X139985155Y-121581824D01*
X140012968Y-121607032D01*
X140038176Y-121634845D01*
X140060537Y-121664994D01*
X140079835Y-121697191D01*
X140095884Y-121731124D01*
X140108530Y-121766466D01*
X140117650Y-121802878D01*
X140123158Y-121840008D01*
X140125000Y-121877500D01*
X140125000Y-122642500D01*
X140123158Y-122679992D01*
X140117650Y-122717122D01*
X140108530Y-122753534D01*
X140095884Y-122788876D01*
X140079835Y-122822809D01*
X140060537Y-122855006D01*
X140038176Y-122885155D01*
X140012968Y-122912968D01*
X139985155Y-122938176D01*
X139955006Y-122960537D01*
X139922809Y-122979835D01*
X139888876Y-122995884D01*
X139853534Y-123008530D01*
X139817122Y-123017650D01*
X139779992Y-123023158D01*
X139742500Y-123025000D01*
X138777500Y-123025000D01*
X138740008Y-123023158D01*
X138702878Y-123017650D01*
X138666466Y-123008530D01*
X138631124Y-122995884D01*
X138597191Y-122979835D01*
X138564994Y-122960537D01*
X138534845Y-122938176D01*
X138507032Y-122912968D01*
X138481824Y-122885155D01*
X138459463Y-122855006D01*
X138440165Y-122822809D01*
X138424116Y-122788876D01*
X138411470Y-122753534D01*
X138402350Y-122717122D01*
X138396842Y-122679992D01*
X138395000Y-122642500D01*
X138395000Y-121877500D01*
X138396842Y-121840008D01*
X138402350Y-121802878D01*
X138411470Y-121766466D01*
X138424116Y-121731124D01*
X138440165Y-121697191D01*
X138459463Y-121664994D01*
X138481824Y-121634845D01*
X138507032Y-121607032D01*
X138534845Y-121581824D01*
X138564994Y-121559463D01*
X138597191Y-121540165D01*
X138631124Y-121524116D01*
X138666466Y-121511470D01*
X138702878Y-121502350D01*
X138740008Y-121496842D01*
X138777500Y-121495000D01*
X139742500Y-121495000D01*
X139779992Y-121496842D01*
G37*
G04 #@! TD.AperFunction*
G04 #@! TA.AperFunction,ViaPad*
G36*
X164941592Y-66206842D02*
G01*
X164978722Y-66212350D01*
X165015134Y-66221470D01*
X165050476Y-66234116D01*
X165084409Y-66250165D01*
X165116606Y-66269463D01*
X165146755Y-66291824D01*
X165174568Y-66317032D01*
X165199776Y-66344845D01*
X165222137Y-66374994D01*
X165241435Y-66407191D01*
X165257484Y-66441124D01*
X165270130Y-66476466D01*
X165279250Y-66512878D01*
X165284758Y-66550008D01*
X165286600Y-66587500D01*
X165286600Y-67352500D01*
X165284758Y-67389992D01*
X165279250Y-67427122D01*
X165270130Y-67463534D01*
X165257484Y-67498876D01*
X165241435Y-67532809D01*
X165222137Y-67565006D01*
X165199776Y-67595155D01*
X165174568Y-67622968D01*
X165146755Y-67648176D01*
X165116606Y-67670537D01*
X165084409Y-67689835D01*
X165050476Y-67705884D01*
X165015134Y-67718530D01*
X164978722Y-67727650D01*
X164941592Y-67733158D01*
X164904100Y-67735000D01*
X163939100Y-67735000D01*
X163901608Y-67733158D01*
X163864478Y-67727650D01*
X163828066Y-67718530D01*
X163792724Y-67705884D01*
X163758791Y-67689835D01*
X163726594Y-67670537D01*
X163696445Y-67648176D01*
X163668632Y-67622968D01*
X163643424Y-67595155D01*
X163621063Y-67565006D01*
X163601765Y-67532809D01*
X163585716Y-67498876D01*
X163573070Y-67463534D01*
X163563950Y-67427122D01*
X163558442Y-67389992D01*
X163556600Y-67352500D01*
X163556600Y-66587500D01*
X163558442Y-66550008D01*
X163563950Y-66512878D01*
X163573070Y-66476466D01*
X163585716Y-66441124D01*
X163601765Y-66407191D01*
X163621063Y-66374994D01*
X163643424Y-66344845D01*
X163668632Y-66317032D01*
X163696445Y-66291824D01*
X163726594Y-66269463D01*
X163758791Y-66250165D01*
X163792724Y-66234116D01*
X163828066Y-66221470D01*
X163864478Y-66212350D01*
X163901608Y-66206842D01*
X163939100Y-66205000D01*
X164904100Y-66205000D01*
X164941592Y-66206842D01*
G37*
G04 #@! TD.AperFunction*
G04 #@! TA.AperFunction,ViaPad*
G36*
X165566592Y-68156842D02*
G01*
X165603722Y-68162350D01*
X165640134Y-68171470D01*
X165675476Y-68184116D01*
X165709409Y-68200165D01*
X165741606Y-68219463D01*
X165771755Y-68241824D01*
X165799568Y-68267032D01*
X165824776Y-68294845D01*
X165847137Y-68324994D01*
X165866435Y-68357191D01*
X165882484Y-68391124D01*
X165895130Y-68426466D01*
X165904250Y-68462878D01*
X165909758Y-68500008D01*
X165911600Y-68537500D01*
X165911600Y-69302500D01*
X165909758Y-69339992D01*
X165904250Y-69377122D01*
X165895130Y-69413534D01*
X165882484Y-69448876D01*
X165866435Y-69482809D01*
X165847137Y-69515006D01*
X165824776Y-69545155D01*
X165799568Y-69572968D01*
X165771755Y-69598176D01*
X165741606Y-69620537D01*
X165709409Y-69639835D01*
X165675476Y-69655884D01*
X165640134Y-69668530D01*
X165603722Y-69677650D01*
X165566592Y-69683158D01*
X165529100Y-69685000D01*
X164564100Y-69685000D01*
X164526608Y-69683158D01*
X164489478Y-69677650D01*
X164453066Y-69668530D01*
X164417724Y-69655884D01*
X164383791Y-69639835D01*
X164351594Y-69620537D01*
X164321445Y-69598176D01*
X164293632Y-69572968D01*
X164268424Y-69545155D01*
X164246063Y-69515006D01*
X164226765Y-69482809D01*
X164210716Y-69448876D01*
X164198070Y-69413534D01*
X164188950Y-69377122D01*
X164183442Y-69339992D01*
X164181600Y-69302500D01*
X164181600Y-68537500D01*
X164183442Y-68500008D01*
X164188950Y-68462878D01*
X164198070Y-68426466D01*
X164210716Y-68391124D01*
X164226765Y-68357191D01*
X164246063Y-68324994D01*
X164268424Y-68294845D01*
X164293632Y-68267032D01*
X164321445Y-68241824D01*
X164351594Y-68219463D01*
X164383791Y-68200165D01*
X164417724Y-68184116D01*
X164453066Y-68171470D01*
X164489478Y-68162350D01*
X164526608Y-68156842D01*
X164564100Y-68155000D01*
X165529100Y-68155000D01*
X165566592Y-68156842D01*
G37*
G04 #@! TD.AperFunction*
G04 #@! TA.AperFunction,ViaPad*
G36*
X162791592Y-66206842D02*
G01*
X162828722Y-66212350D01*
X162865134Y-66221470D01*
X162900476Y-66234116D01*
X162934409Y-66250165D01*
X162966606Y-66269463D01*
X162996755Y-66291824D01*
X163024568Y-66317032D01*
X163049776Y-66344845D01*
X163072137Y-66374994D01*
X163091435Y-66407191D01*
X163107484Y-66441124D01*
X163120130Y-66476466D01*
X163129250Y-66512878D01*
X163134758Y-66550008D01*
X163136600Y-66587500D01*
X163136600Y-67352500D01*
X163134758Y-67389992D01*
X163129250Y-67427122D01*
X163120130Y-67463534D01*
X163107484Y-67498876D01*
X163091435Y-67532809D01*
X163072137Y-67565006D01*
X163049776Y-67595155D01*
X163024568Y-67622968D01*
X162996755Y-67648176D01*
X162966606Y-67670537D01*
X162934409Y-67689835D01*
X162900476Y-67705884D01*
X162865134Y-67718530D01*
X162828722Y-67727650D01*
X162791592Y-67733158D01*
X162754100Y-67735000D01*
X161789100Y-67735000D01*
X161751608Y-67733158D01*
X161714478Y-67727650D01*
X161678066Y-67718530D01*
X161642724Y-67705884D01*
X161608791Y-67689835D01*
X161576594Y-67670537D01*
X161546445Y-67648176D01*
X161518632Y-67622968D01*
X161493424Y-67595155D01*
X161471063Y-67565006D01*
X161451765Y-67532809D01*
X161435716Y-67498876D01*
X161423070Y-67463534D01*
X161413950Y-67427122D01*
X161408442Y-67389992D01*
X161406600Y-67352500D01*
X161406600Y-66587500D01*
X161408442Y-66550008D01*
X161413950Y-66512878D01*
X161423070Y-66476466D01*
X161435716Y-66441124D01*
X161451765Y-66407191D01*
X161471063Y-66374994D01*
X161493424Y-66344845D01*
X161518632Y-66317032D01*
X161546445Y-66291824D01*
X161576594Y-66269463D01*
X161608791Y-66250165D01*
X161642724Y-66234116D01*
X161678066Y-66221470D01*
X161714478Y-66212350D01*
X161751608Y-66206842D01*
X161789100Y-66205000D01*
X162754100Y-66205000D01*
X162791592Y-66206842D01*
G37*
G04 #@! TD.AperFunction*
G04 #@! TA.AperFunction,ViaPad*
G36*
X162166592Y-68156842D02*
G01*
X162203722Y-68162350D01*
X162240134Y-68171470D01*
X162275476Y-68184116D01*
X162309409Y-68200165D01*
X162341606Y-68219463D01*
X162371755Y-68241824D01*
X162399568Y-68267032D01*
X162424776Y-68294845D01*
X162447137Y-68324994D01*
X162466435Y-68357191D01*
X162482484Y-68391124D01*
X162495130Y-68426466D01*
X162504250Y-68462878D01*
X162509758Y-68500008D01*
X162511600Y-68537500D01*
X162511600Y-69302500D01*
X162509758Y-69339992D01*
X162504250Y-69377122D01*
X162495130Y-69413534D01*
X162482484Y-69448876D01*
X162466435Y-69482809D01*
X162447137Y-69515006D01*
X162424776Y-69545155D01*
X162399568Y-69572968D01*
X162371755Y-69598176D01*
X162341606Y-69620537D01*
X162309409Y-69639835D01*
X162275476Y-69655884D01*
X162240134Y-69668530D01*
X162203722Y-69677650D01*
X162166592Y-69683158D01*
X162129100Y-69685000D01*
X161164100Y-69685000D01*
X161126608Y-69683158D01*
X161089478Y-69677650D01*
X161053066Y-69668530D01*
X161017724Y-69655884D01*
X160983791Y-69639835D01*
X160951594Y-69620537D01*
X160921445Y-69598176D01*
X160893632Y-69572968D01*
X160868424Y-69545155D01*
X160846063Y-69515006D01*
X160826765Y-69482809D01*
X160810716Y-69448876D01*
X160798070Y-69413534D01*
X160788950Y-69377122D01*
X160783442Y-69339992D01*
X160781600Y-69302500D01*
X160781600Y-68537500D01*
X160783442Y-68500008D01*
X160788950Y-68462878D01*
X160798070Y-68426466D01*
X160810716Y-68391124D01*
X160826765Y-68357191D01*
X160846063Y-68324994D01*
X160868424Y-68294845D01*
X160893632Y-68267032D01*
X160921445Y-68241824D01*
X160951594Y-68219463D01*
X160983791Y-68200165D01*
X161017724Y-68184116D01*
X161053066Y-68171470D01*
X161089478Y-68162350D01*
X161126608Y-68156842D01*
X161164100Y-68155000D01*
X162129100Y-68155000D01*
X162166592Y-68156842D01*
G37*
G04 #@! TD.AperFunction*
G04 #@! TA.AperFunction,ViaPad*
G36*
X139154992Y-68156842D02*
G01*
X139192122Y-68162350D01*
X139228534Y-68171470D01*
X139263876Y-68184116D01*
X139297809Y-68200165D01*
X139330006Y-68219463D01*
X139360155Y-68241824D01*
X139387968Y-68267032D01*
X139413176Y-68294845D01*
X139435537Y-68324994D01*
X139454835Y-68357191D01*
X139470884Y-68391124D01*
X139483530Y-68426466D01*
X139492650Y-68462878D01*
X139498158Y-68500008D01*
X139500000Y-68537500D01*
X139500000Y-69302500D01*
X139498158Y-69339992D01*
X139492650Y-69377122D01*
X139483530Y-69413534D01*
X139470884Y-69448876D01*
X139454835Y-69482809D01*
X139435537Y-69515006D01*
X139413176Y-69545155D01*
X139387968Y-69572968D01*
X139360155Y-69598176D01*
X139330006Y-69620537D01*
X139297809Y-69639835D01*
X139263876Y-69655884D01*
X139228534Y-69668530D01*
X139192122Y-69677650D01*
X139154992Y-69683158D01*
X139117500Y-69685000D01*
X138152500Y-69685000D01*
X138115008Y-69683158D01*
X138077878Y-69677650D01*
X138041466Y-69668530D01*
X138006124Y-69655884D01*
X137972191Y-69639835D01*
X137939994Y-69620537D01*
X137909845Y-69598176D01*
X137882032Y-69572968D01*
X137856824Y-69545155D01*
X137834463Y-69515006D01*
X137815165Y-69482809D01*
X137799116Y-69448876D01*
X137786470Y-69413534D01*
X137777350Y-69377122D01*
X137771842Y-69339992D01*
X137770000Y-69302500D01*
X137770000Y-68537500D01*
X137771842Y-68500008D01*
X137777350Y-68462878D01*
X137786470Y-68426466D01*
X137799116Y-68391124D01*
X137815165Y-68357191D01*
X137834463Y-68324994D01*
X137856824Y-68294845D01*
X137882032Y-68267032D01*
X137909845Y-68241824D01*
X137939994Y-68219463D01*
X137972191Y-68200165D01*
X138006124Y-68184116D01*
X138041466Y-68171470D01*
X138077878Y-68162350D01*
X138115008Y-68156842D01*
X138152500Y-68155000D01*
X139117500Y-68155000D01*
X139154992Y-68156842D01*
G37*
G04 #@! TD.AperFunction*
G04 #@! TA.AperFunction,ViaPad*
G36*
X139779992Y-66206842D02*
G01*
X139817122Y-66212350D01*
X139853534Y-66221470D01*
X139888876Y-66234116D01*
X139922809Y-66250165D01*
X139955006Y-66269463D01*
X139985155Y-66291824D01*
X140012968Y-66317032D01*
X140038176Y-66344845D01*
X140060537Y-66374994D01*
X140079835Y-66407191D01*
X140095884Y-66441124D01*
X140108530Y-66476466D01*
X140117650Y-66512878D01*
X140123158Y-66550008D01*
X140125000Y-66587500D01*
X140125000Y-67352500D01*
X140123158Y-67389992D01*
X140117650Y-67427122D01*
X140108530Y-67463534D01*
X140095884Y-67498876D01*
X140079835Y-67532809D01*
X140060537Y-67565006D01*
X140038176Y-67595155D01*
X140012968Y-67622968D01*
X139985155Y-67648176D01*
X139955006Y-67670537D01*
X139922809Y-67689835D01*
X139888876Y-67705884D01*
X139853534Y-67718530D01*
X139817122Y-67727650D01*
X139779992Y-67733158D01*
X139742500Y-67735000D01*
X138777500Y-67735000D01*
X138740008Y-67733158D01*
X138702878Y-67727650D01*
X138666466Y-67718530D01*
X138631124Y-67705884D01*
X138597191Y-67689835D01*
X138564994Y-67670537D01*
X138534845Y-67648176D01*
X138507032Y-67622968D01*
X138481824Y-67595155D01*
X138459463Y-67565006D01*
X138440165Y-67532809D01*
X138424116Y-67498876D01*
X138411470Y-67463534D01*
X138402350Y-67427122D01*
X138396842Y-67389992D01*
X138395000Y-67352500D01*
X138395000Y-66587500D01*
X138396842Y-66550008D01*
X138402350Y-66512878D01*
X138411470Y-66476466D01*
X138424116Y-66441124D01*
X138440165Y-66407191D01*
X138459463Y-66374994D01*
X138481824Y-66344845D01*
X138507032Y-66317032D01*
X138534845Y-66291824D01*
X138564994Y-66269463D01*
X138597191Y-66250165D01*
X138631124Y-66234116D01*
X138666466Y-66221470D01*
X138702878Y-66212350D01*
X138740008Y-66206842D01*
X138777500Y-66205000D01*
X139742500Y-66205000D01*
X139779992Y-66206842D01*
G37*
G04 #@! TD.AperFunction*
G04 #@! TA.AperFunction,ViaPad*
G36*
X142554992Y-68156842D02*
G01*
X142592122Y-68162350D01*
X142628534Y-68171470D01*
X142663876Y-68184116D01*
X142697809Y-68200165D01*
X142730006Y-68219463D01*
X142760155Y-68241824D01*
X142787968Y-68267032D01*
X142813176Y-68294845D01*
X142835537Y-68324994D01*
X142854835Y-68357191D01*
X142870884Y-68391124D01*
X142883530Y-68426466D01*
X142892650Y-68462878D01*
X142898158Y-68500008D01*
X142900000Y-68537500D01*
X142900000Y-69302500D01*
X142898158Y-69339992D01*
X142892650Y-69377122D01*
X142883530Y-69413534D01*
X142870884Y-69448876D01*
X142854835Y-69482809D01*
X142835537Y-69515006D01*
X142813176Y-69545155D01*
X142787968Y-69572968D01*
X142760155Y-69598176D01*
X142730006Y-69620537D01*
X142697809Y-69639835D01*
X142663876Y-69655884D01*
X142628534Y-69668530D01*
X142592122Y-69677650D01*
X142554992Y-69683158D01*
X142517500Y-69685000D01*
X141552500Y-69685000D01*
X141515008Y-69683158D01*
X141477878Y-69677650D01*
X141441466Y-69668530D01*
X141406124Y-69655884D01*
X141372191Y-69639835D01*
X141339994Y-69620537D01*
X141309845Y-69598176D01*
X141282032Y-69572968D01*
X141256824Y-69545155D01*
X141234463Y-69515006D01*
X141215165Y-69482809D01*
X141199116Y-69448876D01*
X141186470Y-69413534D01*
X141177350Y-69377122D01*
X141171842Y-69339992D01*
X141170000Y-69302500D01*
X141170000Y-68537500D01*
X141171842Y-68500008D01*
X141177350Y-68462878D01*
X141186470Y-68426466D01*
X141199116Y-68391124D01*
X141215165Y-68357191D01*
X141234463Y-68324994D01*
X141256824Y-68294845D01*
X141282032Y-68267032D01*
X141309845Y-68241824D01*
X141339994Y-68219463D01*
X141372191Y-68200165D01*
X141406124Y-68184116D01*
X141441466Y-68171470D01*
X141477878Y-68162350D01*
X141515008Y-68156842D01*
X141552500Y-68155000D01*
X142517500Y-68155000D01*
X142554992Y-68156842D01*
G37*
G04 #@! TD.AperFunction*
G04 #@! TA.AperFunction,ViaPad*
G36*
X141929992Y-66206842D02*
G01*
X141967122Y-66212350D01*
X142003534Y-66221470D01*
X142038876Y-66234116D01*
X142072809Y-66250165D01*
X142105006Y-66269463D01*
X142135155Y-66291824D01*
X142162968Y-66317032D01*
X142188176Y-66344845D01*
X142210537Y-66374994D01*
X142229835Y-66407191D01*
X142245884Y-66441124D01*
X142258530Y-66476466D01*
X142267650Y-66512878D01*
X142273158Y-66550008D01*
X142275000Y-66587500D01*
X142275000Y-67352500D01*
X142273158Y-67389992D01*
X142267650Y-67427122D01*
X142258530Y-67463534D01*
X142245884Y-67498876D01*
X142229835Y-67532809D01*
X142210537Y-67565006D01*
X142188176Y-67595155D01*
X142162968Y-67622968D01*
X142135155Y-67648176D01*
X142105006Y-67670537D01*
X142072809Y-67689835D01*
X142038876Y-67705884D01*
X142003534Y-67718530D01*
X141967122Y-67727650D01*
X141929992Y-67733158D01*
X141892500Y-67735000D01*
X140927500Y-67735000D01*
X140890008Y-67733158D01*
X140852878Y-67727650D01*
X140816466Y-67718530D01*
X140781124Y-67705884D01*
X140747191Y-67689835D01*
X140714994Y-67670537D01*
X140684845Y-67648176D01*
X140657032Y-67622968D01*
X140631824Y-67595155D01*
X140609463Y-67565006D01*
X140590165Y-67532809D01*
X140574116Y-67498876D01*
X140561470Y-67463534D01*
X140552350Y-67427122D01*
X140546842Y-67389992D01*
X140545000Y-67352500D01*
X140545000Y-66587500D01*
X140546842Y-66550008D01*
X140552350Y-66512878D01*
X140561470Y-66476466D01*
X140574116Y-66441124D01*
X140590165Y-66407191D01*
X140609463Y-66374994D01*
X140631824Y-66344845D01*
X140657032Y-66317032D01*
X140684845Y-66291824D01*
X140714994Y-66269463D01*
X140747191Y-66250165D01*
X140781124Y-66234116D01*
X140816466Y-66221470D01*
X140852878Y-66212350D01*
X140890008Y-66206842D01*
X140927500Y-66205000D01*
X141892500Y-66205000D01*
X141929992Y-66206842D01*
G37*
G04 #@! TD.AperFunction*
D15*
X153035000Y-124714000D03*
D16*
X150495000Y-124714000D03*
D15*
X153035000Y-120015000D03*
D16*
X150495000Y-120015000D03*
D15*
X151130000Y-70485000D03*
D16*
X153670000Y-70485000D03*
D15*
X151130000Y-65786000D03*
D16*
X153670000Y-65786000D03*
D17*
X146050000Y-116205000D03*
D18*
X146050000Y-118205000D03*
D19*
X138912600Y-89408000D03*
X138912600Y-94288000D03*
D20*
X161061400Y-104698800D03*
X161061400Y-103581200D03*
X162814000Y-103581200D03*
X162814000Y-104698800D03*
D21*
X156921200Y-117475000D03*
D20*
X155651200Y-96520000D03*
X147675600Y-95173800D03*
X147675600Y-91211400D03*
X151536400Y-99517200D03*
X147674362Y-93407967D03*
X148082000Y-86258400D03*
X152577800Y-86258400D03*
X158470600Y-103454200D03*
X151231440Y-91069390D03*
X158496000Y-82626200D03*
X164846000Y-81508600D03*
X145135600Y-82626200D03*
X138811000Y-82626200D03*
X147447000Y-102616000D03*
X157200600Y-75158600D03*
X163550600Y-75158600D03*
X166141400Y-75158600D03*
X159740600Y-75158600D03*
X137566400Y-75158600D03*
X143865600Y-75158600D03*
X146405600Y-75158600D03*
X140081000Y-75158600D03*
X151003000Y-76911200D03*
X155820859Y-92455985D03*
X153441400Y-76911200D03*
X155676600Y-93345000D03*
X155956000Y-115862000D03*
X159435800Y-92874990D03*
X144322800Y-100380800D03*
X147175589Y-96027368D03*
X157226000Y-83185000D03*
X154203400Y-87630000D03*
X148348700Y-87630000D03*
X137541000Y-83185000D03*
X155028900Y-87630000D03*
X159893000Y-83185000D03*
X140081000Y-83185000D03*
X147548600Y-87618478D03*
X152552400Y-87618478D03*
X163576000Y-83185000D03*
X150025100Y-87630000D03*
X143891000Y-83185000D03*
X153352500Y-87630000D03*
X166116000Y-83185000D03*
X146431000Y-83185000D03*
X149199600Y-87630000D03*
X164820600Y-75158600D03*
X145135600Y-75158600D03*
X158470600Y-75158600D03*
X138785600Y-75158600D03*
X162915600Y-107899200D03*
X154686000Y-84620000D03*
X157226000Y-84620000D03*
X159893000Y-84620000D03*
X163576000Y-84620000D03*
X166116000Y-84620000D03*
X154152600Y-91280072D03*
X156616400Y-109270800D03*
X148894800Y-84518400D03*
X145262600Y-90043000D03*
X146558000Y-84518400D03*
X147034000Y-90043000D03*
X143891000Y-84518400D03*
X140081000Y-84518400D03*
X137414000Y-84518400D03*
X154152600Y-93700600D03*
D21*
X157480000Y-65100200D03*
D20*
X150088600Y-95631000D03*
X154152600Y-96494600D03*
X151536400Y-97891600D03*
X154152600Y-94767400D03*
X154152600Y-92684600D03*
X161772600Y-92075000D03*
X151231600Y-92684600D03*
X149072600Y-91262200D03*
X149148800Y-94767400D03*
X149504400Y-97866200D03*
X159385000Y-95605600D03*
X151028400Y-94767400D03*
X149123400Y-92608400D03*
X154330400Y-97815400D03*
X149148800Y-96494600D03*
X151028400Y-96494600D03*
X150088600Y-93700600D03*
D21*
X159385000Y-65100200D03*
X155575000Y-65100200D03*
D20*
X151765000Y-95605600D03*
X151765000Y-93700600D03*
X156591000Y-107823000D03*
X158496000Y-104800400D03*
X162941000Y-109347000D03*
X153035000Y-114198400D03*
X158508700Y-114249200D03*
X165252400Y-109880400D03*
X144322800Y-97993200D03*
X144310100Y-95707200D03*
X144310100Y-93891100D03*
X159435800Y-91846400D03*
X167462200Y-88265000D03*
X159383500Y-97028000D03*
X153670000Y-108127800D03*
X155575000Y-99466400D03*
X149707600Y-99466400D03*
X163347400Y-93980000D03*
X166598600Y-109880400D03*
X147523200Y-99441000D03*
X148463000Y-99466400D03*
X149389999Y-102620584D03*
X159409200Y-98500000D03*
X153670000Y-106578400D03*
X160248600Y-93268800D03*
X159893001Y-89509601D03*
D21*
X158496000Y-117475000D03*
X165905500Y-115740500D03*
D22*
X142035000Y-120310000D02*
X142275200Y-120310000D01*
D23*
X161596600Y-120360000D02*
X161554600Y-120360000D01*
X161554600Y-120360000D02*
X161467800Y-120446800D01*
X161596600Y-120360000D02*
X161596600Y-120397800D01*
X161596600Y-120397800D02*
X161645600Y-120446800D01*
X142035000Y-120310000D02*
X141843400Y-120310000D01*
X141843400Y-120310000D02*
X141706600Y-120446800D01*
X143444592Y-120446800D02*
X144322800Y-120446800D01*
X142035000Y-120310000D02*
X142171800Y-120446800D01*
D24*
X147675600Y-93406729D02*
X147674362Y-93407967D01*
X147675600Y-91211400D02*
X147675600Y-93406729D01*
X155651200Y-97967800D02*
X155651200Y-96520000D01*
X151536400Y-99517200D02*
X154101800Y-99517200D01*
X154101800Y-99517200D02*
X155651200Y-97967800D01*
X148158200Y-95656400D02*
X148158200Y-98171000D01*
X147675600Y-95173800D02*
X148158200Y-95656400D01*
X148158200Y-98171000D02*
X148653401Y-98666201D01*
X151236401Y-99217201D02*
X151536400Y-99517200D01*
X148653401Y-98666201D02*
X150685401Y-98666201D01*
X150685401Y-98666201D02*
X151236401Y-99217201D01*
D11*
X146939000Y-102616000D02*
X147447000Y-102616000D01*
X143510000Y-106045000D02*
X146939000Y-102616000D01*
D10*
X164037000Y-65307000D02*
X162247000Y-67097000D01*
X167357000Y-76051200D02*
X167357000Y-66073800D01*
X163982400Y-75285600D02*
X164608300Y-75911500D01*
X163576000Y-75285600D02*
X163982400Y-75285600D01*
X164608300Y-76698900D02*
X165277800Y-77368400D01*
X167357000Y-66073800D02*
X166590200Y-65307000D01*
X166590200Y-65307000D02*
X164037000Y-65307000D01*
X164608300Y-75911500D02*
X164608300Y-76698900D01*
X165277800Y-77368400D02*
X166039800Y-77368400D01*
X166039800Y-77368400D02*
X167357000Y-76051200D01*
X166395400Y-66319400D02*
X166395400Y-70510400D01*
X166116000Y-70789800D02*
X165277800Y-70789800D01*
X166547800Y-66167000D02*
X166395400Y-66319400D01*
X165862000Y-76911200D02*
X166907000Y-75866200D01*
X165058300Y-75962300D02*
X165058300Y-76513900D01*
X165277800Y-70789800D02*
X165022000Y-70534000D01*
X165022000Y-70534000D02*
X165022000Y-69047000D01*
X166090600Y-75285600D02*
X165735000Y-75285600D01*
X165735000Y-75285600D02*
X165058300Y-75962300D01*
X166907000Y-66323000D02*
X166751000Y-66167000D01*
X166395400Y-70510400D02*
X166116000Y-70789800D01*
X165455600Y-76911200D02*
X165862000Y-76911200D01*
X165058300Y-76513900D02*
X165455600Y-76911200D01*
X166751000Y-66167000D02*
X166547800Y-66167000D01*
X166907000Y-75866200D02*
X166907000Y-66323000D01*
X138635000Y-70407000D02*
X138635000Y-68920000D01*
X138379200Y-70662800D02*
X138635000Y-70407000D01*
X137541000Y-70662800D02*
X138379200Y-70662800D01*
X137261600Y-70383400D02*
X137541000Y-70662800D01*
X138201400Y-76784200D02*
X137795000Y-76784200D01*
X138598700Y-76386900D02*
X138201400Y-76784200D01*
X138598700Y-75835300D02*
X138598700Y-76386900D01*
X137566400Y-75158600D02*
X137922000Y-75158600D01*
X137795000Y-76784200D02*
X136750000Y-75739200D01*
X137109200Y-66040000D02*
X137261600Y-66192400D01*
X137922000Y-75158600D02*
X138598700Y-75835300D01*
X136750000Y-66196000D02*
X136906000Y-66040000D01*
X136750000Y-75739200D02*
X136750000Y-66196000D01*
X136906000Y-66040000D02*
X137109200Y-66040000D01*
X137261600Y-66192400D02*
X137261600Y-70383400D01*
X141011000Y-66970000D02*
X141410000Y-66970000D01*
X137066800Y-65180000D02*
X139620000Y-65180000D01*
X136300000Y-65946800D02*
X137066800Y-65180000D01*
X137617200Y-77241400D02*
X136300000Y-75924200D01*
X139674600Y-75158600D02*
X139048700Y-75784500D01*
X136300000Y-75924200D02*
X136300000Y-65946800D01*
X139048700Y-76571900D02*
X138379200Y-77241400D01*
X140081000Y-75158600D02*
X139674600Y-75158600D01*
X139048700Y-75784500D02*
X139048700Y-76571900D01*
X139620000Y-65180000D02*
X141410000Y-66970000D01*
X138379200Y-77241400D02*
X137617200Y-77241400D01*
X156438600Y-93073726D02*
X155820859Y-92455985D01*
X156438600Y-93624400D02*
X156438600Y-93073726D01*
X156108400Y-93954600D02*
X156438600Y-93624400D01*
X151504610Y-89808010D02*
X152120600Y-90424000D01*
X154813000Y-93548200D02*
X155219400Y-93954600D01*
X152120600Y-90424000D02*
X154686000Y-90424000D01*
X151504610Y-77438210D02*
X151504610Y-89808010D01*
X151003000Y-76911200D02*
X151003000Y-76936600D01*
X154686000Y-90424000D02*
X155117800Y-90855800D01*
X155117800Y-91744800D02*
X154813000Y-92049600D01*
X155117800Y-90855800D02*
X155117800Y-91744800D01*
X155219400Y-93954600D02*
X156108400Y-93954600D01*
X151003000Y-76936600D02*
X151504610Y-77438210D01*
X154813000Y-92049600D02*
X154813000Y-93548200D01*
X155676600Y-93267802D02*
X155676600Y-93345000D01*
X155219400Y-92208900D02*
X155219400Y-92887800D01*
X155219400Y-92887800D02*
X155376601Y-93045001D01*
X155517811Y-90646211D02*
X155517811Y-91910489D01*
X154863800Y-89992200D02*
X155517811Y-90646211D01*
X155517811Y-91910489D02*
X155219400Y-92208900D01*
X152476200Y-76911200D02*
X151952399Y-77435001D01*
X151952399Y-77435001D02*
X151952399Y-89620799D01*
X155376601Y-93045001D02*
X155676600Y-93345000D01*
X152323800Y-89992200D02*
X154863800Y-89992200D01*
X153441400Y-76911200D02*
X152476200Y-76911200D01*
X151952399Y-89620799D02*
X152323800Y-89992200D01*
D11*
X155994200Y-115862000D02*
X155956000Y-115862000D01*
X157302200Y-112318800D02*
X157302200Y-114554000D01*
X159766000Y-109855000D02*
X157302200Y-112318800D01*
X161442400Y-92938600D02*
X161442400Y-100279200D01*
X159766000Y-101955600D02*
X159766000Y-109855000D01*
X159499410Y-92874990D02*
X160020000Y-92354400D01*
X160858200Y-92354400D02*
X161442400Y-92938600D01*
X157302200Y-114554000D02*
X155994200Y-115862000D01*
X160020000Y-92354400D02*
X160858200Y-92354400D01*
X161442400Y-100279200D02*
X159766000Y-101955600D01*
X147175589Y-97528011D02*
X147175589Y-96451632D01*
X147175589Y-96451632D02*
X147175589Y-96027368D01*
X144322800Y-100380800D02*
X147175589Y-97528011D01*
D10*
X154152600Y-87630000D02*
X154340350Y-87442250D01*
X154340350Y-87442250D02*
X154340350Y-86692250D01*
X154340350Y-86692250D02*
X155735800Y-85296800D01*
X155735800Y-85296800D02*
X157869400Y-85296800D01*
X157869400Y-85296800D02*
X158271000Y-84895200D01*
X158271000Y-84895200D02*
X158271000Y-83413600D01*
X158042400Y-83185000D02*
X157226000Y-83185000D01*
X158271000Y-83413600D02*
X158042400Y-83185000D01*
X148179411Y-87799289D02*
X148348700Y-87630000D01*
X147565600Y-89328200D02*
X148179411Y-88714389D01*
X148179411Y-88714389D02*
X148179411Y-87799289D01*
X138455400Y-83185000D02*
X138586000Y-83315600D01*
X137541000Y-83185000D02*
X138455400Y-83185000D01*
X142400800Y-89328200D02*
X147565600Y-89328200D01*
X138586000Y-83315600D02*
X138586000Y-85513400D01*
X138586000Y-85513400D02*
X142400800Y-89328200D01*
X155922200Y-85746800D02*
X158055800Y-85746800D01*
X158721000Y-85081600D02*
X158721000Y-83413600D01*
X154978100Y-87630000D02*
X154790350Y-87442250D01*
X158055800Y-85746800D02*
X158721000Y-85081600D01*
X154790350Y-87442250D02*
X154790350Y-86878650D01*
X154790350Y-86878650D02*
X155922200Y-85746800D01*
X158721000Y-83413600D02*
X158949600Y-83185000D01*
X158949600Y-83185000D02*
X159766000Y-83185000D01*
X147729411Y-87799289D02*
X147548600Y-87618478D01*
X147729411Y-88527989D02*
X147729411Y-87799289D01*
X147379200Y-88878200D02*
X147729411Y-88527989D01*
X139166600Y-83185000D02*
X139036000Y-83315600D01*
X140081000Y-83185000D02*
X139166600Y-83185000D01*
X139036000Y-83315600D02*
X139036000Y-85327000D01*
X139036000Y-85327000D02*
X142587200Y-88878200D01*
X142587200Y-88878200D02*
X147379200Y-88878200D01*
X152682411Y-87799289D02*
X152501600Y-87618478D01*
X152682411Y-88789411D02*
X152682411Y-87799289D01*
X153221200Y-89328200D02*
X152682411Y-88789411D01*
X164414200Y-83642200D02*
X164642800Y-83413600D01*
X164642800Y-82792000D02*
X164448000Y-82597200D01*
X163237400Y-82597200D02*
X162912000Y-82922600D01*
X163576000Y-83185000D02*
X164033200Y-83642200D01*
X164033200Y-83642200D02*
X164414200Y-83642200D01*
X164642800Y-83413600D02*
X164642800Y-82792000D01*
X164448000Y-82597200D02*
X163237400Y-82597200D01*
X159224200Y-89328200D02*
X153221200Y-89328200D01*
X162912000Y-82922600D02*
X162912000Y-85640400D01*
X162912000Y-85640400D02*
X159224200Y-89328200D01*
X149837350Y-87817750D02*
X150025100Y-87630000D01*
X143891000Y-83185000D02*
X144809000Y-83185000D01*
X145643600Y-85572600D02*
X148818600Y-85572600D01*
X150698200Y-87452200D02*
X150698200Y-88683400D01*
X144809000Y-83185000D02*
X144957800Y-83333800D01*
X144957800Y-84886800D02*
X145643600Y-85572600D01*
X150698200Y-88683400D02*
X150528800Y-88852800D01*
X150528800Y-88852800D02*
X150219200Y-88852800D01*
X144957800Y-83333800D02*
X144957800Y-84886800D01*
X148818600Y-85572600D02*
X150698200Y-87452200D01*
X150219200Y-88852800D02*
X149837350Y-88470950D01*
X149837350Y-88470950D02*
X149837350Y-87817750D01*
X165086982Y-83425982D02*
X165086982Y-82599782D01*
X166116000Y-83185000D02*
X166116000Y-83140000D01*
X153132411Y-87799289D02*
X153301700Y-87630000D01*
X165613800Y-83642200D02*
X165303200Y-83642200D01*
X163051000Y-82147200D02*
X162462000Y-82736200D01*
X165086982Y-82599782D02*
X164634400Y-82147200D01*
X153132411Y-88603011D02*
X153132411Y-87799289D01*
X153407600Y-88878200D02*
X153132411Y-88603011D01*
X164634400Y-82147200D02*
X163051000Y-82147200D01*
X162462000Y-82736200D02*
X162462000Y-85454000D01*
X166116000Y-83140000D02*
X165613800Y-83642200D01*
X162462000Y-85454000D02*
X159037800Y-88878200D01*
X165303200Y-83642200D02*
X165086982Y-83425982D01*
X159037800Y-88878200D02*
X153407600Y-88878200D01*
X145846800Y-85166200D02*
X149072600Y-85166200D01*
X149958000Y-89302800D02*
X149387350Y-88732150D01*
X151104600Y-87198200D02*
X151104600Y-88913400D01*
X145411400Y-83337400D02*
X145411400Y-84730800D01*
X145563800Y-83185000D02*
X145411400Y-83337400D01*
X146431000Y-83185000D02*
X145563800Y-83185000D01*
X149072600Y-85166200D02*
X151104600Y-87198200D01*
X151104600Y-88913400D02*
X150715200Y-89302800D01*
X149387350Y-87817750D02*
X149199600Y-87630000D01*
X150715200Y-89302800D02*
X149958000Y-89302800D01*
X145411400Y-84730800D02*
X145846800Y-85166200D01*
X149387350Y-88732150D02*
X149387350Y-87817750D01*
D25*
X162221600Y-123547436D02*
X162229800Y-123555636D01*
X162221600Y-122310000D02*
X162221600Y-123547436D01*
X162229800Y-123555636D02*
X162229800Y-124079000D01*
X162221600Y-122310000D02*
X161476800Y-122310000D01*
X141410000Y-122260000D02*
X142077800Y-122260000D01*
X141410000Y-122260000D02*
X140858600Y-122260000D01*
X141410000Y-122260000D02*
X141138000Y-122260000D01*
D11*
X147523200Y-99491800D02*
X147523200Y-99441000D01*
X140970000Y-106045000D02*
X147523200Y-99491800D01*
X150241000Y-103047800D02*
X148590000Y-104698800D01*
X150241000Y-101168200D02*
X150241000Y-103047800D01*
X148513800Y-99466400D02*
X148539200Y-99466400D01*
X148590000Y-104698800D02*
X148590000Y-106045000D01*
X148539200Y-99466400D02*
X150241000Y-101168200D01*
X149389999Y-102684573D02*
X149389999Y-102620584D01*
X149389999Y-102705001D02*
X149389999Y-102620584D01*
X146050000Y-106045000D02*
X149389999Y-102705001D01*
X151130000Y-106788870D02*
X151130000Y-106045000D01*
X149860000Y-108058870D02*
X151130000Y-106788870D01*
X149860000Y-109111130D02*
X149860000Y-108058870D01*
X150629270Y-109880400D02*
X149860000Y-109111130D01*
X153974800Y-109880400D02*
X150629270Y-109880400D01*
X159410400Y-98501200D02*
X159410400Y-100482400D01*
X159409200Y-98500000D02*
X159410400Y-98501200D01*
X159410400Y-100482400D02*
X155244800Y-104648000D01*
X155244800Y-104648000D02*
X155244800Y-108610400D01*
X155244800Y-108610400D02*
X153974800Y-109880400D01*
X153136600Y-106578400D02*
X151130000Y-108585000D01*
X153670000Y-106578400D02*
X153136600Y-106578400D01*
X157822900Y-100418900D02*
X153670000Y-104571800D01*
X160248600Y-93268800D02*
X157822900Y-95694500D01*
X153670000Y-104571800D02*
X153670000Y-106578400D01*
X157822900Y-95694500D02*
X157822900Y-100418900D01*
X149453599Y-107721401D02*
X148590000Y-108585000D01*
X149860000Y-107315000D02*
X149453599Y-107721401D01*
X149860000Y-104673400D02*
X149860000Y-107315000D01*
X151282400Y-103251000D02*
X149860000Y-104673400D01*
X153238200Y-103251000D02*
X151282400Y-103251000D01*
X159893001Y-89509601D02*
X157708600Y-91694002D01*
X157708600Y-93192600D02*
X156857700Y-94043500D01*
X157708600Y-91694002D02*
X157708600Y-93192600D01*
X156857700Y-94043500D02*
X156857700Y-99631500D01*
X156857700Y-99631500D02*
X153238200Y-103251000D01*
D24*
X165938200Y-115773200D02*
X165905500Y-115740500D01*
D26*
X165898200Y-115747800D02*
X165905500Y-115740500D01*
D27*
X160223200Y-115747800D02*
X165898200Y-115747800D01*
X158496000Y-117475000D02*
X160223200Y-115747800D01*
D28*
G36*
X150368000Y-116205000D02*
G01*
X150370440Y-116229776D01*
X150377667Y-116253601D01*
X150389403Y-116275557D01*
X150405197Y-116294803D01*
X150424443Y-116310597D01*
X150446399Y-116322333D01*
X150470224Y-116329560D01*
X150495000Y-116332000D01*
X155145529Y-116332000D01*
X155229738Y-116458028D01*
X155359972Y-116588262D01*
X155513111Y-116690586D01*
X155683271Y-116761068D01*
X155863911Y-116797000D01*
X156048089Y-116797000D01*
X156228729Y-116761068D01*
X156398889Y-116690586D01*
X156552028Y-116588262D01*
X156682262Y-116458028D01*
X156766471Y-116332000D01*
X157353000Y-116332000D01*
X157353000Y-118110000D01*
X157355440Y-118134776D01*
X157362667Y-118158601D01*
X157374403Y-118180557D01*
X157390197Y-118199803D01*
X157409443Y-118215597D01*
X157431399Y-118227333D01*
X157455224Y-118234560D01*
X157480000Y-118237000D01*
X157653074Y-118237000D01*
X157689552Y-118281448D01*
X157862378Y-118423283D01*
X158059554Y-118528676D01*
X158273502Y-118593577D01*
X158496000Y-118615491D01*
X158718498Y-118593577D01*
X158932446Y-118528676D01*
X159129622Y-118423283D01*
X159259143Y-118316988D01*
X159339131Y-118237000D01*
X163449000Y-118237000D01*
X163449000Y-120523000D01*
X154486052Y-120523000D01*
X154511011Y-120462743D01*
X154570000Y-120166184D01*
X154570000Y-119863816D01*
X154516530Y-119595000D01*
X160093528Y-119595000D01*
X160096600Y-119628250D01*
X160255350Y-119787000D01*
X161023600Y-119787000D01*
X161023600Y-119118750D01*
X162169600Y-119118750D01*
X162169600Y-119787000D01*
X162937850Y-119787000D01*
X163096600Y-119628250D01*
X163099672Y-119595000D01*
X163087412Y-119470518D01*
X163051102Y-119350820D01*
X162992137Y-119240506D01*
X162912785Y-119143815D01*
X162816094Y-119064463D01*
X162705780Y-119005498D01*
X162586082Y-118969188D01*
X162461600Y-118956928D01*
X162328350Y-118960000D01*
X162169600Y-119118750D01*
X161023600Y-119118750D01*
X160864850Y-118960000D01*
X160731600Y-118956928D01*
X160607118Y-118969188D01*
X160487420Y-119005498D01*
X160377106Y-119064463D01*
X160280415Y-119143815D01*
X160201063Y-119240506D01*
X160142098Y-119350820D01*
X160105788Y-119470518D01*
X160093528Y-119595000D01*
X154516530Y-119595000D01*
X154511011Y-119567257D01*
X154395299Y-119287905D01*
X154227312Y-119036495D01*
X154013505Y-118822688D01*
X153762095Y-118654701D01*
X153482743Y-118538989D01*
X153186184Y-118480000D01*
X152883816Y-118480000D01*
X152587257Y-118538989D01*
X152307905Y-118654701D01*
X152056495Y-118822688D01*
X151990056Y-118889127D01*
X151984502Y-118870820D01*
X151925537Y-118760506D01*
X151846185Y-118663815D01*
X151749494Y-118584463D01*
X151639180Y-118525498D01*
X151519482Y-118489188D01*
X151395000Y-118476928D01*
X149595000Y-118476928D01*
X149470518Y-118489188D01*
X149350820Y-118525498D01*
X149240506Y-118584463D01*
X149143815Y-118663815D01*
X149064463Y-118760506D01*
X149005498Y-118870820D01*
X148969188Y-118990518D01*
X148956928Y-119115000D01*
X148956928Y-120523000D01*
X140335000Y-120523000D01*
X140335000Y-119545000D01*
X140531928Y-119545000D01*
X140535000Y-119578250D01*
X140693750Y-119737000D01*
X141462000Y-119737000D01*
X141462000Y-119068750D01*
X142608000Y-119068750D01*
X142608000Y-119737000D01*
X143376250Y-119737000D01*
X143535000Y-119578250D01*
X143538072Y-119545000D01*
X143525812Y-119420518D01*
X143489502Y-119300820D01*
X143430537Y-119190506D01*
X143351185Y-119093815D01*
X143254494Y-119014463D01*
X143144180Y-118955498D01*
X143024482Y-118919188D01*
X142900000Y-118906928D01*
X142766750Y-118910000D01*
X142608000Y-119068750D01*
X141462000Y-119068750D01*
X141303250Y-118910000D01*
X141170000Y-118906928D01*
X141045518Y-118919188D01*
X140925820Y-118955498D01*
X140815506Y-119014463D01*
X140718815Y-119093815D01*
X140639463Y-119190506D01*
X140580498Y-119300820D01*
X140544188Y-119420518D01*
X140531928Y-119545000D01*
X140335000Y-119545000D01*
X140335000Y-116936750D01*
X144715000Y-116936750D01*
X144726206Y-117039229D01*
X144764379Y-117158346D01*
X144825057Y-117267727D01*
X144905908Y-117363169D01*
X144971869Y-117415601D01*
X144866939Y-117572641D01*
X144766304Y-117815595D01*
X144715000Y-118073514D01*
X144715000Y-118336486D01*
X144766304Y-118594405D01*
X144866939Y-118837359D01*
X145013038Y-119056013D01*
X145198987Y-119241962D01*
X145417641Y-119388061D01*
X145660595Y-119488696D01*
X145918514Y-119540000D01*
X146181486Y-119540000D01*
X146439405Y-119488696D01*
X146682359Y-119388061D01*
X146901013Y-119241962D01*
X147086962Y-119056013D01*
X147233061Y-118837359D01*
X147333696Y-118594405D01*
X147385000Y-118336486D01*
X147385000Y-118073514D01*
X147333696Y-117815595D01*
X147233061Y-117572641D01*
X147128131Y-117415601D01*
X147194092Y-117363169D01*
X147274943Y-117267727D01*
X147335621Y-117158346D01*
X147373794Y-117039229D01*
X147385000Y-116936750D01*
X147226250Y-116778000D01*
X146623000Y-116778000D01*
X146623000Y-116798000D01*
X145477000Y-116798000D01*
X145477000Y-116778000D01*
X144873750Y-116778000D01*
X144715000Y-116936750D01*
X140335000Y-116936750D01*
X140335000Y-115473250D01*
X144715000Y-115473250D01*
X144873750Y-115632000D01*
X145477000Y-115632000D01*
X145477000Y-115028750D01*
X146623000Y-115028750D01*
X146623000Y-115632000D01*
X147226250Y-115632000D01*
X147385000Y-115473250D01*
X147373794Y-115370771D01*
X147335621Y-115251654D01*
X147274943Y-115142273D01*
X147194092Y-115046831D01*
X147096174Y-114968997D01*
X146984954Y-114911761D01*
X146864704Y-114877323D01*
X146781750Y-114870000D01*
X146623000Y-115028750D01*
X145477000Y-115028750D01*
X145318250Y-114870000D01*
X145235296Y-114877323D01*
X145115046Y-114911761D01*
X145003826Y-114968997D01*
X144905908Y-115046831D01*
X144825057Y-115142273D01*
X144764379Y-115251654D01*
X144726206Y-115370771D01*
X144715000Y-115473250D01*
X140335000Y-115473250D01*
X140335000Y-114427000D01*
X150368000Y-114427000D01*
X150368000Y-116205000D01*
G37*
X150368000Y-116205000D02*
X150370440Y-116229776D01*
X150377667Y-116253601D01*
X150389403Y-116275557D01*
X150405197Y-116294803D01*
X150424443Y-116310597D01*
X150446399Y-116322333D01*
X150470224Y-116329560D01*
X150495000Y-116332000D01*
X155145529Y-116332000D01*
X155229738Y-116458028D01*
X155359972Y-116588262D01*
X155513111Y-116690586D01*
X155683271Y-116761068D01*
X155863911Y-116797000D01*
X156048089Y-116797000D01*
X156228729Y-116761068D01*
X156398889Y-116690586D01*
X156552028Y-116588262D01*
X156682262Y-116458028D01*
X156766471Y-116332000D01*
X157353000Y-116332000D01*
X157353000Y-118110000D01*
X157355440Y-118134776D01*
X157362667Y-118158601D01*
X157374403Y-118180557D01*
X157390197Y-118199803D01*
X157409443Y-118215597D01*
X157431399Y-118227333D01*
X157455224Y-118234560D01*
X157480000Y-118237000D01*
X157653074Y-118237000D01*
X157689552Y-118281448D01*
X157862378Y-118423283D01*
X158059554Y-118528676D01*
X158273502Y-118593577D01*
X158496000Y-118615491D01*
X158718498Y-118593577D01*
X158932446Y-118528676D01*
X159129622Y-118423283D01*
X159259143Y-118316988D01*
X159339131Y-118237000D01*
X163449000Y-118237000D01*
X163449000Y-120523000D01*
X154486052Y-120523000D01*
X154511011Y-120462743D01*
X154570000Y-120166184D01*
X154570000Y-119863816D01*
X154516530Y-119595000D01*
X160093528Y-119595000D01*
X160096600Y-119628250D01*
X160255350Y-119787000D01*
X161023600Y-119787000D01*
X161023600Y-119118750D01*
X162169600Y-119118750D01*
X162169600Y-119787000D01*
X162937850Y-119787000D01*
X163096600Y-119628250D01*
X163099672Y-119595000D01*
X163087412Y-119470518D01*
X163051102Y-119350820D01*
X162992137Y-119240506D01*
X162912785Y-119143815D01*
X162816094Y-119064463D01*
X162705780Y-119005498D01*
X162586082Y-118969188D01*
X162461600Y-118956928D01*
X162328350Y-118960000D01*
X162169600Y-119118750D01*
X161023600Y-119118750D01*
X160864850Y-118960000D01*
X160731600Y-118956928D01*
X160607118Y-118969188D01*
X160487420Y-119005498D01*
X160377106Y-119064463D01*
X160280415Y-119143815D01*
X160201063Y-119240506D01*
X160142098Y-119350820D01*
X160105788Y-119470518D01*
X160093528Y-119595000D01*
X154516530Y-119595000D01*
X154511011Y-119567257D01*
X154395299Y-119287905D01*
X154227312Y-119036495D01*
X154013505Y-118822688D01*
X153762095Y-118654701D01*
X153482743Y-118538989D01*
X153186184Y-118480000D01*
X152883816Y-118480000D01*
X152587257Y-118538989D01*
X152307905Y-118654701D01*
X152056495Y-118822688D01*
X151990056Y-118889127D01*
X151984502Y-118870820D01*
X151925537Y-118760506D01*
X151846185Y-118663815D01*
X151749494Y-118584463D01*
X151639180Y-118525498D01*
X151519482Y-118489188D01*
X151395000Y-118476928D01*
X149595000Y-118476928D01*
X149470518Y-118489188D01*
X149350820Y-118525498D01*
X149240506Y-118584463D01*
X149143815Y-118663815D01*
X149064463Y-118760506D01*
X149005498Y-118870820D01*
X148969188Y-118990518D01*
X148956928Y-119115000D01*
X148956928Y-120523000D01*
X140335000Y-120523000D01*
X140335000Y-119545000D01*
X140531928Y-119545000D01*
X140535000Y-119578250D01*
X140693750Y-119737000D01*
X141462000Y-119737000D01*
X141462000Y-119068750D01*
X142608000Y-119068750D01*
X142608000Y-119737000D01*
X143376250Y-119737000D01*
X143535000Y-119578250D01*
X143538072Y-119545000D01*
X143525812Y-119420518D01*
X143489502Y-119300820D01*
X143430537Y-119190506D01*
X143351185Y-119093815D01*
X143254494Y-119014463D01*
X143144180Y-118955498D01*
X143024482Y-118919188D01*
X142900000Y-118906928D01*
X142766750Y-118910000D01*
X142608000Y-119068750D01*
X141462000Y-119068750D01*
X141303250Y-118910000D01*
X141170000Y-118906928D01*
X141045518Y-118919188D01*
X140925820Y-118955498D01*
X140815506Y-119014463D01*
X140718815Y-119093815D01*
X140639463Y-119190506D01*
X140580498Y-119300820D01*
X140544188Y-119420518D01*
X140531928Y-119545000D01*
X140335000Y-119545000D01*
X140335000Y-116936750D01*
X144715000Y-116936750D01*
X144726206Y-117039229D01*
X144764379Y-117158346D01*
X144825057Y-117267727D01*
X144905908Y-117363169D01*
X144971869Y-117415601D01*
X144866939Y-117572641D01*
X144766304Y-117815595D01*
X144715000Y-118073514D01*
X144715000Y-118336486D01*
X144766304Y-118594405D01*
X144866939Y-118837359D01*
X145013038Y-119056013D01*
X145198987Y-119241962D01*
X145417641Y-119388061D01*
X145660595Y-119488696D01*
X145918514Y-119540000D01*
X146181486Y-119540000D01*
X146439405Y-119488696D01*
X146682359Y-119388061D01*
X146901013Y-119241962D01*
X147086962Y-119056013D01*
X147233061Y-118837359D01*
X147333696Y-118594405D01*
X147385000Y-118336486D01*
X147385000Y-118073514D01*
X147333696Y-117815595D01*
X147233061Y-117572641D01*
X147128131Y-117415601D01*
X147194092Y-117363169D01*
X147274943Y-117267727D01*
X147335621Y-117158346D01*
X147373794Y-117039229D01*
X147385000Y-116936750D01*
X147226250Y-116778000D01*
X146623000Y-116778000D01*
X146623000Y-116798000D01*
X145477000Y-116798000D01*
X145477000Y-116778000D01*
X144873750Y-116778000D01*
X144715000Y-116936750D01*
X140335000Y-116936750D01*
X140335000Y-115473250D01*
X144715000Y-115473250D01*
X144873750Y-115632000D01*
X145477000Y-115632000D01*
X145477000Y-115028750D01*
X146623000Y-115028750D01*
X146623000Y-115632000D01*
X147226250Y-115632000D01*
X147385000Y-115473250D01*
X147373794Y-115370771D01*
X147335621Y-115251654D01*
X147274943Y-115142273D01*
X147194092Y-115046831D01*
X147096174Y-114968997D01*
X146984954Y-114911761D01*
X146864704Y-114877323D01*
X146781750Y-114870000D01*
X146623000Y-115028750D01*
X145477000Y-115028750D01*
X145318250Y-114870000D01*
X145235296Y-114877323D01*
X145115046Y-114911761D01*
X145003826Y-114968997D01*
X144905908Y-115046831D01*
X144825057Y-115142273D01*
X144764379Y-115251654D01*
X144726206Y-115370771D01*
X144715000Y-115473250D01*
X140335000Y-115473250D01*
X140335000Y-114427000D01*
X150368000Y-114427000D01*
X150368000Y-116205000D01*
G36*
X149240506Y-121445537D02*
G01*
X149350820Y-121504502D01*
X149470518Y-121540812D01*
X149595000Y-121553072D01*
X151395000Y-121553072D01*
X151519482Y-121540812D01*
X151639180Y-121504502D01*
X151749494Y-121445537D01*
X151790359Y-121412000D01*
X152396509Y-121412000D01*
X152587257Y-121491011D01*
X152883816Y-121550000D01*
X153186184Y-121550000D01*
X153482743Y-121491011D01*
X153673491Y-121412000D01*
X160349646Y-121412000D01*
X160392447Y-121464153D01*
X160547101Y-121591075D01*
X160723544Y-121685386D01*
X160874540Y-121731190D01*
X160880350Y-121737000D01*
X160893694Y-121737000D01*
X160914996Y-121743462D01*
X161114100Y-121763072D01*
X162079100Y-121763072D01*
X162278204Y-121743462D01*
X162365438Y-121717000D01*
X162794600Y-121717000D01*
X162794600Y-121737000D01*
X162814600Y-121737000D01*
X162814600Y-122883000D01*
X162794600Y-122883000D01*
X162794600Y-123551250D01*
X162953350Y-123710000D01*
X163068000Y-123712643D01*
X163068000Y-124968000D01*
X154549549Y-124968000D01*
X154570000Y-124865184D01*
X154570000Y-124562816D01*
X154511011Y-124266257D01*
X154395299Y-123986905D01*
X154227312Y-123735495D01*
X154013505Y-123521688D01*
X153762095Y-123353701D01*
X153482743Y-123237989D01*
X153186184Y-123179000D01*
X152883816Y-123179000D01*
X152587257Y-123237989D01*
X152307905Y-123353701D01*
X152056495Y-123521688D01*
X151990056Y-123588127D01*
X151984502Y-123569820D01*
X151925537Y-123459506D01*
X151846185Y-123362815D01*
X151749494Y-123283463D01*
X151639180Y-123224498D01*
X151519482Y-123188188D01*
X151395000Y-123175928D01*
X149595000Y-123175928D01*
X149470518Y-123188188D01*
X149350820Y-123224498D01*
X149240506Y-123283463D01*
X149143815Y-123362815D01*
X149064463Y-123459506D01*
X149005498Y-123569820D01*
X148969188Y-123689518D01*
X148956928Y-123814000D01*
X148956928Y-124968000D01*
X140589000Y-124968000D01*
X140589000Y-123662058D01*
X140678250Y-123660000D01*
X140837000Y-123501250D01*
X140837000Y-122833000D01*
X141983000Y-122833000D01*
X141983000Y-123501250D01*
X142141750Y-123660000D01*
X142275000Y-123663072D01*
X142399482Y-123650812D01*
X142519180Y-123614502D01*
X142629494Y-123555537D01*
X142726185Y-123476185D01*
X142805537Y-123379494D01*
X142864502Y-123269180D01*
X142900812Y-123149482D01*
X142908147Y-123075000D01*
X160718528Y-123075000D01*
X160730788Y-123199482D01*
X160767098Y-123319180D01*
X160826063Y-123429494D01*
X160905415Y-123526185D01*
X161002106Y-123605537D01*
X161112420Y-123664502D01*
X161232118Y-123700812D01*
X161356600Y-123713072D01*
X161489850Y-123710000D01*
X161648600Y-123551250D01*
X161648600Y-122883000D01*
X160880350Y-122883000D01*
X160721600Y-123041750D01*
X160718528Y-123075000D01*
X142908147Y-123075000D01*
X142913072Y-123025000D01*
X142910000Y-122991750D01*
X142751250Y-122833000D01*
X141983000Y-122833000D01*
X140837000Y-122833000D01*
X140817000Y-122833000D01*
X140817000Y-121687000D01*
X140837000Y-121687000D01*
X140837000Y-121667000D01*
X141266162Y-121667000D01*
X141353396Y-121693462D01*
X141552500Y-121713072D01*
X142517500Y-121713072D01*
X142716604Y-121693462D01*
X142737906Y-121687000D01*
X142751250Y-121687000D01*
X142757060Y-121681190D01*
X142908056Y-121635386D01*
X143084499Y-121541075D01*
X143239153Y-121414153D01*
X143240920Y-121412000D01*
X149199641Y-121412000D01*
X149240506Y-121445537D01*
G37*
X149240506Y-121445537D02*
X149350820Y-121504502D01*
X149470518Y-121540812D01*
X149595000Y-121553072D01*
X151395000Y-121553072D01*
X151519482Y-121540812D01*
X151639180Y-121504502D01*
X151749494Y-121445537D01*
X151790359Y-121412000D01*
X152396509Y-121412000D01*
X152587257Y-121491011D01*
X152883816Y-121550000D01*
X153186184Y-121550000D01*
X153482743Y-121491011D01*
X153673491Y-121412000D01*
X160349646Y-121412000D01*
X160392447Y-121464153D01*
X160547101Y-121591075D01*
X160723544Y-121685386D01*
X160874540Y-121731190D01*
X160880350Y-121737000D01*
X160893694Y-121737000D01*
X160914996Y-121743462D01*
X161114100Y-121763072D01*
X162079100Y-121763072D01*
X162278204Y-121743462D01*
X162365438Y-121717000D01*
X162794600Y-121717000D01*
X162794600Y-121737000D01*
X162814600Y-121737000D01*
X162814600Y-122883000D01*
X162794600Y-122883000D01*
X162794600Y-123551250D01*
X162953350Y-123710000D01*
X163068000Y-123712643D01*
X163068000Y-124968000D01*
X154549549Y-124968000D01*
X154570000Y-124865184D01*
X154570000Y-124562816D01*
X154511011Y-124266257D01*
X154395299Y-123986905D01*
X154227312Y-123735495D01*
X154013505Y-123521688D01*
X153762095Y-123353701D01*
X153482743Y-123237989D01*
X153186184Y-123179000D01*
X152883816Y-123179000D01*
X152587257Y-123237989D01*
X152307905Y-123353701D01*
X152056495Y-123521688D01*
X151990056Y-123588127D01*
X151984502Y-123569820D01*
X151925537Y-123459506D01*
X151846185Y-123362815D01*
X151749494Y-123283463D01*
X151639180Y-123224498D01*
X151519482Y-123188188D01*
X151395000Y-123175928D01*
X149595000Y-123175928D01*
X149470518Y-123188188D01*
X149350820Y-123224498D01*
X149240506Y-123283463D01*
X149143815Y-123362815D01*
X149064463Y-123459506D01*
X149005498Y-123569820D01*
X148969188Y-123689518D01*
X148956928Y-123814000D01*
X148956928Y-124968000D01*
X140589000Y-124968000D01*
X140589000Y-123662058D01*
X140678250Y-123660000D01*
X140837000Y-123501250D01*
X140837000Y-122833000D01*
X141983000Y-122833000D01*
X141983000Y-123501250D01*
X142141750Y-123660000D01*
X142275000Y-123663072D01*
X142399482Y-123650812D01*
X142519180Y-123614502D01*
X142629494Y-123555537D01*
X142726185Y-123476185D01*
X142805537Y-123379494D01*
X142864502Y-123269180D01*
X142900812Y-123149482D01*
X142908147Y-123075000D01*
X160718528Y-123075000D01*
X160730788Y-123199482D01*
X160767098Y-123319180D01*
X160826063Y-123429494D01*
X160905415Y-123526185D01*
X161002106Y-123605537D01*
X161112420Y-123664502D01*
X161232118Y-123700812D01*
X161356600Y-123713072D01*
X161489850Y-123710000D01*
X161648600Y-123551250D01*
X161648600Y-122883000D01*
X160880350Y-122883000D01*
X160721600Y-123041750D01*
X160718528Y-123075000D01*
X142908147Y-123075000D01*
X142913072Y-123025000D01*
X142910000Y-122991750D01*
X142751250Y-122833000D01*
X141983000Y-122833000D01*
X140837000Y-122833000D01*
X140817000Y-122833000D01*
X140817000Y-121687000D01*
X140837000Y-121687000D01*
X140837000Y-121667000D01*
X141266162Y-121667000D01*
X141353396Y-121693462D01*
X141552500Y-121713072D01*
X142517500Y-121713072D01*
X142716604Y-121693462D01*
X142737906Y-121687000D01*
X142751250Y-121687000D01*
X142757060Y-121681190D01*
X142908056Y-121635386D01*
X143084499Y-121541075D01*
X143239153Y-121414153D01*
X143240920Y-121412000D01*
X149199641Y-121412000D01*
X149240506Y-121445537D01*
M02*
