G04 #@! TF.GenerationSoftware,KiCad,Pcbnew,(5.1.5)-3*
G04 #@! TF.CreationDate,2020-07-08T18:31:05-03:00*
G04 #@! TF.ProjectId,EEN60002020,45454e36-3030-4303-9230-32302e6b6963,rev?*
G04 #@! TF.SameCoordinates,Original*
G04 #@! TF.FileFunction,Copper,L2,Inr*
G04 #@! TF.FilePolarity,Positive*
%FSLAX46Y46*%
G04 Gerber Fmt 4.6, Leading zero omitted, Abs format (unit mm)*
G04 Created by KiCad (PCBNEW (5.1.5)-3) date 2020-07-08 18:31:05*
%MOMM*%
%LPD*%
G04 APERTURE LIST*
%ADD10C,0.200000*%
%ADD11C,0.300000*%
%ADD12C,0.100000*%
%ADD13O,1.727200X1.727200*%
%ADD14R,1.727200X1.727200*%
%ADD15C,1.800000*%
%ADD16R,1.800000X1.800000*%
%ADD17R,1.400000X1.400000*%
%ADD18C,1.400000*%
%ADD19C,1.294000*%
%ADD20C,0.600000*%
%ADD21C,0.800000*%
%ADD22C,0.600000*%
%ADD23C,1.000000*%
%ADD24C,1.400000*%
%ADD25C,0.254000*%
G04 APERTURE END LIST*
D10*
X148082000Y-78930500D02*
X148082000Y-76454000D01*
X146113500Y-78930500D02*
X146113500Y-76454000D01*
X144145000Y-78930500D02*
X144145000Y-76454000D01*
X142176500Y-78930500D02*
X142176500Y-76454000D01*
X148082000Y-78930500D02*
X140208000Y-78930500D01*
X140208000Y-78930500D02*
X140208000Y-76454000D01*
X140208000Y-76454000D02*
X148082000Y-76454000D01*
D11*
X142742761Y-77083528D02*
X142814190Y-77012100D01*
X142957047Y-76940671D01*
X143314190Y-76940671D01*
X143457047Y-77012100D01*
X143528475Y-77083528D01*
X143599904Y-77226385D01*
X143599904Y-77369242D01*
X143528475Y-77583528D01*
X142671333Y-78440671D01*
X143599904Y-78440671D01*
G04 #@! TA.AperFunction,ViaPad*
D12*
G36*
X162116592Y-119596842D02*
G01*
X162153722Y-119602350D01*
X162190134Y-119611470D01*
X162225476Y-119624116D01*
X162259409Y-119640165D01*
X162291606Y-119659463D01*
X162321755Y-119681824D01*
X162349568Y-119707032D01*
X162374776Y-119734845D01*
X162397137Y-119764994D01*
X162416435Y-119797191D01*
X162432484Y-119831124D01*
X162445130Y-119866466D01*
X162454250Y-119902878D01*
X162459758Y-119940008D01*
X162461600Y-119977500D01*
X162461600Y-120742500D01*
X162459758Y-120779992D01*
X162454250Y-120817122D01*
X162445130Y-120853534D01*
X162432484Y-120888876D01*
X162416435Y-120922809D01*
X162397137Y-120955006D01*
X162374776Y-120985155D01*
X162349568Y-121012968D01*
X162321755Y-121038176D01*
X162291606Y-121060537D01*
X162259409Y-121079835D01*
X162225476Y-121095884D01*
X162190134Y-121108530D01*
X162153722Y-121117650D01*
X162116592Y-121123158D01*
X162079100Y-121125000D01*
X161114100Y-121125000D01*
X161076608Y-121123158D01*
X161039478Y-121117650D01*
X161003066Y-121108530D01*
X160967724Y-121095884D01*
X160933791Y-121079835D01*
X160901594Y-121060537D01*
X160871445Y-121038176D01*
X160843632Y-121012968D01*
X160818424Y-120985155D01*
X160796063Y-120955006D01*
X160776765Y-120922809D01*
X160760716Y-120888876D01*
X160748070Y-120853534D01*
X160738950Y-120817122D01*
X160733442Y-120779992D01*
X160731600Y-120742500D01*
X160731600Y-119977500D01*
X160733442Y-119940008D01*
X160738950Y-119902878D01*
X160748070Y-119866466D01*
X160760716Y-119831124D01*
X160776765Y-119797191D01*
X160796063Y-119764994D01*
X160818424Y-119734845D01*
X160843632Y-119707032D01*
X160871445Y-119681824D01*
X160901594Y-119659463D01*
X160933791Y-119640165D01*
X160967724Y-119624116D01*
X161003066Y-119611470D01*
X161039478Y-119602350D01*
X161076608Y-119596842D01*
X161114100Y-119595000D01*
X162079100Y-119595000D01*
X162116592Y-119596842D01*
G37*
G04 #@! TD.AperFunction*
G04 #@! TA.AperFunction,ViaPad*
G36*
X162741592Y-121546842D02*
G01*
X162778722Y-121552350D01*
X162815134Y-121561470D01*
X162850476Y-121574116D01*
X162884409Y-121590165D01*
X162916606Y-121609463D01*
X162946755Y-121631824D01*
X162974568Y-121657032D01*
X162999776Y-121684845D01*
X163022137Y-121714994D01*
X163041435Y-121747191D01*
X163057484Y-121781124D01*
X163070130Y-121816466D01*
X163079250Y-121852878D01*
X163084758Y-121890008D01*
X163086600Y-121927500D01*
X163086600Y-122692500D01*
X163084758Y-122729992D01*
X163079250Y-122767122D01*
X163070130Y-122803534D01*
X163057484Y-122838876D01*
X163041435Y-122872809D01*
X163022137Y-122905006D01*
X162999776Y-122935155D01*
X162974568Y-122962968D01*
X162946755Y-122988176D01*
X162916606Y-123010537D01*
X162884409Y-123029835D01*
X162850476Y-123045884D01*
X162815134Y-123058530D01*
X162778722Y-123067650D01*
X162741592Y-123073158D01*
X162704100Y-123075000D01*
X161739100Y-123075000D01*
X161701608Y-123073158D01*
X161664478Y-123067650D01*
X161628066Y-123058530D01*
X161592724Y-123045884D01*
X161558791Y-123029835D01*
X161526594Y-123010537D01*
X161496445Y-122988176D01*
X161468632Y-122962968D01*
X161443424Y-122935155D01*
X161421063Y-122905006D01*
X161401765Y-122872809D01*
X161385716Y-122838876D01*
X161373070Y-122803534D01*
X161363950Y-122767122D01*
X161358442Y-122729992D01*
X161356600Y-122692500D01*
X161356600Y-121927500D01*
X161358442Y-121890008D01*
X161363950Y-121852878D01*
X161373070Y-121816466D01*
X161385716Y-121781124D01*
X161401765Y-121747191D01*
X161421063Y-121714994D01*
X161443424Y-121684845D01*
X161468632Y-121657032D01*
X161496445Y-121631824D01*
X161526594Y-121609463D01*
X161558791Y-121590165D01*
X161592724Y-121574116D01*
X161628066Y-121561470D01*
X161664478Y-121552350D01*
X161701608Y-121546842D01*
X161739100Y-121545000D01*
X162704100Y-121545000D01*
X162741592Y-121546842D01*
G37*
G04 #@! TD.AperFunction*
G04 #@! TA.AperFunction,ViaPad*
G36*
X165516592Y-119596842D02*
G01*
X165553722Y-119602350D01*
X165590134Y-119611470D01*
X165625476Y-119624116D01*
X165659409Y-119640165D01*
X165691606Y-119659463D01*
X165721755Y-119681824D01*
X165749568Y-119707032D01*
X165774776Y-119734845D01*
X165797137Y-119764994D01*
X165816435Y-119797191D01*
X165832484Y-119831124D01*
X165845130Y-119866466D01*
X165854250Y-119902878D01*
X165859758Y-119940008D01*
X165861600Y-119977500D01*
X165861600Y-120742500D01*
X165859758Y-120779992D01*
X165854250Y-120817122D01*
X165845130Y-120853534D01*
X165832484Y-120888876D01*
X165816435Y-120922809D01*
X165797137Y-120955006D01*
X165774776Y-120985155D01*
X165749568Y-121012968D01*
X165721755Y-121038176D01*
X165691606Y-121060537D01*
X165659409Y-121079835D01*
X165625476Y-121095884D01*
X165590134Y-121108530D01*
X165553722Y-121117650D01*
X165516592Y-121123158D01*
X165479100Y-121125000D01*
X164514100Y-121125000D01*
X164476608Y-121123158D01*
X164439478Y-121117650D01*
X164403066Y-121108530D01*
X164367724Y-121095884D01*
X164333791Y-121079835D01*
X164301594Y-121060537D01*
X164271445Y-121038176D01*
X164243632Y-121012968D01*
X164218424Y-120985155D01*
X164196063Y-120955006D01*
X164176765Y-120922809D01*
X164160716Y-120888876D01*
X164148070Y-120853534D01*
X164138950Y-120817122D01*
X164133442Y-120779992D01*
X164131600Y-120742500D01*
X164131600Y-119977500D01*
X164133442Y-119940008D01*
X164138950Y-119902878D01*
X164148070Y-119866466D01*
X164160716Y-119831124D01*
X164176765Y-119797191D01*
X164196063Y-119764994D01*
X164218424Y-119734845D01*
X164243632Y-119707032D01*
X164271445Y-119681824D01*
X164301594Y-119659463D01*
X164333791Y-119640165D01*
X164367724Y-119624116D01*
X164403066Y-119611470D01*
X164439478Y-119602350D01*
X164476608Y-119596842D01*
X164514100Y-119595000D01*
X165479100Y-119595000D01*
X165516592Y-119596842D01*
G37*
G04 #@! TD.AperFunction*
G04 #@! TA.AperFunction,ViaPad*
G36*
X164891592Y-121546842D02*
G01*
X164928722Y-121552350D01*
X164965134Y-121561470D01*
X165000476Y-121574116D01*
X165034409Y-121590165D01*
X165066606Y-121609463D01*
X165096755Y-121631824D01*
X165124568Y-121657032D01*
X165149776Y-121684845D01*
X165172137Y-121714994D01*
X165191435Y-121747191D01*
X165207484Y-121781124D01*
X165220130Y-121816466D01*
X165229250Y-121852878D01*
X165234758Y-121890008D01*
X165236600Y-121927500D01*
X165236600Y-122692500D01*
X165234758Y-122729992D01*
X165229250Y-122767122D01*
X165220130Y-122803534D01*
X165207484Y-122838876D01*
X165191435Y-122872809D01*
X165172137Y-122905006D01*
X165149776Y-122935155D01*
X165124568Y-122962968D01*
X165096755Y-122988176D01*
X165066606Y-123010537D01*
X165034409Y-123029835D01*
X165000476Y-123045884D01*
X164965134Y-123058530D01*
X164928722Y-123067650D01*
X164891592Y-123073158D01*
X164854100Y-123075000D01*
X163889100Y-123075000D01*
X163851608Y-123073158D01*
X163814478Y-123067650D01*
X163778066Y-123058530D01*
X163742724Y-123045884D01*
X163708791Y-123029835D01*
X163676594Y-123010537D01*
X163646445Y-122988176D01*
X163618632Y-122962968D01*
X163593424Y-122935155D01*
X163571063Y-122905006D01*
X163551765Y-122872809D01*
X163535716Y-122838876D01*
X163523070Y-122803534D01*
X163513950Y-122767122D01*
X163508442Y-122729992D01*
X163506600Y-122692500D01*
X163506600Y-121927500D01*
X163508442Y-121890008D01*
X163513950Y-121852878D01*
X163523070Y-121816466D01*
X163535716Y-121781124D01*
X163551765Y-121747191D01*
X163571063Y-121714994D01*
X163593424Y-121684845D01*
X163618632Y-121657032D01*
X163646445Y-121631824D01*
X163676594Y-121609463D01*
X163708791Y-121590165D01*
X163742724Y-121574116D01*
X163778066Y-121561470D01*
X163814478Y-121552350D01*
X163851608Y-121546842D01*
X163889100Y-121545000D01*
X164854100Y-121545000D01*
X164891592Y-121546842D01*
G37*
G04 #@! TD.AperFunction*
D13*
X151130000Y-106045000D03*
X151130000Y-108585000D03*
X148590000Y-106045000D03*
X148590000Y-108585000D03*
X146050000Y-106045000D03*
X146050000Y-108585000D03*
X143510000Y-106045000D03*
X143510000Y-108585000D03*
X140970000Y-106045000D03*
D14*
X140970000Y-108585000D03*
G04 #@! TA.AperFunction,ViaPad*
D12*
G36*
X142554992Y-119546842D02*
G01*
X142592122Y-119552350D01*
X142628534Y-119561470D01*
X142663876Y-119574116D01*
X142697809Y-119590165D01*
X142730006Y-119609463D01*
X142760155Y-119631824D01*
X142787968Y-119657032D01*
X142813176Y-119684845D01*
X142835537Y-119714994D01*
X142854835Y-119747191D01*
X142870884Y-119781124D01*
X142883530Y-119816466D01*
X142892650Y-119852878D01*
X142898158Y-119890008D01*
X142900000Y-119927500D01*
X142900000Y-120692500D01*
X142898158Y-120729992D01*
X142892650Y-120767122D01*
X142883530Y-120803534D01*
X142870884Y-120838876D01*
X142854835Y-120872809D01*
X142835537Y-120905006D01*
X142813176Y-120935155D01*
X142787968Y-120962968D01*
X142760155Y-120988176D01*
X142730006Y-121010537D01*
X142697809Y-121029835D01*
X142663876Y-121045884D01*
X142628534Y-121058530D01*
X142592122Y-121067650D01*
X142554992Y-121073158D01*
X142517500Y-121075000D01*
X141552500Y-121075000D01*
X141515008Y-121073158D01*
X141477878Y-121067650D01*
X141441466Y-121058530D01*
X141406124Y-121045884D01*
X141372191Y-121029835D01*
X141339994Y-121010537D01*
X141309845Y-120988176D01*
X141282032Y-120962968D01*
X141256824Y-120935155D01*
X141234463Y-120905006D01*
X141215165Y-120872809D01*
X141199116Y-120838876D01*
X141186470Y-120803534D01*
X141177350Y-120767122D01*
X141171842Y-120729992D01*
X141170000Y-120692500D01*
X141170000Y-119927500D01*
X141171842Y-119890008D01*
X141177350Y-119852878D01*
X141186470Y-119816466D01*
X141199116Y-119781124D01*
X141215165Y-119747191D01*
X141234463Y-119714994D01*
X141256824Y-119684845D01*
X141282032Y-119657032D01*
X141309845Y-119631824D01*
X141339994Y-119609463D01*
X141372191Y-119590165D01*
X141406124Y-119574116D01*
X141441466Y-119561470D01*
X141477878Y-119552350D01*
X141515008Y-119546842D01*
X141552500Y-119545000D01*
X142517500Y-119545000D01*
X142554992Y-119546842D01*
G37*
G04 #@! TD.AperFunction*
G04 #@! TA.AperFunction,ViaPad*
G36*
X141929992Y-121496842D02*
G01*
X141967122Y-121502350D01*
X142003534Y-121511470D01*
X142038876Y-121524116D01*
X142072809Y-121540165D01*
X142105006Y-121559463D01*
X142135155Y-121581824D01*
X142162968Y-121607032D01*
X142188176Y-121634845D01*
X142210537Y-121664994D01*
X142229835Y-121697191D01*
X142245884Y-121731124D01*
X142258530Y-121766466D01*
X142267650Y-121802878D01*
X142273158Y-121840008D01*
X142275000Y-121877500D01*
X142275000Y-122642500D01*
X142273158Y-122679992D01*
X142267650Y-122717122D01*
X142258530Y-122753534D01*
X142245884Y-122788876D01*
X142229835Y-122822809D01*
X142210537Y-122855006D01*
X142188176Y-122885155D01*
X142162968Y-122912968D01*
X142135155Y-122938176D01*
X142105006Y-122960537D01*
X142072809Y-122979835D01*
X142038876Y-122995884D01*
X142003534Y-123008530D01*
X141967122Y-123017650D01*
X141929992Y-123023158D01*
X141892500Y-123025000D01*
X140927500Y-123025000D01*
X140890008Y-123023158D01*
X140852878Y-123017650D01*
X140816466Y-123008530D01*
X140781124Y-122995884D01*
X140747191Y-122979835D01*
X140714994Y-122960537D01*
X140684845Y-122938176D01*
X140657032Y-122912968D01*
X140631824Y-122885155D01*
X140609463Y-122855006D01*
X140590165Y-122822809D01*
X140574116Y-122788876D01*
X140561470Y-122753534D01*
X140552350Y-122717122D01*
X140546842Y-122679992D01*
X140545000Y-122642500D01*
X140545000Y-121877500D01*
X140546842Y-121840008D01*
X140552350Y-121802878D01*
X140561470Y-121766466D01*
X140574116Y-121731124D01*
X140590165Y-121697191D01*
X140609463Y-121664994D01*
X140631824Y-121634845D01*
X140657032Y-121607032D01*
X140684845Y-121581824D01*
X140714994Y-121559463D01*
X140747191Y-121540165D01*
X140781124Y-121524116D01*
X140816466Y-121511470D01*
X140852878Y-121502350D01*
X140890008Y-121496842D01*
X140927500Y-121495000D01*
X141892500Y-121495000D01*
X141929992Y-121496842D01*
G37*
G04 #@! TD.AperFunction*
G04 #@! TA.AperFunction,ViaPad*
G36*
X139154992Y-119546842D02*
G01*
X139192122Y-119552350D01*
X139228534Y-119561470D01*
X139263876Y-119574116D01*
X139297809Y-119590165D01*
X139330006Y-119609463D01*
X139360155Y-119631824D01*
X139387968Y-119657032D01*
X139413176Y-119684845D01*
X139435537Y-119714994D01*
X139454835Y-119747191D01*
X139470884Y-119781124D01*
X139483530Y-119816466D01*
X139492650Y-119852878D01*
X139498158Y-119890008D01*
X139500000Y-119927500D01*
X139500000Y-120692500D01*
X139498158Y-120729992D01*
X139492650Y-120767122D01*
X139483530Y-120803534D01*
X139470884Y-120838876D01*
X139454835Y-120872809D01*
X139435537Y-120905006D01*
X139413176Y-120935155D01*
X139387968Y-120962968D01*
X139360155Y-120988176D01*
X139330006Y-121010537D01*
X139297809Y-121029835D01*
X139263876Y-121045884D01*
X139228534Y-121058530D01*
X139192122Y-121067650D01*
X139154992Y-121073158D01*
X139117500Y-121075000D01*
X138152500Y-121075000D01*
X138115008Y-121073158D01*
X138077878Y-121067650D01*
X138041466Y-121058530D01*
X138006124Y-121045884D01*
X137972191Y-121029835D01*
X137939994Y-121010537D01*
X137909845Y-120988176D01*
X137882032Y-120962968D01*
X137856824Y-120935155D01*
X137834463Y-120905006D01*
X137815165Y-120872809D01*
X137799116Y-120838876D01*
X137786470Y-120803534D01*
X137777350Y-120767122D01*
X137771842Y-120729992D01*
X137770000Y-120692500D01*
X137770000Y-119927500D01*
X137771842Y-119890008D01*
X137777350Y-119852878D01*
X137786470Y-119816466D01*
X137799116Y-119781124D01*
X137815165Y-119747191D01*
X137834463Y-119714994D01*
X137856824Y-119684845D01*
X137882032Y-119657032D01*
X137909845Y-119631824D01*
X137939994Y-119609463D01*
X137972191Y-119590165D01*
X138006124Y-119574116D01*
X138041466Y-119561470D01*
X138077878Y-119552350D01*
X138115008Y-119546842D01*
X138152500Y-119545000D01*
X139117500Y-119545000D01*
X139154992Y-119546842D01*
G37*
G04 #@! TD.AperFunction*
G04 #@! TA.AperFunction,ViaPad*
G36*
X139779992Y-121496842D02*
G01*
X139817122Y-121502350D01*
X139853534Y-121511470D01*
X139888876Y-121524116D01*
X139922809Y-121540165D01*
X139955006Y-121559463D01*
X139985155Y-121581824D01*
X140012968Y-121607032D01*
X140038176Y-121634845D01*
X140060537Y-121664994D01*
X140079835Y-121697191D01*
X140095884Y-121731124D01*
X140108530Y-121766466D01*
X140117650Y-121802878D01*
X140123158Y-121840008D01*
X140125000Y-121877500D01*
X140125000Y-122642500D01*
X140123158Y-122679992D01*
X140117650Y-122717122D01*
X140108530Y-122753534D01*
X140095884Y-122788876D01*
X140079835Y-122822809D01*
X140060537Y-122855006D01*
X140038176Y-122885155D01*
X140012968Y-122912968D01*
X139985155Y-122938176D01*
X139955006Y-122960537D01*
X139922809Y-122979835D01*
X139888876Y-122995884D01*
X139853534Y-123008530D01*
X139817122Y-123017650D01*
X139779992Y-123023158D01*
X139742500Y-123025000D01*
X138777500Y-123025000D01*
X138740008Y-123023158D01*
X138702878Y-123017650D01*
X138666466Y-123008530D01*
X138631124Y-122995884D01*
X138597191Y-122979835D01*
X138564994Y-122960537D01*
X138534845Y-122938176D01*
X138507032Y-122912968D01*
X138481824Y-122885155D01*
X138459463Y-122855006D01*
X138440165Y-122822809D01*
X138424116Y-122788876D01*
X138411470Y-122753534D01*
X138402350Y-122717122D01*
X138396842Y-122679992D01*
X138395000Y-122642500D01*
X138395000Y-121877500D01*
X138396842Y-121840008D01*
X138402350Y-121802878D01*
X138411470Y-121766466D01*
X138424116Y-121731124D01*
X138440165Y-121697191D01*
X138459463Y-121664994D01*
X138481824Y-121634845D01*
X138507032Y-121607032D01*
X138534845Y-121581824D01*
X138564994Y-121559463D01*
X138597191Y-121540165D01*
X138631124Y-121524116D01*
X138666466Y-121511470D01*
X138702878Y-121502350D01*
X138740008Y-121496842D01*
X138777500Y-121495000D01*
X139742500Y-121495000D01*
X139779992Y-121496842D01*
G37*
G04 #@! TD.AperFunction*
G04 #@! TA.AperFunction,ViaPad*
G36*
X164941592Y-66206842D02*
G01*
X164978722Y-66212350D01*
X165015134Y-66221470D01*
X165050476Y-66234116D01*
X165084409Y-66250165D01*
X165116606Y-66269463D01*
X165146755Y-66291824D01*
X165174568Y-66317032D01*
X165199776Y-66344845D01*
X165222137Y-66374994D01*
X165241435Y-66407191D01*
X165257484Y-66441124D01*
X165270130Y-66476466D01*
X165279250Y-66512878D01*
X165284758Y-66550008D01*
X165286600Y-66587500D01*
X165286600Y-67352500D01*
X165284758Y-67389992D01*
X165279250Y-67427122D01*
X165270130Y-67463534D01*
X165257484Y-67498876D01*
X165241435Y-67532809D01*
X165222137Y-67565006D01*
X165199776Y-67595155D01*
X165174568Y-67622968D01*
X165146755Y-67648176D01*
X165116606Y-67670537D01*
X165084409Y-67689835D01*
X165050476Y-67705884D01*
X165015134Y-67718530D01*
X164978722Y-67727650D01*
X164941592Y-67733158D01*
X164904100Y-67735000D01*
X163939100Y-67735000D01*
X163901608Y-67733158D01*
X163864478Y-67727650D01*
X163828066Y-67718530D01*
X163792724Y-67705884D01*
X163758791Y-67689835D01*
X163726594Y-67670537D01*
X163696445Y-67648176D01*
X163668632Y-67622968D01*
X163643424Y-67595155D01*
X163621063Y-67565006D01*
X163601765Y-67532809D01*
X163585716Y-67498876D01*
X163573070Y-67463534D01*
X163563950Y-67427122D01*
X163558442Y-67389992D01*
X163556600Y-67352500D01*
X163556600Y-66587500D01*
X163558442Y-66550008D01*
X163563950Y-66512878D01*
X163573070Y-66476466D01*
X163585716Y-66441124D01*
X163601765Y-66407191D01*
X163621063Y-66374994D01*
X163643424Y-66344845D01*
X163668632Y-66317032D01*
X163696445Y-66291824D01*
X163726594Y-66269463D01*
X163758791Y-66250165D01*
X163792724Y-66234116D01*
X163828066Y-66221470D01*
X163864478Y-66212350D01*
X163901608Y-66206842D01*
X163939100Y-66205000D01*
X164904100Y-66205000D01*
X164941592Y-66206842D01*
G37*
G04 #@! TD.AperFunction*
G04 #@! TA.AperFunction,ViaPad*
G36*
X165566592Y-68156842D02*
G01*
X165603722Y-68162350D01*
X165640134Y-68171470D01*
X165675476Y-68184116D01*
X165709409Y-68200165D01*
X165741606Y-68219463D01*
X165771755Y-68241824D01*
X165799568Y-68267032D01*
X165824776Y-68294845D01*
X165847137Y-68324994D01*
X165866435Y-68357191D01*
X165882484Y-68391124D01*
X165895130Y-68426466D01*
X165904250Y-68462878D01*
X165909758Y-68500008D01*
X165911600Y-68537500D01*
X165911600Y-69302500D01*
X165909758Y-69339992D01*
X165904250Y-69377122D01*
X165895130Y-69413534D01*
X165882484Y-69448876D01*
X165866435Y-69482809D01*
X165847137Y-69515006D01*
X165824776Y-69545155D01*
X165799568Y-69572968D01*
X165771755Y-69598176D01*
X165741606Y-69620537D01*
X165709409Y-69639835D01*
X165675476Y-69655884D01*
X165640134Y-69668530D01*
X165603722Y-69677650D01*
X165566592Y-69683158D01*
X165529100Y-69685000D01*
X164564100Y-69685000D01*
X164526608Y-69683158D01*
X164489478Y-69677650D01*
X164453066Y-69668530D01*
X164417724Y-69655884D01*
X164383791Y-69639835D01*
X164351594Y-69620537D01*
X164321445Y-69598176D01*
X164293632Y-69572968D01*
X164268424Y-69545155D01*
X164246063Y-69515006D01*
X164226765Y-69482809D01*
X164210716Y-69448876D01*
X164198070Y-69413534D01*
X164188950Y-69377122D01*
X164183442Y-69339992D01*
X164181600Y-69302500D01*
X164181600Y-68537500D01*
X164183442Y-68500008D01*
X164188950Y-68462878D01*
X164198070Y-68426466D01*
X164210716Y-68391124D01*
X164226765Y-68357191D01*
X164246063Y-68324994D01*
X164268424Y-68294845D01*
X164293632Y-68267032D01*
X164321445Y-68241824D01*
X164351594Y-68219463D01*
X164383791Y-68200165D01*
X164417724Y-68184116D01*
X164453066Y-68171470D01*
X164489478Y-68162350D01*
X164526608Y-68156842D01*
X164564100Y-68155000D01*
X165529100Y-68155000D01*
X165566592Y-68156842D01*
G37*
G04 #@! TD.AperFunction*
G04 #@! TA.AperFunction,ViaPad*
G36*
X162791592Y-66206842D02*
G01*
X162828722Y-66212350D01*
X162865134Y-66221470D01*
X162900476Y-66234116D01*
X162934409Y-66250165D01*
X162966606Y-66269463D01*
X162996755Y-66291824D01*
X163024568Y-66317032D01*
X163049776Y-66344845D01*
X163072137Y-66374994D01*
X163091435Y-66407191D01*
X163107484Y-66441124D01*
X163120130Y-66476466D01*
X163129250Y-66512878D01*
X163134758Y-66550008D01*
X163136600Y-66587500D01*
X163136600Y-67352500D01*
X163134758Y-67389992D01*
X163129250Y-67427122D01*
X163120130Y-67463534D01*
X163107484Y-67498876D01*
X163091435Y-67532809D01*
X163072137Y-67565006D01*
X163049776Y-67595155D01*
X163024568Y-67622968D01*
X162996755Y-67648176D01*
X162966606Y-67670537D01*
X162934409Y-67689835D01*
X162900476Y-67705884D01*
X162865134Y-67718530D01*
X162828722Y-67727650D01*
X162791592Y-67733158D01*
X162754100Y-67735000D01*
X161789100Y-67735000D01*
X161751608Y-67733158D01*
X161714478Y-67727650D01*
X161678066Y-67718530D01*
X161642724Y-67705884D01*
X161608791Y-67689835D01*
X161576594Y-67670537D01*
X161546445Y-67648176D01*
X161518632Y-67622968D01*
X161493424Y-67595155D01*
X161471063Y-67565006D01*
X161451765Y-67532809D01*
X161435716Y-67498876D01*
X161423070Y-67463534D01*
X161413950Y-67427122D01*
X161408442Y-67389992D01*
X161406600Y-67352500D01*
X161406600Y-66587500D01*
X161408442Y-66550008D01*
X161413950Y-66512878D01*
X161423070Y-66476466D01*
X161435716Y-66441124D01*
X161451765Y-66407191D01*
X161471063Y-66374994D01*
X161493424Y-66344845D01*
X161518632Y-66317032D01*
X161546445Y-66291824D01*
X161576594Y-66269463D01*
X161608791Y-66250165D01*
X161642724Y-66234116D01*
X161678066Y-66221470D01*
X161714478Y-66212350D01*
X161751608Y-66206842D01*
X161789100Y-66205000D01*
X162754100Y-66205000D01*
X162791592Y-66206842D01*
G37*
G04 #@! TD.AperFunction*
G04 #@! TA.AperFunction,ViaPad*
G36*
X162166592Y-68156842D02*
G01*
X162203722Y-68162350D01*
X162240134Y-68171470D01*
X162275476Y-68184116D01*
X162309409Y-68200165D01*
X162341606Y-68219463D01*
X162371755Y-68241824D01*
X162399568Y-68267032D01*
X162424776Y-68294845D01*
X162447137Y-68324994D01*
X162466435Y-68357191D01*
X162482484Y-68391124D01*
X162495130Y-68426466D01*
X162504250Y-68462878D01*
X162509758Y-68500008D01*
X162511600Y-68537500D01*
X162511600Y-69302500D01*
X162509758Y-69339992D01*
X162504250Y-69377122D01*
X162495130Y-69413534D01*
X162482484Y-69448876D01*
X162466435Y-69482809D01*
X162447137Y-69515006D01*
X162424776Y-69545155D01*
X162399568Y-69572968D01*
X162371755Y-69598176D01*
X162341606Y-69620537D01*
X162309409Y-69639835D01*
X162275476Y-69655884D01*
X162240134Y-69668530D01*
X162203722Y-69677650D01*
X162166592Y-69683158D01*
X162129100Y-69685000D01*
X161164100Y-69685000D01*
X161126608Y-69683158D01*
X161089478Y-69677650D01*
X161053066Y-69668530D01*
X161017724Y-69655884D01*
X160983791Y-69639835D01*
X160951594Y-69620537D01*
X160921445Y-69598176D01*
X160893632Y-69572968D01*
X160868424Y-69545155D01*
X160846063Y-69515006D01*
X160826765Y-69482809D01*
X160810716Y-69448876D01*
X160798070Y-69413534D01*
X160788950Y-69377122D01*
X160783442Y-69339992D01*
X160781600Y-69302500D01*
X160781600Y-68537500D01*
X160783442Y-68500008D01*
X160788950Y-68462878D01*
X160798070Y-68426466D01*
X160810716Y-68391124D01*
X160826765Y-68357191D01*
X160846063Y-68324994D01*
X160868424Y-68294845D01*
X160893632Y-68267032D01*
X160921445Y-68241824D01*
X160951594Y-68219463D01*
X160983791Y-68200165D01*
X161017724Y-68184116D01*
X161053066Y-68171470D01*
X161089478Y-68162350D01*
X161126608Y-68156842D01*
X161164100Y-68155000D01*
X162129100Y-68155000D01*
X162166592Y-68156842D01*
G37*
G04 #@! TD.AperFunction*
G04 #@! TA.AperFunction,ViaPad*
G36*
X139154992Y-68156842D02*
G01*
X139192122Y-68162350D01*
X139228534Y-68171470D01*
X139263876Y-68184116D01*
X139297809Y-68200165D01*
X139330006Y-68219463D01*
X139360155Y-68241824D01*
X139387968Y-68267032D01*
X139413176Y-68294845D01*
X139435537Y-68324994D01*
X139454835Y-68357191D01*
X139470884Y-68391124D01*
X139483530Y-68426466D01*
X139492650Y-68462878D01*
X139498158Y-68500008D01*
X139500000Y-68537500D01*
X139500000Y-69302500D01*
X139498158Y-69339992D01*
X139492650Y-69377122D01*
X139483530Y-69413534D01*
X139470884Y-69448876D01*
X139454835Y-69482809D01*
X139435537Y-69515006D01*
X139413176Y-69545155D01*
X139387968Y-69572968D01*
X139360155Y-69598176D01*
X139330006Y-69620537D01*
X139297809Y-69639835D01*
X139263876Y-69655884D01*
X139228534Y-69668530D01*
X139192122Y-69677650D01*
X139154992Y-69683158D01*
X139117500Y-69685000D01*
X138152500Y-69685000D01*
X138115008Y-69683158D01*
X138077878Y-69677650D01*
X138041466Y-69668530D01*
X138006124Y-69655884D01*
X137972191Y-69639835D01*
X137939994Y-69620537D01*
X137909845Y-69598176D01*
X137882032Y-69572968D01*
X137856824Y-69545155D01*
X137834463Y-69515006D01*
X137815165Y-69482809D01*
X137799116Y-69448876D01*
X137786470Y-69413534D01*
X137777350Y-69377122D01*
X137771842Y-69339992D01*
X137770000Y-69302500D01*
X137770000Y-68537500D01*
X137771842Y-68500008D01*
X137777350Y-68462878D01*
X137786470Y-68426466D01*
X137799116Y-68391124D01*
X137815165Y-68357191D01*
X137834463Y-68324994D01*
X137856824Y-68294845D01*
X137882032Y-68267032D01*
X137909845Y-68241824D01*
X137939994Y-68219463D01*
X137972191Y-68200165D01*
X138006124Y-68184116D01*
X138041466Y-68171470D01*
X138077878Y-68162350D01*
X138115008Y-68156842D01*
X138152500Y-68155000D01*
X139117500Y-68155000D01*
X139154992Y-68156842D01*
G37*
G04 #@! TD.AperFunction*
G04 #@! TA.AperFunction,ViaPad*
G36*
X139779992Y-66206842D02*
G01*
X139817122Y-66212350D01*
X139853534Y-66221470D01*
X139888876Y-66234116D01*
X139922809Y-66250165D01*
X139955006Y-66269463D01*
X139985155Y-66291824D01*
X140012968Y-66317032D01*
X140038176Y-66344845D01*
X140060537Y-66374994D01*
X140079835Y-66407191D01*
X140095884Y-66441124D01*
X140108530Y-66476466D01*
X140117650Y-66512878D01*
X140123158Y-66550008D01*
X140125000Y-66587500D01*
X140125000Y-67352500D01*
X140123158Y-67389992D01*
X140117650Y-67427122D01*
X140108530Y-67463534D01*
X140095884Y-67498876D01*
X140079835Y-67532809D01*
X140060537Y-67565006D01*
X140038176Y-67595155D01*
X140012968Y-67622968D01*
X139985155Y-67648176D01*
X139955006Y-67670537D01*
X139922809Y-67689835D01*
X139888876Y-67705884D01*
X139853534Y-67718530D01*
X139817122Y-67727650D01*
X139779992Y-67733158D01*
X139742500Y-67735000D01*
X138777500Y-67735000D01*
X138740008Y-67733158D01*
X138702878Y-67727650D01*
X138666466Y-67718530D01*
X138631124Y-67705884D01*
X138597191Y-67689835D01*
X138564994Y-67670537D01*
X138534845Y-67648176D01*
X138507032Y-67622968D01*
X138481824Y-67595155D01*
X138459463Y-67565006D01*
X138440165Y-67532809D01*
X138424116Y-67498876D01*
X138411470Y-67463534D01*
X138402350Y-67427122D01*
X138396842Y-67389992D01*
X138395000Y-67352500D01*
X138395000Y-66587500D01*
X138396842Y-66550008D01*
X138402350Y-66512878D01*
X138411470Y-66476466D01*
X138424116Y-66441124D01*
X138440165Y-66407191D01*
X138459463Y-66374994D01*
X138481824Y-66344845D01*
X138507032Y-66317032D01*
X138534845Y-66291824D01*
X138564994Y-66269463D01*
X138597191Y-66250165D01*
X138631124Y-66234116D01*
X138666466Y-66221470D01*
X138702878Y-66212350D01*
X138740008Y-66206842D01*
X138777500Y-66205000D01*
X139742500Y-66205000D01*
X139779992Y-66206842D01*
G37*
G04 #@! TD.AperFunction*
G04 #@! TA.AperFunction,ViaPad*
G36*
X142554992Y-68156842D02*
G01*
X142592122Y-68162350D01*
X142628534Y-68171470D01*
X142663876Y-68184116D01*
X142697809Y-68200165D01*
X142730006Y-68219463D01*
X142760155Y-68241824D01*
X142787968Y-68267032D01*
X142813176Y-68294845D01*
X142835537Y-68324994D01*
X142854835Y-68357191D01*
X142870884Y-68391124D01*
X142883530Y-68426466D01*
X142892650Y-68462878D01*
X142898158Y-68500008D01*
X142900000Y-68537500D01*
X142900000Y-69302500D01*
X142898158Y-69339992D01*
X142892650Y-69377122D01*
X142883530Y-69413534D01*
X142870884Y-69448876D01*
X142854835Y-69482809D01*
X142835537Y-69515006D01*
X142813176Y-69545155D01*
X142787968Y-69572968D01*
X142760155Y-69598176D01*
X142730006Y-69620537D01*
X142697809Y-69639835D01*
X142663876Y-69655884D01*
X142628534Y-69668530D01*
X142592122Y-69677650D01*
X142554992Y-69683158D01*
X142517500Y-69685000D01*
X141552500Y-69685000D01*
X141515008Y-69683158D01*
X141477878Y-69677650D01*
X141441466Y-69668530D01*
X141406124Y-69655884D01*
X141372191Y-69639835D01*
X141339994Y-69620537D01*
X141309845Y-69598176D01*
X141282032Y-69572968D01*
X141256824Y-69545155D01*
X141234463Y-69515006D01*
X141215165Y-69482809D01*
X141199116Y-69448876D01*
X141186470Y-69413534D01*
X141177350Y-69377122D01*
X141171842Y-69339992D01*
X141170000Y-69302500D01*
X141170000Y-68537500D01*
X141171842Y-68500008D01*
X141177350Y-68462878D01*
X141186470Y-68426466D01*
X141199116Y-68391124D01*
X141215165Y-68357191D01*
X141234463Y-68324994D01*
X141256824Y-68294845D01*
X141282032Y-68267032D01*
X141309845Y-68241824D01*
X141339994Y-68219463D01*
X141372191Y-68200165D01*
X141406124Y-68184116D01*
X141441466Y-68171470D01*
X141477878Y-68162350D01*
X141515008Y-68156842D01*
X141552500Y-68155000D01*
X142517500Y-68155000D01*
X142554992Y-68156842D01*
G37*
G04 #@! TD.AperFunction*
G04 #@! TA.AperFunction,ViaPad*
G36*
X141929992Y-66206842D02*
G01*
X141967122Y-66212350D01*
X142003534Y-66221470D01*
X142038876Y-66234116D01*
X142072809Y-66250165D01*
X142105006Y-66269463D01*
X142135155Y-66291824D01*
X142162968Y-66317032D01*
X142188176Y-66344845D01*
X142210537Y-66374994D01*
X142229835Y-66407191D01*
X142245884Y-66441124D01*
X142258530Y-66476466D01*
X142267650Y-66512878D01*
X142273158Y-66550008D01*
X142275000Y-66587500D01*
X142275000Y-67352500D01*
X142273158Y-67389992D01*
X142267650Y-67427122D01*
X142258530Y-67463534D01*
X142245884Y-67498876D01*
X142229835Y-67532809D01*
X142210537Y-67565006D01*
X142188176Y-67595155D01*
X142162968Y-67622968D01*
X142135155Y-67648176D01*
X142105006Y-67670537D01*
X142072809Y-67689835D01*
X142038876Y-67705884D01*
X142003534Y-67718530D01*
X141967122Y-67727650D01*
X141929992Y-67733158D01*
X141892500Y-67735000D01*
X140927500Y-67735000D01*
X140890008Y-67733158D01*
X140852878Y-67727650D01*
X140816466Y-67718530D01*
X140781124Y-67705884D01*
X140747191Y-67689835D01*
X140714994Y-67670537D01*
X140684845Y-67648176D01*
X140657032Y-67622968D01*
X140631824Y-67595155D01*
X140609463Y-67565006D01*
X140590165Y-67532809D01*
X140574116Y-67498876D01*
X140561470Y-67463534D01*
X140552350Y-67427122D01*
X140546842Y-67389992D01*
X140545000Y-67352500D01*
X140545000Y-66587500D01*
X140546842Y-66550008D01*
X140552350Y-66512878D01*
X140561470Y-66476466D01*
X140574116Y-66441124D01*
X140590165Y-66407191D01*
X140609463Y-66374994D01*
X140631824Y-66344845D01*
X140657032Y-66317032D01*
X140684845Y-66291824D01*
X140714994Y-66269463D01*
X140747191Y-66250165D01*
X140781124Y-66234116D01*
X140816466Y-66221470D01*
X140852878Y-66212350D01*
X140890008Y-66206842D01*
X140927500Y-66205000D01*
X141892500Y-66205000D01*
X141929992Y-66206842D01*
G37*
G04 #@! TD.AperFunction*
D15*
X153035000Y-124714000D03*
D16*
X150495000Y-124714000D03*
D15*
X153035000Y-120015000D03*
D16*
X150495000Y-120015000D03*
D15*
X151130000Y-70485000D03*
D16*
X153670000Y-70485000D03*
D15*
X151130000Y-65786000D03*
D16*
X153670000Y-65786000D03*
D17*
X146050000Y-116205000D03*
D18*
X146050000Y-118205000D03*
D19*
X138912600Y-89408000D03*
X138912600Y-94288000D03*
D20*
X161061400Y-104698800D03*
X161061400Y-103581200D03*
X162814000Y-103581200D03*
X162814000Y-104698800D03*
D21*
X156921200Y-117475000D03*
D20*
X155651200Y-96520000D03*
X147675600Y-95173800D03*
X147675600Y-91211400D03*
X151536400Y-99517200D03*
X147674362Y-93407967D03*
X148082000Y-86258400D03*
X152577800Y-86258400D03*
X158470600Y-103454200D03*
X151231440Y-91069390D03*
X158496000Y-82626200D03*
X164846000Y-81508600D03*
X145135600Y-82626200D03*
X138811000Y-82626200D03*
X147447000Y-102616000D03*
X157200600Y-75158600D03*
X163550600Y-75158600D03*
X166141400Y-75158600D03*
X159740600Y-75158600D03*
X137566400Y-75158600D03*
X143865600Y-75158600D03*
X146405600Y-75158600D03*
X140081000Y-75158600D03*
X151003000Y-76911200D03*
X155820859Y-92455985D03*
X153441400Y-76911200D03*
X155676600Y-93345000D03*
X155956000Y-115862000D03*
X159435800Y-92874990D03*
X144322800Y-100380800D03*
X147175589Y-96027368D03*
X157226000Y-83185000D03*
X154203400Y-87630000D03*
X148348700Y-87630000D03*
X137541000Y-83185000D03*
X155028900Y-87630000D03*
X159893000Y-83185000D03*
X140081000Y-83185000D03*
X147548600Y-87618478D03*
X152552400Y-87618478D03*
X163576000Y-83185000D03*
X150025100Y-87630000D03*
X143891000Y-83185000D03*
X153352500Y-87630000D03*
X166116000Y-83185000D03*
X146431000Y-83185000D03*
X149199600Y-87630000D03*
X164820600Y-75158600D03*
X145135600Y-75158600D03*
X158470600Y-75158600D03*
X138785600Y-75158600D03*
X162915600Y-107899200D03*
X154686000Y-84620000D03*
X157226000Y-84620000D03*
X159893000Y-84620000D03*
X163576000Y-84620000D03*
X166116000Y-84620000D03*
X154152600Y-91280072D03*
X156616400Y-109270800D03*
X148894800Y-84518400D03*
X145262600Y-90043000D03*
X146558000Y-84518400D03*
X147034000Y-90043000D03*
X143891000Y-84518400D03*
X140081000Y-84518400D03*
X137414000Y-84518400D03*
X154152600Y-93700600D03*
D21*
X157480000Y-65100200D03*
D20*
X150088600Y-95631000D03*
X154152600Y-96494600D03*
X151536400Y-97891600D03*
X154152600Y-94767400D03*
X154152600Y-92684600D03*
X161772600Y-92075000D03*
X151231600Y-92684600D03*
X149072600Y-91262200D03*
X149148800Y-94767400D03*
X149504400Y-97866200D03*
X159385000Y-95605600D03*
X151028400Y-94767400D03*
X149123400Y-92608400D03*
X154330400Y-97815400D03*
X149148800Y-96494600D03*
X151028400Y-96494600D03*
X150088600Y-93700600D03*
D21*
X159385000Y-65100200D03*
X155575000Y-65100200D03*
D20*
X151765000Y-95605600D03*
X151765000Y-93700600D03*
X156591000Y-107823000D03*
X158496000Y-104800400D03*
X162941000Y-109347000D03*
X153035000Y-114198400D03*
X158508700Y-114249200D03*
X165252400Y-109880400D03*
X144322800Y-97993200D03*
X144310100Y-95707200D03*
X144310100Y-93891100D03*
X159435800Y-91846400D03*
X167462200Y-88265000D03*
X159383500Y-97028000D03*
X153670000Y-108127800D03*
X155575000Y-99466400D03*
X149707600Y-99466400D03*
X163347400Y-93980000D03*
X166598600Y-109880400D03*
X147523200Y-99441000D03*
X148463000Y-99466400D03*
X149389999Y-102620584D03*
X159409200Y-98500000D03*
X153670000Y-106578400D03*
X160248600Y-93268800D03*
X159893001Y-89509601D03*
D21*
X158496000Y-117475000D03*
X165905500Y-115740500D03*
D22*
X148082000Y-86258400D02*
X152577800Y-86258400D01*
D23*
X151254690Y-91069390D02*
X151231440Y-91069390D01*
X152857200Y-99898200D02*
X152857200Y-92671900D01*
X158470600Y-103454200D02*
X156413200Y-103454200D01*
X152857200Y-92671900D02*
X151254690Y-91069390D01*
X156413200Y-103454200D02*
X152857200Y-99898200D01*
D10*
X158271000Y-74139000D02*
X157226000Y-75184000D01*
X160079508Y-70675695D02*
X158271000Y-72484203D01*
X160185572Y-70569630D02*
X160079508Y-70675695D01*
X160227456Y-70517106D02*
X160185572Y-70569630D01*
X160256604Y-70456580D02*
X160227456Y-70517106D01*
X160271552Y-70391086D02*
X160256604Y-70456580D01*
X160271552Y-70323907D02*
X160271552Y-70391086D01*
X160256604Y-70258413D02*
X160271552Y-70323907D01*
X160185571Y-70145365D02*
X160227456Y-70197887D01*
X159199534Y-69159328D02*
X160185571Y-70145365D01*
X159157648Y-69106805D02*
X159199534Y-69159328D01*
X160662359Y-69762987D02*
X160609836Y-69721102D01*
X159623798Y-68735064D02*
X159571276Y-68693179D01*
X160722885Y-69792134D02*
X160662359Y-69762987D01*
X160855558Y-69807083D02*
X160788379Y-69807083D01*
X161646600Y-69108603D02*
X161034101Y-69721102D01*
X159199534Y-68735064D02*
X159157648Y-68787586D01*
X160788379Y-69807083D02*
X160722885Y-69792134D01*
X160227456Y-70197887D02*
X160256604Y-70258413D01*
X159378077Y-68649083D02*
X159312583Y-68664031D01*
X161646600Y-68920000D02*
X161646600Y-69108603D01*
X158271000Y-72484203D02*
X158271000Y-74139000D01*
X161034101Y-69721102D02*
X160981578Y-69762987D01*
X160981578Y-69762987D02*
X160921052Y-69792134D01*
X160921052Y-69792134D02*
X160855558Y-69807083D01*
X159571276Y-68693179D02*
X159510750Y-68664031D01*
X159128501Y-68848112D02*
X159113552Y-68913606D01*
X159510750Y-68664031D02*
X159445256Y-68649083D01*
X159113552Y-68980785D02*
X159128501Y-69046279D01*
X159445256Y-68649083D02*
X159378077Y-68649083D01*
X159312583Y-68664031D02*
X159252057Y-68693179D01*
X159252057Y-68693179D02*
X159199534Y-68735064D01*
X160609836Y-69721102D02*
X159623798Y-68735064D01*
X159157648Y-68787586D02*
X159128501Y-68848112D01*
X159113552Y-68913606D02*
X159113552Y-68980785D01*
X159128501Y-69046279D02*
X159157648Y-69106805D01*
X162846601Y-68544999D02*
X164421600Y-66970000D01*
X162846601Y-69588799D02*
X162846601Y-68544999D01*
X158721000Y-74139000D02*
X158721000Y-72670600D01*
X159766000Y-75184000D02*
X158721000Y-74139000D01*
X158721000Y-72670600D02*
X161271599Y-70120001D01*
X161271599Y-70120001D02*
X162315399Y-70120001D01*
X162315399Y-70120001D02*
X162846601Y-69588799D01*
X138635000Y-68920000D02*
X138822500Y-69107500D01*
X140834999Y-68544999D02*
X139260000Y-66970000D01*
X140834999Y-69587999D02*
X140834999Y-68544999D01*
X144936000Y-74139000D02*
X144936000Y-72646000D01*
X143891000Y-75184000D02*
X144936000Y-74139000D01*
X142410001Y-70120001D02*
X141367001Y-70120001D01*
X144936000Y-72646000D02*
X142410001Y-70120001D01*
X141367001Y-70120001D02*
X140834999Y-69587999D01*
X145386000Y-74139000D02*
X146431000Y-75184000D01*
X145386000Y-72459603D02*
X145386000Y-74139000D01*
X143458327Y-70531930D02*
X145386000Y-72459603D01*
X143416440Y-70479406D02*
X143458327Y-70531930D01*
X143387292Y-70418880D02*
X143416440Y-70479406D01*
X143372345Y-70353386D02*
X143387292Y-70418880D01*
X143372345Y-70286208D02*
X143372345Y-70353386D01*
X143387292Y-70220712D02*
X143372345Y-70286208D01*
X143458326Y-70107665D02*
X143416440Y-70160186D01*
X144444432Y-69121558D02*
X143458326Y-70107665D01*
X144486317Y-69069035D02*
X144444432Y-69121558D01*
X144020168Y-68697294D02*
X144072691Y-68655410D01*
X143034063Y-69683402D02*
X144020168Y-68697294D01*
X142921013Y-69754433D02*
X142981540Y-69725287D01*
X144486318Y-68749817D02*
X144515464Y-68810342D01*
X142855520Y-69769383D02*
X142921013Y-69754433D01*
X142788340Y-69769382D02*
X142855520Y-69769383D01*
X142035000Y-69108603D02*
X142609799Y-69683402D01*
X142981540Y-69725287D02*
X143034063Y-69683402D01*
X142035000Y-68920000D02*
X142035000Y-69108603D01*
X142609799Y-69683402D02*
X142662320Y-69725286D01*
X144331385Y-68626262D02*
X144391911Y-68655410D01*
X142662320Y-69725286D02*
X142722847Y-69754434D01*
X142722847Y-69754434D02*
X142788340Y-69769382D01*
X144072691Y-68655410D02*
X144133217Y-68626262D01*
X144133217Y-68626262D02*
X144198711Y-68611313D01*
X144515464Y-68810342D02*
X144530414Y-68875837D01*
X144265889Y-68611313D02*
X144331385Y-68626262D01*
X143416440Y-70160186D02*
X143387292Y-70220712D01*
X144391911Y-68655410D02*
X144444432Y-68697294D01*
X144530413Y-68943015D02*
X144515465Y-69008510D01*
X144444432Y-68697294D02*
X144486318Y-68749817D01*
X144198711Y-68611313D02*
X144265889Y-68611313D01*
X144530414Y-68875837D02*
X144530413Y-68943015D01*
X144515465Y-69008510D02*
X144486317Y-69069035D01*
X137795000Y-83185000D02*
X137795000Y-83185000D01*
X140335000Y-83185000D02*
X140335000Y-83185000D01*
X144145000Y-83185000D02*
X144145000Y-83185000D01*
X146685000Y-83185000D02*
X146685000Y-83185000D01*
D24*
X163576000Y-84620000D02*
X159893000Y-84620000D01*
X159893000Y-84620000D02*
X157226000Y-84620000D01*
X157226000Y-84620000D02*
X154686000Y-84620000D01*
X166116000Y-84620000D02*
X165011200Y-84620000D01*
X165011200Y-84620000D02*
X163576000Y-84620000D01*
X157226000Y-84620000D02*
X157226000Y-88493600D01*
X154439528Y-91280072D02*
X154152600Y-91280072D01*
X157226000Y-88493600D02*
X154439528Y-91280072D01*
D11*
X145389600Y-87731600D02*
X145389600Y-87731600D01*
D24*
X137414000Y-84620000D02*
X140081000Y-84620000D01*
X140081000Y-84620000D02*
X143891000Y-84620000D01*
X146558000Y-84620000D02*
X148894800Y-84620000D01*
X143891000Y-84620000D02*
X145046600Y-84620000D01*
X145046600Y-84620000D02*
X146558000Y-84620000D01*
X136321800Y-85699600D02*
X137401400Y-84620000D01*
X137401400Y-84620000D02*
X137414000Y-84620000D01*
X156616400Y-109296200D02*
X154711400Y-111201200D01*
X156616400Y-109270800D02*
X156616400Y-109296200D01*
X138150600Y-111201200D02*
X136321800Y-109372400D01*
X136321800Y-109372400D02*
X136321800Y-85699600D01*
X154711400Y-111201200D02*
X138150600Y-111201200D01*
X145262600Y-90043000D02*
X147034000Y-90043000D01*
X145046600Y-84620000D02*
X145262600Y-84836000D01*
X145262600Y-84836000D02*
X145262600Y-90043000D01*
X165150800Y-84759600D02*
X165150800Y-105664000D01*
X165011200Y-84620000D02*
X165150800Y-84759600D01*
X165150800Y-105664000D02*
X162915600Y-107899200D01*
D25*
G36*
X168002601Y-110998000D02*
G01*
X160020000Y-110998000D01*
X159995224Y-111000440D01*
X159971399Y-111007667D01*
X159949443Y-111019403D01*
X159930197Y-111035197D01*
X159914403Y-111054443D01*
X159902667Y-111076399D01*
X159895440Y-111100224D01*
X159893000Y-111125000D01*
X159893000Y-115443000D01*
X156794481Y-115443000D01*
X156784586Y-115419111D01*
X156682262Y-115265972D01*
X156552028Y-115135738D01*
X156398889Y-115033414D01*
X156228729Y-114962932D01*
X156048089Y-114927000D01*
X155863911Y-114927000D01*
X155683271Y-114962932D01*
X155513111Y-115033414D01*
X155359972Y-115135738D01*
X155229738Y-115265972D01*
X155127414Y-115419111D01*
X155117519Y-115443000D01*
X151892000Y-115443000D01*
X151892000Y-113157000D01*
X158115000Y-113157000D01*
X158139776Y-113154560D01*
X158163601Y-113147333D01*
X158185557Y-113135597D01*
X158204803Y-113119803D01*
X158220597Y-113100557D01*
X158232333Y-113078601D01*
X158239560Y-113054776D01*
X158242000Y-113030000D01*
X158242000Y-108585000D01*
X158239560Y-108560224D01*
X158232333Y-108536399D01*
X158220597Y-108514443D01*
X158204803Y-108495197D01*
X158185557Y-108479403D01*
X158163601Y-108467667D01*
X158139776Y-108460440D01*
X158115000Y-108458000D01*
X157676366Y-108458000D01*
X157564955Y-108322245D01*
X157361674Y-108155418D01*
X157129753Y-108031453D01*
X156878105Y-107955117D01*
X156616400Y-107929341D01*
X156354694Y-107955117D01*
X156103046Y-108031453D01*
X155871125Y-108155418D01*
X155667845Y-108322245D01*
X155556435Y-108458000D01*
X152628600Y-108458000D01*
X152628600Y-108437401D01*
X152571010Y-108147875D01*
X152527000Y-108041626D01*
X152527000Y-106588374D01*
X152569276Y-106486311D01*
X152735000Y-106486311D01*
X152735000Y-106670489D01*
X152770932Y-106851129D01*
X152841414Y-107021289D01*
X152943738Y-107174428D01*
X153073972Y-107304662D01*
X153227111Y-107406986D01*
X153397271Y-107477468D01*
X153577911Y-107513400D01*
X153762089Y-107513400D01*
X153942729Y-107477468D01*
X154112889Y-107406986D01*
X154266028Y-107304662D01*
X154396262Y-107174428D01*
X154498586Y-107021289D01*
X154569068Y-106851129D01*
X154605000Y-106670489D01*
X154605000Y-106486311D01*
X154569068Y-106305671D01*
X154498586Y-106135511D01*
X154396262Y-105982372D01*
X154266028Y-105852138D01*
X154112889Y-105749814D01*
X153942729Y-105679332D01*
X153762089Y-105643400D01*
X153577911Y-105643400D01*
X153397271Y-105679332D01*
X153227111Y-105749814D01*
X153073972Y-105852138D01*
X152943738Y-105982372D01*
X152841414Y-106135511D01*
X152770932Y-106305671D01*
X152735000Y-106486311D01*
X152569276Y-106486311D01*
X152571010Y-106482125D01*
X152628600Y-106192599D01*
X152628600Y-105897401D01*
X152571010Y-105607875D01*
X152527000Y-105501626D01*
X152527000Y-104775000D01*
X152524560Y-104750224D01*
X152517333Y-104726399D01*
X152505597Y-104704443D01*
X152489803Y-104685197D01*
X152470557Y-104669403D01*
X152448601Y-104657667D01*
X152424776Y-104650440D01*
X152400000Y-104648000D01*
X151673374Y-104648000D01*
X151567125Y-104603990D01*
X151277599Y-104546400D01*
X150982401Y-104546400D01*
X150692875Y-104603990D01*
X150586626Y-104648000D01*
X149133374Y-104648000D01*
X149027125Y-104603990D01*
X148737599Y-104546400D01*
X148442401Y-104546400D01*
X148152875Y-104603990D01*
X148046626Y-104648000D01*
X146593374Y-104648000D01*
X146487125Y-104603990D01*
X146197599Y-104546400D01*
X145902401Y-104546400D01*
X145612875Y-104603990D01*
X145506626Y-104648000D01*
X144053374Y-104648000D01*
X143947125Y-104603990D01*
X143657599Y-104546400D01*
X143637000Y-104546400D01*
X143637000Y-102523911D01*
X146512000Y-102523911D01*
X146512000Y-102708089D01*
X146547932Y-102888729D01*
X146618414Y-103058889D01*
X146720738Y-103212028D01*
X146850972Y-103342262D01*
X147004111Y-103444586D01*
X147174271Y-103515068D01*
X147354911Y-103551000D01*
X147539089Y-103551000D01*
X147719729Y-103515068D01*
X147889889Y-103444586D01*
X148043028Y-103342262D01*
X148173262Y-103212028D01*
X148275586Y-103058889D01*
X148346068Y-102888729D01*
X148382000Y-102708089D01*
X148382000Y-102528495D01*
X148454999Y-102528495D01*
X148454999Y-102712673D01*
X148490931Y-102893313D01*
X148561413Y-103063473D01*
X148663737Y-103216612D01*
X148793971Y-103346846D01*
X148947110Y-103449170D01*
X149117270Y-103519652D01*
X149297910Y-103555584D01*
X149482088Y-103555584D01*
X149662728Y-103519652D01*
X149832888Y-103449170D01*
X149986027Y-103346846D01*
X150116261Y-103216612D01*
X150218585Y-103063473D01*
X150289067Y-102893313D01*
X150324999Y-102712673D01*
X150324999Y-102528495D01*
X150289067Y-102347855D01*
X150218585Y-102177695D01*
X150116261Y-102024556D01*
X149986027Y-101894322D01*
X149832888Y-101791998D01*
X149662728Y-101721516D01*
X149482088Y-101685584D01*
X149297910Y-101685584D01*
X149117270Y-101721516D01*
X148947110Y-101791998D01*
X148793971Y-101894322D01*
X148663737Y-102024556D01*
X148561413Y-102177695D01*
X148490931Y-102347855D01*
X148454999Y-102528495D01*
X148382000Y-102528495D01*
X148382000Y-102523911D01*
X148346068Y-102343271D01*
X148275586Y-102173111D01*
X148173262Y-102019972D01*
X148043028Y-101889738D01*
X147889889Y-101787414D01*
X147719729Y-101716932D01*
X147539089Y-101681000D01*
X147354911Y-101681000D01*
X147174271Y-101716932D01*
X147004111Y-101787414D01*
X146850972Y-101889738D01*
X146720738Y-102019972D01*
X146618414Y-102173111D01*
X146547932Y-102343271D01*
X146512000Y-102523911D01*
X143637000Y-102523911D01*
X143637000Y-101017290D01*
X143726772Y-101107062D01*
X143879911Y-101209386D01*
X144050071Y-101279868D01*
X144230711Y-101315800D01*
X144414889Y-101315800D01*
X144595529Y-101279868D01*
X144765689Y-101209386D01*
X144918828Y-101107062D01*
X145049062Y-100976828D01*
X145151386Y-100823689D01*
X145221868Y-100653529D01*
X145257800Y-100472889D01*
X145257800Y-100288711D01*
X145221868Y-100108071D01*
X145151386Y-99937911D01*
X145049062Y-99784772D01*
X144918828Y-99654538D01*
X144765689Y-99552214D01*
X144595529Y-99481732D01*
X144414889Y-99445800D01*
X144230711Y-99445800D01*
X144050071Y-99481732D01*
X143879911Y-99552214D01*
X143726772Y-99654538D01*
X143637000Y-99744310D01*
X143637000Y-99348911D01*
X146588200Y-99348911D01*
X146588200Y-99533089D01*
X146624132Y-99713729D01*
X146694614Y-99883889D01*
X146796938Y-100037028D01*
X146927172Y-100167262D01*
X147080311Y-100269586D01*
X147250471Y-100340068D01*
X147431111Y-100376000D01*
X147615289Y-100376000D01*
X147795929Y-100340068D01*
X147966089Y-100269586D01*
X147974093Y-100264238D01*
X148020111Y-100294986D01*
X148190271Y-100365468D01*
X148370911Y-100401400D01*
X148555089Y-100401400D01*
X148735729Y-100365468D01*
X148905889Y-100294986D01*
X149059028Y-100192662D01*
X149189262Y-100062428D01*
X149291586Y-99909289D01*
X149362068Y-99739129D01*
X149398000Y-99558489D01*
X149398000Y-99374311D01*
X149362068Y-99193671D01*
X149291586Y-99023511D01*
X149189262Y-98870372D01*
X149059028Y-98740138D01*
X148905889Y-98637814D01*
X148735729Y-98567332D01*
X148555089Y-98531400D01*
X148370911Y-98531400D01*
X148190271Y-98567332D01*
X148020111Y-98637814D01*
X148012107Y-98643162D01*
X147966089Y-98612414D01*
X147795929Y-98541932D01*
X147615289Y-98506000D01*
X147431111Y-98506000D01*
X147250471Y-98541932D01*
X147080311Y-98612414D01*
X146927172Y-98714738D01*
X146796938Y-98844972D01*
X146694614Y-98998111D01*
X146624132Y-99168271D01*
X146588200Y-99348911D01*
X143637000Y-99348911D01*
X143637000Y-92837000D01*
X145288000Y-92837000D01*
X145288000Y-97155000D01*
X145290440Y-97179776D01*
X145297667Y-97203601D01*
X145309403Y-97225557D01*
X145325197Y-97244803D01*
X145344443Y-97260597D01*
X145366399Y-97272333D01*
X145390224Y-97279560D01*
X145415000Y-97282000D01*
X148644272Y-97282000D01*
X148705911Y-97323186D01*
X148734737Y-97335126D01*
X148675814Y-97423311D01*
X148605332Y-97593471D01*
X148569400Y-97774111D01*
X148569400Y-97958289D01*
X148605332Y-98138929D01*
X148675814Y-98309089D01*
X148778138Y-98462228D01*
X148908372Y-98592462D01*
X149061511Y-98694786D01*
X149231671Y-98765268D01*
X149412311Y-98801200D01*
X149596489Y-98801200D01*
X149777129Y-98765268D01*
X149947289Y-98694786D01*
X150100428Y-98592462D01*
X150230662Y-98462228D01*
X150332986Y-98309089D01*
X150368000Y-98224557D01*
X150368000Y-102870000D01*
X150370440Y-102894776D01*
X150377667Y-102918601D01*
X150389403Y-102940557D01*
X150405197Y-102959803D01*
X150424443Y-102975597D01*
X150446399Y-102987333D01*
X150470224Y-102994560D01*
X150495000Y-102997000D01*
X154178000Y-102997000D01*
X154178000Y-104140000D01*
X154180440Y-104164776D01*
X154187667Y-104188601D01*
X154199403Y-104210557D01*
X154215197Y-104229803D01*
X154234443Y-104245597D01*
X154256399Y-104257333D01*
X154280224Y-104264560D01*
X154305000Y-104267000D01*
X155614490Y-104267000D01*
X155779577Y-104402484D01*
X155976753Y-104507876D01*
X156190701Y-104572777D01*
X156357448Y-104589200D01*
X156357457Y-104589200D01*
X156413199Y-104594690D01*
X156468941Y-104589200D01*
X158526352Y-104589200D01*
X158693099Y-104572777D01*
X158907047Y-104507876D01*
X159104223Y-104402484D01*
X159269310Y-104267000D01*
X159385000Y-104267000D01*
X159409776Y-104264560D01*
X159433601Y-104257333D01*
X159455557Y-104245597D01*
X159474803Y-104229803D01*
X159490597Y-104210557D01*
X159502333Y-104188601D01*
X159509560Y-104164776D01*
X159512000Y-104140000D01*
X159512000Y-103913614D01*
X159524276Y-103890647D01*
X159589177Y-103676699D01*
X159611091Y-103454200D01*
X159589177Y-103231701D01*
X159524276Y-103017753D01*
X159512000Y-102994786D01*
X159512000Y-102235000D01*
X159509560Y-102210224D01*
X159502333Y-102186399D01*
X159490597Y-102164443D01*
X159474803Y-102145197D01*
X159455557Y-102129403D01*
X159433601Y-102117667D01*
X159409776Y-102110440D01*
X159385000Y-102108000D01*
X157607000Y-102108000D01*
X157607000Y-100330000D01*
X157604560Y-100305224D01*
X157597333Y-100281399D01*
X157585597Y-100259443D01*
X157569803Y-100240197D01*
X157550557Y-100224403D01*
X157528601Y-100212667D01*
X157504776Y-100205440D01*
X157480000Y-100203000D01*
X155067000Y-100203000D01*
X155067000Y-98552000D01*
X157480000Y-98552000D01*
X157504776Y-98549560D01*
X157528601Y-98542333D01*
X157550557Y-98530597D01*
X157569803Y-98514803D01*
X157585597Y-98495557D01*
X157597333Y-98473601D01*
X157604560Y-98449776D01*
X157607000Y-98425000D01*
X157607000Y-98407911D01*
X158474200Y-98407911D01*
X158474200Y-98592089D01*
X158510132Y-98772729D01*
X158580614Y-98942889D01*
X158682938Y-99096028D01*
X158813172Y-99226262D01*
X158966311Y-99328586D01*
X159136471Y-99399068D01*
X159317111Y-99435000D01*
X159501289Y-99435000D01*
X159681929Y-99399068D01*
X159852089Y-99328586D01*
X160005228Y-99226262D01*
X160135462Y-99096028D01*
X160237786Y-98942889D01*
X160308268Y-98772729D01*
X160344200Y-98592089D01*
X160344200Y-98407911D01*
X160308268Y-98227271D01*
X160237786Y-98057111D01*
X160135462Y-97903972D01*
X160005228Y-97773738D01*
X159852089Y-97671414D01*
X159681929Y-97600932D01*
X159501289Y-97565000D01*
X159317111Y-97565000D01*
X159136471Y-97600932D01*
X158966311Y-97671414D01*
X158813172Y-97773738D01*
X158682938Y-97903972D01*
X158580614Y-98057111D01*
X158510132Y-98227271D01*
X158474200Y-98407911D01*
X157607000Y-98407911D01*
X157607000Y-95513511D01*
X158450000Y-95513511D01*
X158450000Y-95697689D01*
X158485932Y-95878329D01*
X158556414Y-96048489D01*
X158658738Y-96201628D01*
X158788972Y-96331862D01*
X158942111Y-96434186D01*
X159112271Y-96504668D01*
X159292911Y-96540600D01*
X159477089Y-96540600D01*
X159657729Y-96504668D01*
X159827889Y-96434186D01*
X159981028Y-96331862D01*
X160111262Y-96201628D01*
X160213586Y-96048489D01*
X160284068Y-95878329D01*
X160320000Y-95697689D01*
X160320000Y-95513511D01*
X160284068Y-95332871D01*
X160213586Y-95162711D01*
X160111262Y-95009572D01*
X159981028Y-94879338D01*
X159827889Y-94777014D01*
X159657729Y-94706532D01*
X159477089Y-94670600D01*
X159292911Y-94670600D01*
X159112271Y-94706532D01*
X158942111Y-94777014D01*
X158788972Y-94879338D01*
X158658738Y-95009572D01*
X158556414Y-95162711D01*
X158485932Y-95332871D01*
X158450000Y-95513511D01*
X157607000Y-95513511D01*
X157607000Y-92782901D01*
X158500800Y-92782901D01*
X158500800Y-92967079D01*
X158536732Y-93147719D01*
X158607214Y-93317879D01*
X158709538Y-93471018D01*
X158839772Y-93601252D01*
X158992911Y-93703576D01*
X159163071Y-93774058D01*
X159343711Y-93809990D01*
X159485696Y-93809990D01*
X159522338Y-93864828D01*
X159652572Y-93995062D01*
X159805711Y-94097386D01*
X159975871Y-94167868D01*
X160156511Y-94203800D01*
X160340689Y-94203800D01*
X160521329Y-94167868D01*
X160691489Y-94097386D01*
X160844628Y-93995062D01*
X160974862Y-93864828D01*
X161077186Y-93711689D01*
X161147668Y-93541529D01*
X161183600Y-93360889D01*
X161183600Y-93176711D01*
X161147668Y-92996071D01*
X161077186Y-92825911D01*
X160974862Y-92672772D01*
X160844628Y-92542538D01*
X160691489Y-92440214D01*
X160521329Y-92369732D01*
X160340689Y-92333800D01*
X160198704Y-92333800D01*
X160162062Y-92278962D01*
X160031828Y-92148728D01*
X159878689Y-92046404D01*
X159725403Y-91982911D01*
X160837600Y-91982911D01*
X160837600Y-92167089D01*
X160873532Y-92347729D01*
X160944014Y-92517889D01*
X161046338Y-92671028D01*
X161176572Y-92801262D01*
X161329711Y-92903586D01*
X161499871Y-92974068D01*
X161680511Y-93010000D01*
X161864689Y-93010000D01*
X162045329Y-92974068D01*
X162215489Y-92903586D01*
X162368628Y-92801262D01*
X162498862Y-92671028D01*
X162601186Y-92517889D01*
X162671668Y-92347729D01*
X162707600Y-92167089D01*
X162707600Y-91982911D01*
X162671668Y-91802271D01*
X162601186Y-91632111D01*
X162498862Y-91478972D01*
X162368628Y-91348738D01*
X162215489Y-91246414D01*
X162045329Y-91175932D01*
X161864689Y-91140000D01*
X161680511Y-91140000D01*
X161499871Y-91175932D01*
X161329711Y-91246414D01*
X161176572Y-91348738D01*
X161046338Y-91478972D01*
X160944014Y-91632111D01*
X160873532Y-91802271D01*
X160837600Y-91982911D01*
X159725403Y-91982911D01*
X159708529Y-91975922D01*
X159527889Y-91939990D01*
X159343711Y-91939990D01*
X159163071Y-91975922D01*
X158992911Y-92046404D01*
X158839772Y-92148728D01*
X158709538Y-92278962D01*
X158607214Y-92432101D01*
X158536732Y-92602261D01*
X158500800Y-92782901D01*
X157607000Y-92782901D01*
X157607000Y-90932000D01*
X163703000Y-90932000D01*
X163703000Y-95123000D01*
X161290000Y-95123000D01*
X161265224Y-95125440D01*
X161241399Y-95132667D01*
X161219443Y-95144403D01*
X161200197Y-95160197D01*
X161184403Y-95179443D01*
X161172667Y-95201399D01*
X161165440Y-95225224D01*
X161163000Y-95250000D01*
X161163000Y-100330000D01*
X161165440Y-100354776D01*
X161172667Y-100378601D01*
X161184403Y-100400557D01*
X161200197Y-100419803D01*
X161219443Y-100435597D01*
X161241399Y-100447333D01*
X161265224Y-100454560D01*
X161290000Y-100457000D01*
X163703000Y-100457000D01*
X163703000Y-105223825D01*
X163643825Y-105283000D01*
X161925000Y-105283000D01*
X161900224Y-105285440D01*
X161876399Y-105292667D01*
X161854443Y-105304403D01*
X161835197Y-105320197D01*
X161819403Y-105339443D01*
X161807667Y-105361399D01*
X161800440Y-105385224D01*
X161798000Y-105410000D01*
X161798000Y-107158076D01*
X161676254Y-107385846D01*
X161599917Y-107637495D01*
X161574141Y-107899200D01*
X161599917Y-108160905D01*
X161676254Y-108412554D01*
X161800218Y-108644474D01*
X161967046Y-108847754D01*
X162170326Y-109014582D01*
X162402246Y-109138546D01*
X162653895Y-109214883D01*
X162915600Y-109240659D01*
X163177305Y-109214883D01*
X163428954Y-109138546D01*
X163660874Y-109014582D01*
X163813216Y-108889558D01*
X163990774Y-108712000D01*
X166370000Y-108712000D01*
X166394776Y-108709560D01*
X166418601Y-108702333D01*
X166440557Y-108690597D01*
X166459803Y-108674803D01*
X166475597Y-108655557D01*
X166487333Y-108633601D01*
X166494560Y-108609776D01*
X166497000Y-108585000D01*
X166497000Y-87122000D01*
X168002600Y-87122000D01*
X168002601Y-110998000D01*
G37*
X168002601Y-110998000D02*
X160020000Y-110998000D01*
X159995224Y-111000440D01*
X159971399Y-111007667D01*
X159949443Y-111019403D01*
X159930197Y-111035197D01*
X159914403Y-111054443D01*
X159902667Y-111076399D01*
X159895440Y-111100224D01*
X159893000Y-111125000D01*
X159893000Y-115443000D01*
X156794481Y-115443000D01*
X156784586Y-115419111D01*
X156682262Y-115265972D01*
X156552028Y-115135738D01*
X156398889Y-115033414D01*
X156228729Y-114962932D01*
X156048089Y-114927000D01*
X155863911Y-114927000D01*
X155683271Y-114962932D01*
X155513111Y-115033414D01*
X155359972Y-115135738D01*
X155229738Y-115265972D01*
X155127414Y-115419111D01*
X155117519Y-115443000D01*
X151892000Y-115443000D01*
X151892000Y-113157000D01*
X158115000Y-113157000D01*
X158139776Y-113154560D01*
X158163601Y-113147333D01*
X158185557Y-113135597D01*
X158204803Y-113119803D01*
X158220597Y-113100557D01*
X158232333Y-113078601D01*
X158239560Y-113054776D01*
X158242000Y-113030000D01*
X158242000Y-108585000D01*
X158239560Y-108560224D01*
X158232333Y-108536399D01*
X158220597Y-108514443D01*
X158204803Y-108495197D01*
X158185557Y-108479403D01*
X158163601Y-108467667D01*
X158139776Y-108460440D01*
X158115000Y-108458000D01*
X157676366Y-108458000D01*
X157564955Y-108322245D01*
X157361674Y-108155418D01*
X157129753Y-108031453D01*
X156878105Y-107955117D01*
X156616400Y-107929341D01*
X156354694Y-107955117D01*
X156103046Y-108031453D01*
X155871125Y-108155418D01*
X155667845Y-108322245D01*
X155556435Y-108458000D01*
X152628600Y-108458000D01*
X152628600Y-108437401D01*
X152571010Y-108147875D01*
X152527000Y-108041626D01*
X152527000Y-106588374D01*
X152569276Y-106486311D01*
X152735000Y-106486311D01*
X152735000Y-106670489D01*
X152770932Y-106851129D01*
X152841414Y-107021289D01*
X152943738Y-107174428D01*
X153073972Y-107304662D01*
X153227111Y-107406986D01*
X153397271Y-107477468D01*
X153577911Y-107513400D01*
X153762089Y-107513400D01*
X153942729Y-107477468D01*
X154112889Y-107406986D01*
X154266028Y-107304662D01*
X154396262Y-107174428D01*
X154498586Y-107021289D01*
X154569068Y-106851129D01*
X154605000Y-106670489D01*
X154605000Y-106486311D01*
X154569068Y-106305671D01*
X154498586Y-106135511D01*
X154396262Y-105982372D01*
X154266028Y-105852138D01*
X154112889Y-105749814D01*
X153942729Y-105679332D01*
X153762089Y-105643400D01*
X153577911Y-105643400D01*
X153397271Y-105679332D01*
X153227111Y-105749814D01*
X153073972Y-105852138D01*
X152943738Y-105982372D01*
X152841414Y-106135511D01*
X152770932Y-106305671D01*
X152735000Y-106486311D01*
X152569276Y-106486311D01*
X152571010Y-106482125D01*
X152628600Y-106192599D01*
X152628600Y-105897401D01*
X152571010Y-105607875D01*
X152527000Y-105501626D01*
X152527000Y-104775000D01*
X152524560Y-104750224D01*
X152517333Y-104726399D01*
X152505597Y-104704443D01*
X152489803Y-104685197D01*
X152470557Y-104669403D01*
X152448601Y-104657667D01*
X152424776Y-104650440D01*
X152400000Y-104648000D01*
X151673374Y-104648000D01*
X151567125Y-104603990D01*
X151277599Y-104546400D01*
X150982401Y-104546400D01*
X150692875Y-104603990D01*
X150586626Y-104648000D01*
X149133374Y-104648000D01*
X149027125Y-104603990D01*
X148737599Y-104546400D01*
X148442401Y-104546400D01*
X148152875Y-104603990D01*
X148046626Y-104648000D01*
X146593374Y-104648000D01*
X146487125Y-104603990D01*
X146197599Y-104546400D01*
X145902401Y-104546400D01*
X145612875Y-104603990D01*
X145506626Y-104648000D01*
X144053374Y-104648000D01*
X143947125Y-104603990D01*
X143657599Y-104546400D01*
X143637000Y-104546400D01*
X143637000Y-102523911D01*
X146512000Y-102523911D01*
X146512000Y-102708089D01*
X146547932Y-102888729D01*
X146618414Y-103058889D01*
X146720738Y-103212028D01*
X146850972Y-103342262D01*
X147004111Y-103444586D01*
X147174271Y-103515068D01*
X147354911Y-103551000D01*
X147539089Y-103551000D01*
X147719729Y-103515068D01*
X147889889Y-103444586D01*
X148043028Y-103342262D01*
X148173262Y-103212028D01*
X148275586Y-103058889D01*
X148346068Y-102888729D01*
X148382000Y-102708089D01*
X148382000Y-102528495D01*
X148454999Y-102528495D01*
X148454999Y-102712673D01*
X148490931Y-102893313D01*
X148561413Y-103063473D01*
X148663737Y-103216612D01*
X148793971Y-103346846D01*
X148947110Y-103449170D01*
X149117270Y-103519652D01*
X149297910Y-103555584D01*
X149482088Y-103555584D01*
X149662728Y-103519652D01*
X149832888Y-103449170D01*
X149986027Y-103346846D01*
X150116261Y-103216612D01*
X150218585Y-103063473D01*
X150289067Y-102893313D01*
X150324999Y-102712673D01*
X150324999Y-102528495D01*
X150289067Y-102347855D01*
X150218585Y-102177695D01*
X150116261Y-102024556D01*
X149986027Y-101894322D01*
X149832888Y-101791998D01*
X149662728Y-101721516D01*
X149482088Y-101685584D01*
X149297910Y-101685584D01*
X149117270Y-101721516D01*
X148947110Y-101791998D01*
X148793971Y-101894322D01*
X148663737Y-102024556D01*
X148561413Y-102177695D01*
X148490931Y-102347855D01*
X148454999Y-102528495D01*
X148382000Y-102528495D01*
X148382000Y-102523911D01*
X148346068Y-102343271D01*
X148275586Y-102173111D01*
X148173262Y-102019972D01*
X148043028Y-101889738D01*
X147889889Y-101787414D01*
X147719729Y-101716932D01*
X147539089Y-101681000D01*
X147354911Y-101681000D01*
X147174271Y-101716932D01*
X147004111Y-101787414D01*
X146850972Y-101889738D01*
X146720738Y-102019972D01*
X146618414Y-102173111D01*
X146547932Y-102343271D01*
X146512000Y-102523911D01*
X143637000Y-102523911D01*
X143637000Y-101017290D01*
X143726772Y-101107062D01*
X143879911Y-101209386D01*
X144050071Y-101279868D01*
X144230711Y-101315800D01*
X144414889Y-101315800D01*
X144595529Y-101279868D01*
X144765689Y-101209386D01*
X144918828Y-101107062D01*
X145049062Y-100976828D01*
X145151386Y-100823689D01*
X145221868Y-100653529D01*
X145257800Y-100472889D01*
X145257800Y-100288711D01*
X145221868Y-100108071D01*
X145151386Y-99937911D01*
X145049062Y-99784772D01*
X144918828Y-99654538D01*
X144765689Y-99552214D01*
X144595529Y-99481732D01*
X144414889Y-99445800D01*
X144230711Y-99445800D01*
X144050071Y-99481732D01*
X143879911Y-99552214D01*
X143726772Y-99654538D01*
X143637000Y-99744310D01*
X143637000Y-99348911D01*
X146588200Y-99348911D01*
X146588200Y-99533089D01*
X146624132Y-99713729D01*
X146694614Y-99883889D01*
X146796938Y-100037028D01*
X146927172Y-100167262D01*
X147080311Y-100269586D01*
X147250471Y-100340068D01*
X147431111Y-100376000D01*
X147615289Y-100376000D01*
X147795929Y-100340068D01*
X147966089Y-100269586D01*
X147974093Y-100264238D01*
X148020111Y-100294986D01*
X148190271Y-100365468D01*
X148370911Y-100401400D01*
X148555089Y-100401400D01*
X148735729Y-100365468D01*
X148905889Y-100294986D01*
X149059028Y-100192662D01*
X149189262Y-100062428D01*
X149291586Y-99909289D01*
X149362068Y-99739129D01*
X149398000Y-99558489D01*
X149398000Y-99374311D01*
X149362068Y-99193671D01*
X149291586Y-99023511D01*
X149189262Y-98870372D01*
X149059028Y-98740138D01*
X148905889Y-98637814D01*
X148735729Y-98567332D01*
X148555089Y-98531400D01*
X148370911Y-98531400D01*
X148190271Y-98567332D01*
X148020111Y-98637814D01*
X148012107Y-98643162D01*
X147966089Y-98612414D01*
X147795929Y-98541932D01*
X147615289Y-98506000D01*
X147431111Y-98506000D01*
X147250471Y-98541932D01*
X147080311Y-98612414D01*
X146927172Y-98714738D01*
X146796938Y-98844972D01*
X146694614Y-98998111D01*
X146624132Y-99168271D01*
X146588200Y-99348911D01*
X143637000Y-99348911D01*
X143637000Y-92837000D01*
X145288000Y-92837000D01*
X145288000Y-97155000D01*
X145290440Y-97179776D01*
X145297667Y-97203601D01*
X145309403Y-97225557D01*
X145325197Y-97244803D01*
X145344443Y-97260597D01*
X145366399Y-97272333D01*
X145390224Y-97279560D01*
X145415000Y-97282000D01*
X148644272Y-97282000D01*
X148705911Y-97323186D01*
X148734737Y-97335126D01*
X148675814Y-97423311D01*
X148605332Y-97593471D01*
X148569400Y-97774111D01*
X148569400Y-97958289D01*
X148605332Y-98138929D01*
X148675814Y-98309089D01*
X148778138Y-98462228D01*
X148908372Y-98592462D01*
X149061511Y-98694786D01*
X149231671Y-98765268D01*
X149412311Y-98801200D01*
X149596489Y-98801200D01*
X149777129Y-98765268D01*
X149947289Y-98694786D01*
X150100428Y-98592462D01*
X150230662Y-98462228D01*
X150332986Y-98309089D01*
X150368000Y-98224557D01*
X150368000Y-102870000D01*
X150370440Y-102894776D01*
X150377667Y-102918601D01*
X150389403Y-102940557D01*
X150405197Y-102959803D01*
X150424443Y-102975597D01*
X150446399Y-102987333D01*
X150470224Y-102994560D01*
X150495000Y-102997000D01*
X154178000Y-102997000D01*
X154178000Y-104140000D01*
X154180440Y-104164776D01*
X154187667Y-104188601D01*
X154199403Y-104210557D01*
X154215197Y-104229803D01*
X154234443Y-104245597D01*
X154256399Y-104257333D01*
X154280224Y-104264560D01*
X154305000Y-104267000D01*
X155614490Y-104267000D01*
X155779577Y-104402484D01*
X155976753Y-104507876D01*
X156190701Y-104572777D01*
X156357448Y-104589200D01*
X156357457Y-104589200D01*
X156413199Y-104594690D01*
X156468941Y-104589200D01*
X158526352Y-104589200D01*
X158693099Y-104572777D01*
X158907047Y-104507876D01*
X159104223Y-104402484D01*
X159269310Y-104267000D01*
X159385000Y-104267000D01*
X159409776Y-104264560D01*
X159433601Y-104257333D01*
X159455557Y-104245597D01*
X159474803Y-104229803D01*
X159490597Y-104210557D01*
X159502333Y-104188601D01*
X159509560Y-104164776D01*
X159512000Y-104140000D01*
X159512000Y-103913614D01*
X159524276Y-103890647D01*
X159589177Y-103676699D01*
X159611091Y-103454200D01*
X159589177Y-103231701D01*
X159524276Y-103017753D01*
X159512000Y-102994786D01*
X159512000Y-102235000D01*
X159509560Y-102210224D01*
X159502333Y-102186399D01*
X159490597Y-102164443D01*
X159474803Y-102145197D01*
X159455557Y-102129403D01*
X159433601Y-102117667D01*
X159409776Y-102110440D01*
X159385000Y-102108000D01*
X157607000Y-102108000D01*
X157607000Y-100330000D01*
X157604560Y-100305224D01*
X157597333Y-100281399D01*
X157585597Y-100259443D01*
X157569803Y-100240197D01*
X157550557Y-100224403D01*
X157528601Y-100212667D01*
X157504776Y-100205440D01*
X157480000Y-100203000D01*
X155067000Y-100203000D01*
X155067000Y-98552000D01*
X157480000Y-98552000D01*
X157504776Y-98549560D01*
X157528601Y-98542333D01*
X157550557Y-98530597D01*
X157569803Y-98514803D01*
X157585597Y-98495557D01*
X157597333Y-98473601D01*
X157604560Y-98449776D01*
X157607000Y-98425000D01*
X157607000Y-98407911D01*
X158474200Y-98407911D01*
X158474200Y-98592089D01*
X158510132Y-98772729D01*
X158580614Y-98942889D01*
X158682938Y-99096028D01*
X158813172Y-99226262D01*
X158966311Y-99328586D01*
X159136471Y-99399068D01*
X159317111Y-99435000D01*
X159501289Y-99435000D01*
X159681929Y-99399068D01*
X159852089Y-99328586D01*
X160005228Y-99226262D01*
X160135462Y-99096028D01*
X160237786Y-98942889D01*
X160308268Y-98772729D01*
X160344200Y-98592089D01*
X160344200Y-98407911D01*
X160308268Y-98227271D01*
X160237786Y-98057111D01*
X160135462Y-97903972D01*
X160005228Y-97773738D01*
X159852089Y-97671414D01*
X159681929Y-97600932D01*
X159501289Y-97565000D01*
X159317111Y-97565000D01*
X159136471Y-97600932D01*
X158966311Y-97671414D01*
X158813172Y-97773738D01*
X158682938Y-97903972D01*
X158580614Y-98057111D01*
X158510132Y-98227271D01*
X158474200Y-98407911D01*
X157607000Y-98407911D01*
X157607000Y-95513511D01*
X158450000Y-95513511D01*
X158450000Y-95697689D01*
X158485932Y-95878329D01*
X158556414Y-96048489D01*
X158658738Y-96201628D01*
X158788972Y-96331862D01*
X158942111Y-96434186D01*
X159112271Y-96504668D01*
X159292911Y-96540600D01*
X159477089Y-96540600D01*
X159657729Y-96504668D01*
X159827889Y-96434186D01*
X159981028Y-96331862D01*
X160111262Y-96201628D01*
X160213586Y-96048489D01*
X160284068Y-95878329D01*
X160320000Y-95697689D01*
X160320000Y-95513511D01*
X160284068Y-95332871D01*
X160213586Y-95162711D01*
X160111262Y-95009572D01*
X159981028Y-94879338D01*
X159827889Y-94777014D01*
X159657729Y-94706532D01*
X159477089Y-94670600D01*
X159292911Y-94670600D01*
X159112271Y-94706532D01*
X158942111Y-94777014D01*
X158788972Y-94879338D01*
X158658738Y-95009572D01*
X158556414Y-95162711D01*
X158485932Y-95332871D01*
X158450000Y-95513511D01*
X157607000Y-95513511D01*
X157607000Y-92782901D01*
X158500800Y-92782901D01*
X158500800Y-92967079D01*
X158536732Y-93147719D01*
X158607214Y-93317879D01*
X158709538Y-93471018D01*
X158839772Y-93601252D01*
X158992911Y-93703576D01*
X159163071Y-93774058D01*
X159343711Y-93809990D01*
X159485696Y-93809990D01*
X159522338Y-93864828D01*
X159652572Y-93995062D01*
X159805711Y-94097386D01*
X159975871Y-94167868D01*
X160156511Y-94203800D01*
X160340689Y-94203800D01*
X160521329Y-94167868D01*
X160691489Y-94097386D01*
X160844628Y-93995062D01*
X160974862Y-93864828D01*
X161077186Y-93711689D01*
X161147668Y-93541529D01*
X161183600Y-93360889D01*
X161183600Y-93176711D01*
X161147668Y-92996071D01*
X161077186Y-92825911D01*
X160974862Y-92672772D01*
X160844628Y-92542538D01*
X160691489Y-92440214D01*
X160521329Y-92369732D01*
X160340689Y-92333800D01*
X160198704Y-92333800D01*
X160162062Y-92278962D01*
X160031828Y-92148728D01*
X159878689Y-92046404D01*
X159725403Y-91982911D01*
X160837600Y-91982911D01*
X160837600Y-92167089D01*
X160873532Y-92347729D01*
X160944014Y-92517889D01*
X161046338Y-92671028D01*
X161176572Y-92801262D01*
X161329711Y-92903586D01*
X161499871Y-92974068D01*
X161680511Y-93010000D01*
X161864689Y-93010000D01*
X162045329Y-92974068D01*
X162215489Y-92903586D01*
X162368628Y-92801262D01*
X162498862Y-92671028D01*
X162601186Y-92517889D01*
X162671668Y-92347729D01*
X162707600Y-92167089D01*
X162707600Y-91982911D01*
X162671668Y-91802271D01*
X162601186Y-91632111D01*
X162498862Y-91478972D01*
X162368628Y-91348738D01*
X162215489Y-91246414D01*
X162045329Y-91175932D01*
X161864689Y-91140000D01*
X161680511Y-91140000D01*
X161499871Y-91175932D01*
X161329711Y-91246414D01*
X161176572Y-91348738D01*
X161046338Y-91478972D01*
X160944014Y-91632111D01*
X160873532Y-91802271D01*
X160837600Y-91982911D01*
X159725403Y-91982911D01*
X159708529Y-91975922D01*
X159527889Y-91939990D01*
X159343711Y-91939990D01*
X159163071Y-91975922D01*
X158992911Y-92046404D01*
X158839772Y-92148728D01*
X158709538Y-92278962D01*
X158607214Y-92432101D01*
X158536732Y-92602261D01*
X158500800Y-92782901D01*
X157607000Y-92782901D01*
X157607000Y-90932000D01*
X163703000Y-90932000D01*
X163703000Y-95123000D01*
X161290000Y-95123000D01*
X161265224Y-95125440D01*
X161241399Y-95132667D01*
X161219443Y-95144403D01*
X161200197Y-95160197D01*
X161184403Y-95179443D01*
X161172667Y-95201399D01*
X161165440Y-95225224D01*
X161163000Y-95250000D01*
X161163000Y-100330000D01*
X161165440Y-100354776D01*
X161172667Y-100378601D01*
X161184403Y-100400557D01*
X161200197Y-100419803D01*
X161219443Y-100435597D01*
X161241399Y-100447333D01*
X161265224Y-100454560D01*
X161290000Y-100457000D01*
X163703000Y-100457000D01*
X163703000Y-105223825D01*
X163643825Y-105283000D01*
X161925000Y-105283000D01*
X161900224Y-105285440D01*
X161876399Y-105292667D01*
X161854443Y-105304403D01*
X161835197Y-105320197D01*
X161819403Y-105339443D01*
X161807667Y-105361399D01*
X161800440Y-105385224D01*
X161798000Y-105410000D01*
X161798000Y-107158076D01*
X161676254Y-107385846D01*
X161599917Y-107637495D01*
X161574141Y-107899200D01*
X161599917Y-108160905D01*
X161676254Y-108412554D01*
X161800218Y-108644474D01*
X161967046Y-108847754D01*
X162170326Y-109014582D01*
X162402246Y-109138546D01*
X162653895Y-109214883D01*
X162915600Y-109240659D01*
X163177305Y-109214883D01*
X163428954Y-109138546D01*
X163660874Y-109014582D01*
X163813216Y-108889558D01*
X163990774Y-108712000D01*
X166370000Y-108712000D01*
X166394776Y-108709560D01*
X166418601Y-108702333D01*
X166440557Y-108690597D01*
X166459803Y-108674803D01*
X166475597Y-108655557D01*
X166487333Y-108633601D01*
X166494560Y-108609776D01*
X166497000Y-108585000D01*
X166497000Y-87122000D01*
X168002600Y-87122000D01*
X168002601Y-110998000D01*
G36*
X137430847Y-121414153D02*
G01*
X137585501Y-121541075D01*
X137761944Y-121635386D01*
X137912940Y-121681190D01*
X137918750Y-121687000D01*
X137932094Y-121687000D01*
X137953396Y-121693462D01*
X138152500Y-121713072D01*
X139117500Y-121713072D01*
X139316604Y-121693462D01*
X139403838Y-121667000D01*
X139833000Y-121667000D01*
X139833000Y-121687000D01*
X139853000Y-121687000D01*
X139853000Y-122833000D01*
X139833000Y-122833000D01*
X139833000Y-123501250D01*
X139991750Y-123660000D01*
X140125000Y-123663072D01*
X140249482Y-123650812D01*
X140369180Y-123614502D01*
X140479494Y-123555537D01*
X140480128Y-123555017D01*
X140536944Y-123585386D01*
X140728396Y-123643462D01*
X140927500Y-123663072D01*
X141892500Y-123663072D01*
X142091604Y-123643462D01*
X142283056Y-123585386D01*
X142459499Y-123491075D01*
X142614153Y-123364153D01*
X142741075Y-123209499D01*
X142835386Y-123033056D01*
X142893462Y-122841604D01*
X142913072Y-122642500D01*
X142913072Y-121877500D01*
X142893462Y-121678396D01*
X142882744Y-121643064D01*
X142908056Y-121635386D01*
X143084499Y-121541075D01*
X143239153Y-121414153D01*
X143240920Y-121412000D01*
X149199641Y-121412000D01*
X149240506Y-121445537D01*
X149350820Y-121504502D01*
X149470518Y-121540812D01*
X149595000Y-121553072D01*
X151395000Y-121553072D01*
X151519482Y-121540812D01*
X151639180Y-121504502D01*
X151749494Y-121445537D01*
X151790359Y-121412000D01*
X152396509Y-121412000D01*
X152587257Y-121491011D01*
X152883816Y-121550000D01*
X153186184Y-121550000D01*
X153482743Y-121491011D01*
X153673491Y-121412000D01*
X160349646Y-121412000D01*
X160392447Y-121464153D01*
X160547101Y-121591075D01*
X160723544Y-121685386D01*
X160748856Y-121693064D01*
X160738138Y-121728396D01*
X160718528Y-121927500D01*
X160718528Y-122692500D01*
X160738138Y-122891604D01*
X160796214Y-123083056D01*
X160890525Y-123259499D01*
X161017447Y-123414153D01*
X161172101Y-123541075D01*
X161348544Y-123635386D01*
X161539996Y-123693462D01*
X161739100Y-123713072D01*
X162704100Y-123713072D01*
X162903204Y-123693462D01*
X163094656Y-123635386D01*
X163151472Y-123605017D01*
X163152106Y-123605537D01*
X163262420Y-123664502D01*
X163382118Y-123700812D01*
X163506600Y-123713072D01*
X163639850Y-123710000D01*
X163798600Y-123551250D01*
X163798600Y-122883000D01*
X164944600Y-122883000D01*
X164944600Y-123551250D01*
X165103350Y-123710000D01*
X165236600Y-123713072D01*
X165361082Y-123700812D01*
X165480780Y-123664502D01*
X165591094Y-123605537D01*
X165687785Y-123526185D01*
X165767137Y-123429494D01*
X165826102Y-123319180D01*
X165862412Y-123199482D01*
X165874672Y-123075000D01*
X165871600Y-123041750D01*
X165712850Y-122883000D01*
X164944600Y-122883000D01*
X163798600Y-122883000D01*
X163778600Y-122883000D01*
X163778600Y-121737000D01*
X163798600Y-121737000D01*
X163798600Y-121717000D01*
X164227762Y-121717000D01*
X164314996Y-121743462D01*
X164514100Y-121763072D01*
X165479100Y-121763072D01*
X165678204Y-121743462D01*
X165699506Y-121737000D01*
X165712850Y-121737000D01*
X165718660Y-121731190D01*
X165869656Y-121685386D01*
X166046099Y-121591075D01*
X166200753Y-121464153D01*
X166243000Y-121412675D01*
X166243000Y-124968000D01*
X154549549Y-124968000D01*
X154570000Y-124865184D01*
X154570000Y-124562816D01*
X154511011Y-124266257D01*
X154395299Y-123986905D01*
X154227312Y-123735495D01*
X154013505Y-123521688D01*
X153762095Y-123353701D01*
X153482743Y-123237989D01*
X153186184Y-123179000D01*
X152883816Y-123179000D01*
X152587257Y-123237989D01*
X152307905Y-123353701D01*
X152056495Y-123521688D01*
X151990056Y-123588127D01*
X151984502Y-123569820D01*
X151925537Y-123459506D01*
X151846185Y-123362815D01*
X151749494Y-123283463D01*
X151639180Y-123224498D01*
X151519482Y-123188188D01*
X151395000Y-123175928D01*
X149595000Y-123175928D01*
X149470518Y-123188188D01*
X149350820Y-123224498D01*
X149240506Y-123283463D01*
X149143815Y-123362815D01*
X149064463Y-123459506D01*
X149005498Y-123569820D01*
X148969188Y-123689518D01*
X148956928Y-123814000D01*
X148956928Y-124968000D01*
X137287000Y-124968000D01*
X137287000Y-123025000D01*
X137756928Y-123025000D01*
X137769188Y-123149482D01*
X137805498Y-123269180D01*
X137864463Y-123379494D01*
X137943815Y-123476185D01*
X138040506Y-123555537D01*
X138150820Y-123614502D01*
X138270518Y-123650812D01*
X138395000Y-123663072D01*
X138528250Y-123660000D01*
X138687000Y-123501250D01*
X138687000Y-122833000D01*
X137918750Y-122833000D01*
X137760000Y-122991750D01*
X137756928Y-123025000D01*
X137287000Y-123025000D01*
X137287000Y-121412000D01*
X137429080Y-121412000D01*
X137430847Y-121414153D01*
G37*
X137430847Y-121414153D02*
X137585501Y-121541075D01*
X137761944Y-121635386D01*
X137912940Y-121681190D01*
X137918750Y-121687000D01*
X137932094Y-121687000D01*
X137953396Y-121693462D01*
X138152500Y-121713072D01*
X139117500Y-121713072D01*
X139316604Y-121693462D01*
X139403838Y-121667000D01*
X139833000Y-121667000D01*
X139833000Y-121687000D01*
X139853000Y-121687000D01*
X139853000Y-122833000D01*
X139833000Y-122833000D01*
X139833000Y-123501250D01*
X139991750Y-123660000D01*
X140125000Y-123663072D01*
X140249482Y-123650812D01*
X140369180Y-123614502D01*
X140479494Y-123555537D01*
X140480128Y-123555017D01*
X140536944Y-123585386D01*
X140728396Y-123643462D01*
X140927500Y-123663072D01*
X141892500Y-123663072D01*
X142091604Y-123643462D01*
X142283056Y-123585386D01*
X142459499Y-123491075D01*
X142614153Y-123364153D01*
X142741075Y-123209499D01*
X142835386Y-123033056D01*
X142893462Y-122841604D01*
X142913072Y-122642500D01*
X142913072Y-121877500D01*
X142893462Y-121678396D01*
X142882744Y-121643064D01*
X142908056Y-121635386D01*
X143084499Y-121541075D01*
X143239153Y-121414153D01*
X143240920Y-121412000D01*
X149199641Y-121412000D01*
X149240506Y-121445537D01*
X149350820Y-121504502D01*
X149470518Y-121540812D01*
X149595000Y-121553072D01*
X151395000Y-121553072D01*
X151519482Y-121540812D01*
X151639180Y-121504502D01*
X151749494Y-121445537D01*
X151790359Y-121412000D01*
X152396509Y-121412000D01*
X152587257Y-121491011D01*
X152883816Y-121550000D01*
X153186184Y-121550000D01*
X153482743Y-121491011D01*
X153673491Y-121412000D01*
X160349646Y-121412000D01*
X160392447Y-121464153D01*
X160547101Y-121591075D01*
X160723544Y-121685386D01*
X160748856Y-121693064D01*
X160738138Y-121728396D01*
X160718528Y-121927500D01*
X160718528Y-122692500D01*
X160738138Y-122891604D01*
X160796214Y-123083056D01*
X160890525Y-123259499D01*
X161017447Y-123414153D01*
X161172101Y-123541075D01*
X161348544Y-123635386D01*
X161539996Y-123693462D01*
X161739100Y-123713072D01*
X162704100Y-123713072D01*
X162903204Y-123693462D01*
X163094656Y-123635386D01*
X163151472Y-123605017D01*
X163152106Y-123605537D01*
X163262420Y-123664502D01*
X163382118Y-123700812D01*
X163506600Y-123713072D01*
X163639850Y-123710000D01*
X163798600Y-123551250D01*
X163798600Y-122883000D01*
X164944600Y-122883000D01*
X164944600Y-123551250D01*
X165103350Y-123710000D01*
X165236600Y-123713072D01*
X165361082Y-123700812D01*
X165480780Y-123664502D01*
X165591094Y-123605537D01*
X165687785Y-123526185D01*
X165767137Y-123429494D01*
X165826102Y-123319180D01*
X165862412Y-123199482D01*
X165874672Y-123075000D01*
X165871600Y-123041750D01*
X165712850Y-122883000D01*
X164944600Y-122883000D01*
X163798600Y-122883000D01*
X163778600Y-122883000D01*
X163778600Y-121737000D01*
X163798600Y-121737000D01*
X163798600Y-121717000D01*
X164227762Y-121717000D01*
X164314996Y-121743462D01*
X164514100Y-121763072D01*
X165479100Y-121763072D01*
X165678204Y-121743462D01*
X165699506Y-121737000D01*
X165712850Y-121737000D01*
X165718660Y-121731190D01*
X165869656Y-121685386D01*
X166046099Y-121591075D01*
X166200753Y-121464153D01*
X166243000Y-121412675D01*
X166243000Y-124968000D01*
X154549549Y-124968000D01*
X154570000Y-124865184D01*
X154570000Y-124562816D01*
X154511011Y-124266257D01*
X154395299Y-123986905D01*
X154227312Y-123735495D01*
X154013505Y-123521688D01*
X153762095Y-123353701D01*
X153482743Y-123237989D01*
X153186184Y-123179000D01*
X152883816Y-123179000D01*
X152587257Y-123237989D01*
X152307905Y-123353701D01*
X152056495Y-123521688D01*
X151990056Y-123588127D01*
X151984502Y-123569820D01*
X151925537Y-123459506D01*
X151846185Y-123362815D01*
X151749494Y-123283463D01*
X151639180Y-123224498D01*
X151519482Y-123188188D01*
X151395000Y-123175928D01*
X149595000Y-123175928D01*
X149470518Y-123188188D01*
X149350820Y-123224498D01*
X149240506Y-123283463D01*
X149143815Y-123362815D01*
X149064463Y-123459506D01*
X149005498Y-123569820D01*
X148969188Y-123689518D01*
X148956928Y-123814000D01*
X148956928Y-124968000D01*
X137287000Y-124968000D01*
X137287000Y-123025000D01*
X137756928Y-123025000D01*
X137769188Y-123149482D01*
X137805498Y-123269180D01*
X137864463Y-123379494D01*
X137943815Y-123476185D01*
X138040506Y-123555537D01*
X138150820Y-123614502D01*
X138270518Y-123650812D01*
X138395000Y-123663072D01*
X138528250Y-123660000D01*
X138687000Y-123501250D01*
X138687000Y-122833000D01*
X137918750Y-122833000D01*
X137760000Y-122991750D01*
X137756928Y-123025000D01*
X137287000Y-123025000D01*
X137287000Y-121412000D01*
X137429080Y-121412000D01*
X137430847Y-121414153D01*
M02*
