G04 #@! TF.GenerationSoftware,KiCad,Pcbnew,(5.1.5)-3*
G04 #@! TF.CreationDate,2020-07-08T18:31:05-03:00*
G04 #@! TF.ProjectId,EEN60002020,45454e36-3030-4303-9230-32302e6b6963,rev?*
G04 #@! TF.SameCoordinates,Original*
G04 #@! TF.FileFunction,Soldermask,Bot*
G04 #@! TF.FilePolarity,Negative*
%FSLAX46Y46*%
G04 Gerber Fmt 4.6, Leading zero omitted, Abs format (unit mm)*
G04 Created by KiCad (PCBNEW (5.1.5)-3) date 2020-07-08 18:31:05*
%MOMM*%
%LPD*%
G04 APERTURE LIST*
%ADD10C,0.100000*%
G04 APERTURE END LIST*
D10*
G36*
X136289843Y-125503214D02*
G01*
X136289846Y-125503215D01*
X136289845Y-125503215D01*
X136380839Y-125540906D01*
X136404573Y-125556765D01*
X136462730Y-125595624D01*
X136532376Y-125665270D01*
X136587095Y-125747163D01*
X136624786Y-125838157D01*
X136644000Y-125934753D01*
X136644000Y-126033247D01*
X136624786Y-126129843D01*
X136624785Y-126129845D01*
X136587094Y-126220839D01*
X136532375Y-126302731D01*
X136462731Y-126372375D01*
X136380839Y-126427094D01*
X136380838Y-126427095D01*
X136380837Y-126427095D01*
X136289843Y-126464786D01*
X136193247Y-126484000D01*
X136094753Y-126484000D01*
X135998157Y-126464786D01*
X135907163Y-126427095D01*
X135907162Y-126427095D01*
X135907161Y-126427094D01*
X135825269Y-126372375D01*
X135755625Y-126302731D01*
X135700906Y-126220839D01*
X135663215Y-126129845D01*
X135663214Y-126129843D01*
X135644000Y-126033247D01*
X135644000Y-125934753D01*
X135663214Y-125838157D01*
X135700905Y-125747163D01*
X135755624Y-125665270D01*
X135825270Y-125595624D01*
X135883427Y-125556765D01*
X135907161Y-125540906D01*
X135998155Y-125503215D01*
X135998154Y-125503215D01*
X135998157Y-125503214D01*
X136094753Y-125484000D01*
X136193247Y-125484000D01*
X136289843Y-125503214D01*
G37*
G36*
X153312395Y-123799546D02*
G01*
X153485466Y-123871234D01*
X153485467Y-123871235D01*
X153641227Y-123975310D01*
X153773690Y-124107773D01*
X153773691Y-124107775D01*
X153877766Y-124263534D01*
X153949454Y-124436605D01*
X153986000Y-124620333D01*
X153986000Y-124807667D01*
X153949454Y-124991395D01*
X153877766Y-125164466D01*
X153877765Y-125164467D01*
X153773690Y-125320227D01*
X153641227Y-125452690D01*
X153594368Y-125484000D01*
X153485466Y-125556766D01*
X153312395Y-125628454D01*
X153128667Y-125665000D01*
X152941333Y-125665000D01*
X152757605Y-125628454D01*
X152584534Y-125556766D01*
X152475632Y-125484000D01*
X152428773Y-125452690D01*
X152296310Y-125320227D01*
X152192235Y-125164467D01*
X152192234Y-125164466D01*
X152120546Y-124991395D01*
X152084000Y-124807667D01*
X152084000Y-124620333D01*
X152120546Y-124436605D01*
X152192234Y-124263534D01*
X152296309Y-124107775D01*
X152296310Y-124107773D01*
X152428773Y-123975310D01*
X152584533Y-123871235D01*
X152584534Y-123871234D01*
X152757605Y-123799546D01*
X152941333Y-123763000D01*
X153128667Y-123763000D01*
X153312395Y-123799546D01*
G37*
G36*
X151446000Y-125665000D02*
G01*
X149544000Y-125665000D01*
X149544000Y-123763000D01*
X151446000Y-123763000D01*
X151446000Y-125665000D01*
G37*
G36*
X162859384Y-121501232D02*
G01*
X162924087Y-121520860D01*
X162983714Y-121552731D01*
X163035978Y-121595622D01*
X163078869Y-121647886D01*
X163110740Y-121707513D01*
X163130368Y-121772216D01*
X163137600Y-121845641D01*
X163137600Y-122774359D01*
X163130368Y-122847784D01*
X163110740Y-122912487D01*
X163078869Y-122972114D01*
X163035978Y-123024378D01*
X162983714Y-123067269D01*
X162924087Y-123099140D01*
X162859384Y-123118768D01*
X162785959Y-123126000D01*
X161657241Y-123126000D01*
X161583816Y-123118768D01*
X161519113Y-123099140D01*
X161459486Y-123067269D01*
X161407222Y-123024378D01*
X161364331Y-122972114D01*
X161332460Y-122912487D01*
X161312832Y-122847784D01*
X161305600Y-122774359D01*
X161305600Y-121845641D01*
X161312832Y-121772216D01*
X161332460Y-121707513D01*
X161364331Y-121647886D01*
X161407222Y-121595622D01*
X161459486Y-121552731D01*
X161519113Y-121520860D01*
X161583816Y-121501232D01*
X161657241Y-121494000D01*
X162785959Y-121494000D01*
X162859384Y-121501232D01*
G37*
G36*
X165009384Y-121501232D02*
G01*
X165074087Y-121520860D01*
X165133714Y-121552731D01*
X165185978Y-121595622D01*
X165228869Y-121647886D01*
X165260740Y-121707513D01*
X165280368Y-121772216D01*
X165287600Y-121845641D01*
X165287600Y-122774359D01*
X165280368Y-122847784D01*
X165260740Y-122912487D01*
X165228869Y-122972114D01*
X165185978Y-123024378D01*
X165133714Y-123067269D01*
X165074087Y-123099140D01*
X165009384Y-123118768D01*
X164935959Y-123126000D01*
X163807241Y-123126000D01*
X163733816Y-123118768D01*
X163669113Y-123099140D01*
X163609486Y-123067269D01*
X163557222Y-123024378D01*
X163514331Y-122972114D01*
X163482460Y-122912487D01*
X163462832Y-122847784D01*
X163455600Y-122774359D01*
X163455600Y-121845641D01*
X163462832Y-121772216D01*
X163482460Y-121707513D01*
X163514331Y-121647886D01*
X163557222Y-121595622D01*
X163609486Y-121552731D01*
X163669113Y-121520860D01*
X163733816Y-121501232D01*
X163807241Y-121494000D01*
X164935959Y-121494000D01*
X165009384Y-121501232D01*
G37*
G36*
X142047784Y-121451232D02*
G01*
X142112487Y-121470860D01*
X142172114Y-121502731D01*
X142224378Y-121545622D01*
X142267269Y-121597886D01*
X142299140Y-121657513D01*
X142318768Y-121722216D01*
X142326000Y-121795641D01*
X142326000Y-122724359D01*
X142318768Y-122797784D01*
X142299140Y-122862487D01*
X142267269Y-122922114D01*
X142224378Y-122974378D01*
X142172114Y-123017269D01*
X142112487Y-123049140D01*
X142047784Y-123068768D01*
X141974359Y-123076000D01*
X140845641Y-123076000D01*
X140772216Y-123068768D01*
X140707513Y-123049140D01*
X140647886Y-123017269D01*
X140595622Y-122974378D01*
X140552731Y-122922114D01*
X140520860Y-122862487D01*
X140501232Y-122797784D01*
X140494000Y-122724359D01*
X140494000Y-121795641D01*
X140501232Y-121722216D01*
X140520860Y-121657513D01*
X140552731Y-121597886D01*
X140595622Y-121545622D01*
X140647886Y-121502731D01*
X140707513Y-121470860D01*
X140772216Y-121451232D01*
X140845641Y-121444000D01*
X141974359Y-121444000D01*
X142047784Y-121451232D01*
G37*
G36*
X139897784Y-121451232D02*
G01*
X139962487Y-121470860D01*
X140022114Y-121502731D01*
X140074378Y-121545622D01*
X140117269Y-121597886D01*
X140149140Y-121657513D01*
X140168768Y-121722216D01*
X140176000Y-121795641D01*
X140176000Y-122724359D01*
X140168768Y-122797784D01*
X140149140Y-122862487D01*
X140117269Y-122922114D01*
X140074378Y-122974378D01*
X140022114Y-123017269D01*
X139962487Y-123049140D01*
X139897784Y-123068768D01*
X139824359Y-123076000D01*
X138695641Y-123076000D01*
X138622216Y-123068768D01*
X138557513Y-123049140D01*
X138497886Y-123017269D01*
X138445622Y-122974378D01*
X138402731Y-122922114D01*
X138370860Y-122862487D01*
X138351232Y-122797784D01*
X138344000Y-122724359D01*
X138344000Y-121795641D01*
X138351232Y-121722216D01*
X138370860Y-121657513D01*
X138402731Y-121597886D01*
X138445622Y-121545622D01*
X138497886Y-121502731D01*
X138557513Y-121470860D01*
X138622216Y-121451232D01*
X138695641Y-121444000D01*
X139824359Y-121444000D01*
X139897784Y-121451232D01*
G37*
G36*
X162234384Y-119551232D02*
G01*
X162299087Y-119570860D01*
X162358714Y-119602731D01*
X162410978Y-119645622D01*
X162453869Y-119697886D01*
X162485740Y-119757513D01*
X162505368Y-119822216D01*
X162512600Y-119895641D01*
X162512600Y-120824359D01*
X162505368Y-120897784D01*
X162485740Y-120962487D01*
X162453869Y-121022114D01*
X162410978Y-121074378D01*
X162358714Y-121117269D01*
X162299087Y-121149140D01*
X162234384Y-121168768D01*
X162160959Y-121176000D01*
X161032241Y-121176000D01*
X160958816Y-121168768D01*
X160894113Y-121149140D01*
X160834486Y-121117269D01*
X160782222Y-121074378D01*
X160739331Y-121022114D01*
X160707460Y-120962487D01*
X160687832Y-120897784D01*
X160680600Y-120824359D01*
X160680600Y-119895641D01*
X160687832Y-119822216D01*
X160707460Y-119757513D01*
X160739331Y-119697886D01*
X160782222Y-119645622D01*
X160834486Y-119602731D01*
X160894113Y-119570860D01*
X160958816Y-119551232D01*
X161032241Y-119544000D01*
X162160959Y-119544000D01*
X162234384Y-119551232D01*
G37*
G36*
X165634384Y-119551232D02*
G01*
X165699087Y-119570860D01*
X165758714Y-119602731D01*
X165810978Y-119645622D01*
X165853869Y-119697886D01*
X165885740Y-119757513D01*
X165905368Y-119822216D01*
X165912600Y-119895641D01*
X165912600Y-120824359D01*
X165905368Y-120897784D01*
X165885740Y-120962487D01*
X165853869Y-121022114D01*
X165810978Y-121074378D01*
X165758714Y-121117269D01*
X165699087Y-121149140D01*
X165634384Y-121168768D01*
X165560959Y-121176000D01*
X164432241Y-121176000D01*
X164358816Y-121168768D01*
X164294113Y-121149140D01*
X164234486Y-121117269D01*
X164182222Y-121074378D01*
X164139331Y-121022114D01*
X164107460Y-120962487D01*
X164087832Y-120897784D01*
X164080600Y-120824359D01*
X164080600Y-119895641D01*
X164087832Y-119822216D01*
X164107460Y-119757513D01*
X164139331Y-119697886D01*
X164182222Y-119645622D01*
X164234486Y-119602731D01*
X164294113Y-119570860D01*
X164358816Y-119551232D01*
X164432241Y-119544000D01*
X165560959Y-119544000D01*
X165634384Y-119551232D01*
G37*
G36*
X139272784Y-119501232D02*
G01*
X139337487Y-119520860D01*
X139397114Y-119552731D01*
X139449378Y-119595622D01*
X139492269Y-119647886D01*
X139524140Y-119707513D01*
X139543768Y-119772216D01*
X139551000Y-119845641D01*
X139551000Y-120774359D01*
X139543768Y-120847784D01*
X139524140Y-120912487D01*
X139492269Y-120972114D01*
X139449378Y-121024378D01*
X139397114Y-121067269D01*
X139337487Y-121099140D01*
X139272784Y-121118768D01*
X139199359Y-121126000D01*
X138070641Y-121126000D01*
X137997216Y-121118768D01*
X137932513Y-121099140D01*
X137872886Y-121067269D01*
X137820622Y-121024378D01*
X137777731Y-120972114D01*
X137745860Y-120912487D01*
X137726232Y-120847784D01*
X137719000Y-120774359D01*
X137719000Y-119845641D01*
X137726232Y-119772216D01*
X137745860Y-119707513D01*
X137777731Y-119647886D01*
X137820622Y-119595622D01*
X137872886Y-119552731D01*
X137932513Y-119520860D01*
X137997216Y-119501232D01*
X138070641Y-119494000D01*
X139199359Y-119494000D01*
X139272784Y-119501232D01*
G37*
G36*
X142672784Y-119501232D02*
G01*
X142737487Y-119520860D01*
X142797114Y-119552731D01*
X142849378Y-119595622D01*
X142892269Y-119647886D01*
X142924140Y-119707513D01*
X142943768Y-119772216D01*
X142951000Y-119845641D01*
X142951000Y-120774359D01*
X142943768Y-120847784D01*
X142924140Y-120912487D01*
X142892269Y-120972114D01*
X142849378Y-121024378D01*
X142797114Y-121067269D01*
X142737487Y-121099140D01*
X142672784Y-121118768D01*
X142599359Y-121126000D01*
X141470641Y-121126000D01*
X141397216Y-121118768D01*
X141332513Y-121099140D01*
X141272886Y-121067269D01*
X141220622Y-121024378D01*
X141177731Y-120972114D01*
X141145860Y-120912487D01*
X141126232Y-120847784D01*
X141119000Y-120774359D01*
X141119000Y-119845641D01*
X141126232Y-119772216D01*
X141145860Y-119707513D01*
X141177731Y-119647886D01*
X141220622Y-119595622D01*
X141272886Y-119552731D01*
X141332513Y-119520860D01*
X141397216Y-119501232D01*
X141470641Y-119494000D01*
X142599359Y-119494000D01*
X142672784Y-119501232D01*
G37*
G36*
X153312395Y-119100546D02*
G01*
X153485466Y-119172234D01*
X153485467Y-119172235D01*
X153641227Y-119276310D01*
X153773690Y-119408773D01*
X153773691Y-119408775D01*
X153877766Y-119564534D01*
X153949454Y-119737605D01*
X153986000Y-119921333D01*
X153986000Y-120108667D01*
X153949454Y-120292395D01*
X153877766Y-120465466D01*
X153877765Y-120465467D01*
X153773690Y-120621227D01*
X153641227Y-120753690D01*
X153575515Y-120797597D01*
X153485466Y-120857766D01*
X153312395Y-120929454D01*
X153128667Y-120966000D01*
X152941333Y-120966000D01*
X152757605Y-120929454D01*
X152584534Y-120857766D01*
X152494485Y-120797597D01*
X152428773Y-120753690D01*
X152296310Y-120621227D01*
X152192235Y-120465467D01*
X152192234Y-120465466D01*
X152120546Y-120292395D01*
X152084000Y-120108667D01*
X152084000Y-119921333D01*
X152120546Y-119737605D01*
X152192234Y-119564534D01*
X152296309Y-119408775D01*
X152296310Y-119408773D01*
X152428773Y-119276310D01*
X152584533Y-119172235D01*
X152584534Y-119172234D01*
X152757605Y-119100546D01*
X152941333Y-119064000D01*
X153128667Y-119064000D01*
X153312395Y-119100546D01*
G37*
G36*
X151446000Y-120966000D02*
G01*
X149544000Y-120966000D01*
X149544000Y-119064000D01*
X151446000Y-119064000D01*
X151446000Y-120966000D01*
G37*
G36*
X146269059Y-117482860D02*
G01*
X146405732Y-117539472D01*
X146528735Y-117621660D01*
X146633340Y-117726265D01*
X146691368Y-117813110D01*
X146715529Y-117849270D01*
X146770677Y-117982408D01*
X146772140Y-117985941D01*
X146801000Y-118131033D01*
X146801000Y-118278967D01*
X146772140Y-118424059D01*
X146715528Y-118560732D01*
X146633340Y-118683735D01*
X146528735Y-118788340D01*
X146405732Y-118870528D01*
X146405731Y-118870529D01*
X146405730Y-118870529D01*
X146269059Y-118927140D01*
X146123968Y-118956000D01*
X145976032Y-118956000D01*
X145830941Y-118927140D01*
X145694270Y-118870529D01*
X145694269Y-118870529D01*
X145694268Y-118870528D01*
X145571265Y-118788340D01*
X145466660Y-118683735D01*
X145384472Y-118560732D01*
X145327860Y-118424059D01*
X145299000Y-118278967D01*
X145299000Y-118131033D01*
X145327860Y-117985941D01*
X145329323Y-117982408D01*
X145384471Y-117849270D01*
X145408632Y-117813110D01*
X145466660Y-117726265D01*
X145571265Y-117621660D01*
X145694268Y-117539472D01*
X145830941Y-117482860D01*
X145976032Y-117454000D01*
X146123968Y-117454000D01*
X146269059Y-117482860D01*
G37*
G36*
X157212391Y-116953085D02*
G01*
X157246369Y-116963393D01*
X157277690Y-116980134D01*
X157305139Y-117002661D01*
X157327666Y-117030110D01*
X157344407Y-117061431D01*
X157354715Y-117095409D01*
X157358800Y-117136890D01*
X157358800Y-117813110D01*
X157354715Y-117854591D01*
X157344407Y-117888569D01*
X157327666Y-117919890D01*
X157305139Y-117947339D01*
X157277690Y-117969866D01*
X157246369Y-117986607D01*
X157212391Y-117996915D01*
X157170910Y-118001000D01*
X156569690Y-118001000D01*
X156528209Y-117996915D01*
X156494231Y-117986607D01*
X156462910Y-117969866D01*
X156435461Y-117947339D01*
X156412934Y-117919890D01*
X156396193Y-117888569D01*
X156385885Y-117854591D01*
X156381800Y-117813110D01*
X156381800Y-117136890D01*
X156385885Y-117095409D01*
X156396193Y-117061431D01*
X156412934Y-117030110D01*
X156435461Y-117002661D01*
X156462910Y-116980134D01*
X156494231Y-116963393D01*
X156528209Y-116953085D01*
X156569690Y-116949000D01*
X157170910Y-116949000D01*
X157212391Y-116953085D01*
G37*
G36*
X158787391Y-116953085D02*
G01*
X158821369Y-116963393D01*
X158852690Y-116980134D01*
X158880139Y-117002661D01*
X158902666Y-117030110D01*
X158919407Y-117061431D01*
X158929715Y-117095409D01*
X158933800Y-117136890D01*
X158933800Y-117813110D01*
X158929715Y-117854591D01*
X158919407Y-117888569D01*
X158902666Y-117919890D01*
X158880139Y-117947339D01*
X158852690Y-117969866D01*
X158821369Y-117986607D01*
X158787391Y-117996915D01*
X158745910Y-118001000D01*
X158144690Y-118001000D01*
X158103209Y-117996915D01*
X158069231Y-117986607D01*
X158037910Y-117969866D01*
X158010461Y-117947339D01*
X157987934Y-117919890D01*
X157971193Y-117888569D01*
X157960885Y-117854591D01*
X157956800Y-117813110D01*
X157956800Y-117136890D01*
X157960885Y-117095409D01*
X157971193Y-117061431D01*
X157987934Y-117030110D01*
X158010461Y-117002661D01*
X158037910Y-116980134D01*
X158069231Y-116963393D01*
X158103209Y-116953085D01*
X158144690Y-116949000D01*
X158745910Y-116949000D01*
X158787391Y-116953085D01*
G37*
G36*
X146801000Y-116956000D02*
G01*
X145299000Y-116956000D01*
X145299000Y-115454000D01*
X146801000Y-115454000D01*
X146801000Y-116956000D01*
G37*
G36*
X163342000Y-109636000D02*
G01*
X162540000Y-109636000D01*
X162540000Y-108884000D01*
X163342000Y-108884000D01*
X163342000Y-109636000D01*
G37*
G36*
X156992000Y-109636000D02*
G01*
X156190000Y-109636000D01*
X156190000Y-108884000D01*
X156992000Y-108884000D01*
X156992000Y-109636000D01*
G37*
G36*
X143776778Y-107705547D02*
G01*
X143943224Y-107774491D01*
X144093022Y-107874583D01*
X144220417Y-108001978D01*
X144320509Y-108151776D01*
X144389453Y-108318222D01*
X144424600Y-108494918D01*
X144424600Y-108675082D01*
X144389453Y-108851778D01*
X144320509Y-109018224D01*
X144220417Y-109168022D01*
X144093022Y-109295417D01*
X143943224Y-109395509D01*
X143776778Y-109464453D01*
X143600082Y-109499600D01*
X143419918Y-109499600D01*
X143243222Y-109464453D01*
X143076776Y-109395509D01*
X142926978Y-109295417D01*
X142799583Y-109168022D01*
X142699491Y-109018224D01*
X142630547Y-108851778D01*
X142595400Y-108675082D01*
X142595400Y-108494918D01*
X142630547Y-108318222D01*
X142699491Y-108151776D01*
X142799583Y-108001978D01*
X142926978Y-107874583D01*
X143076776Y-107774491D01*
X143243222Y-107705547D01*
X143419918Y-107670400D01*
X143600082Y-107670400D01*
X143776778Y-107705547D01*
G37*
G36*
X146316778Y-107705547D02*
G01*
X146483224Y-107774491D01*
X146633022Y-107874583D01*
X146760417Y-108001978D01*
X146860509Y-108151776D01*
X146929453Y-108318222D01*
X146964600Y-108494918D01*
X146964600Y-108675082D01*
X146929453Y-108851778D01*
X146860509Y-109018224D01*
X146760417Y-109168022D01*
X146633022Y-109295417D01*
X146483224Y-109395509D01*
X146316778Y-109464453D01*
X146140082Y-109499600D01*
X145959918Y-109499600D01*
X145783222Y-109464453D01*
X145616776Y-109395509D01*
X145466978Y-109295417D01*
X145339583Y-109168022D01*
X145239491Y-109018224D01*
X145170547Y-108851778D01*
X145135400Y-108675082D01*
X145135400Y-108494918D01*
X145170547Y-108318222D01*
X145239491Y-108151776D01*
X145339583Y-108001978D01*
X145466978Y-107874583D01*
X145616776Y-107774491D01*
X145783222Y-107705547D01*
X145959918Y-107670400D01*
X146140082Y-107670400D01*
X146316778Y-107705547D01*
G37*
G36*
X148856778Y-107705547D02*
G01*
X149023224Y-107774491D01*
X149173022Y-107874583D01*
X149300417Y-108001978D01*
X149400509Y-108151776D01*
X149469453Y-108318222D01*
X149504600Y-108494918D01*
X149504600Y-108675082D01*
X149469453Y-108851778D01*
X149400509Y-109018224D01*
X149300417Y-109168022D01*
X149173022Y-109295417D01*
X149023224Y-109395509D01*
X148856778Y-109464453D01*
X148680082Y-109499600D01*
X148499918Y-109499600D01*
X148323222Y-109464453D01*
X148156776Y-109395509D01*
X148006978Y-109295417D01*
X147879583Y-109168022D01*
X147779491Y-109018224D01*
X147710547Y-108851778D01*
X147675400Y-108675082D01*
X147675400Y-108494918D01*
X147710547Y-108318222D01*
X147779491Y-108151776D01*
X147879583Y-108001978D01*
X148006978Y-107874583D01*
X148156776Y-107774491D01*
X148323222Y-107705547D01*
X148499918Y-107670400D01*
X148680082Y-107670400D01*
X148856778Y-107705547D01*
G37*
G36*
X151396778Y-107705547D02*
G01*
X151563224Y-107774491D01*
X151713022Y-107874583D01*
X151840417Y-108001978D01*
X151940509Y-108151776D01*
X152009453Y-108318222D01*
X152044600Y-108494918D01*
X152044600Y-108675082D01*
X152009453Y-108851778D01*
X151940509Y-109018224D01*
X151840417Y-109168022D01*
X151713022Y-109295417D01*
X151563224Y-109395509D01*
X151396778Y-109464453D01*
X151220082Y-109499600D01*
X151039918Y-109499600D01*
X150863222Y-109464453D01*
X150696776Y-109395509D01*
X150546978Y-109295417D01*
X150419583Y-109168022D01*
X150319491Y-109018224D01*
X150250547Y-108851778D01*
X150215400Y-108675082D01*
X150215400Y-108494918D01*
X150250547Y-108318222D01*
X150319491Y-108151776D01*
X150419583Y-108001978D01*
X150546978Y-107874583D01*
X150696776Y-107774491D01*
X150863222Y-107705547D01*
X151039918Y-107670400D01*
X151220082Y-107670400D01*
X151396778Y-107705547D01*
G37*
G36*
X141884600Y-109499600D02*
G01*
X140055400Y-109499600D01*
X140055400Y-107670400D01*
X141884600Y-107670400D01*
X141884600Y-109499600D01*
G37*
G36*
X154221000Y-108666800D02*
G01*
X153119000Y-108666800D01*
X153119000Y-107664800D01*
X154221000Y-107664800D01*
X154221000Y-108666800D01*
G37*
G36*
X156992000Y-108286000D02*
G01*
X156190000Y-108286000D01*
X156190000Y-107534000D01*
X156992000Y-107534000D01*
X156992000Y-108286000D01*
G37*
G36*
X163342000Y-108286000D02*
G01*
X162540000Y-108286000D01*
X162540000Y-107534000D01*
X163342000Y-107534000D01*
X163342000Y-108286000D01*
G37*
G36*
X154221000Y-107066800D02*
G01*
X153119000Y-107066800D01*
X153119000Y-106064800D01*
X154221000Y-106064800D01*
X154221000Y-107066800D01*
G37*
G36*
X148856778Y-105165547D02*
G01*
X149023224Y-105234491D01*
X149173022Y-105334583D01*
X149300417Y-105461978D01*
X149400509Y-105611776D01*
X149469453Y-105778222D01*
X149504600Y-105954918D01*
X149504600Y-106135082D01*
X149469453Y-106311778D01*
X149400509Y-106478224D01*
X149300417Y-106628022D01*
X149173022Y-106755417D01*
X149023224Y-106855509D01*
X148856778Y-106924453D01*
X148680082Y-106959600D01*
X148499918Y-106959600D01*
X148323222Y-106924453D01*
X148156776Y-106855509D01*
X148006978Y-106755417D01*
X147879583Y-106628022D01*
X147779491Y-106478224D01*
X147710547Y-106311778D01*
X147675400Y-106135082D01*
X147675400Y-105954918D01*
X147710547Y-105778222D01*
X147779491Y-105611776D01*
X147879583Y-105461978D01*
X148006978Y-105334583D01*
X148156776Y-105234491D01*
X148323222Y-105165547D01*
X148499918Y-105130400D01*
X148680082Y-105130400D01*
X148856778Y-105165547D01*
G37*
G36*
X151396778Y-105165547D02*
G01*
X151563224Y-105234491D01*
X151713022Y-105334583D01*
X151840417Y-105461978D01*
X151940509Y-105611776D01*
X152009453Y-105778222D01*
X152044600Y-105954918D01*
X152044600Y-106135082D01*
X152009453Y-106311778D01*
X151940509Y-106478224D01*
X151840417Y-106628022D01*
X151713022Y-106755417D01*
X151563224Y-106855509D01*
X151396778Y-106924453D01*
X151220082Y-106959600D01*
X151039918Y-106959600D01*
X150863222Y-106924453D01*
X150696776Y-106855509D01*
X150546978Y-106755417D01*
X150419583Y-106628022D01*
X150319491Y-106478224D01*
X150250547Y-106311778D01*
X150215400Y-106135082D01*
X150215400Y-105954918D01*
X150250547Y-105778222D01*
X150319491Y-105611776D01*
X150419583Y-105461978D01*
X150546978Y-105334583D01*
X150696776Y-105234491D01*
X150863222Y-105165547D01*
X151039918Y-105130400D01*
X151220082Y-105130400D01*
X151396778Y-105165547D01*
G37*
G36*
X146316778Y-105165547D02*
G01*
X146483224Y-105234491D01*
X146633022Y-105334583D01*
X146760417Y-105461978D01*
X146860509Y-105611776D01*
X146929453Y-105778222D01*
X146964600Y-105954918D01*
X146964600Y-106135082D01*
X146929453Y-106311778D01*
X146860509Y-106478224D01*
X146760417Y-106628022D01*
X146633022Y-106755417D01*
X146483224Y-106855509D01*
X146316778Y-106924453D01*
X146140082Y-106959600D01*
X145959918Y-106959600D01*
X145783222Y-106924453D01*
X145616776Y-106855509D01*
X145466978Y-106755417D01*
X145339583Y-106628022D01*
X145239491Y-106478224D01*
X145170547Y-106311778D01*
X145135400Y-106135082D01*
X145135400Y-105954918D01*
X145170547Y-105778222D01*
X145239491Y-105611776D01*
X145339583Y-105461978D01*
X145466978Y-105334583D01*
X145616776Y-105234491D01*
X145783222Y-105165547D01*
X145959918Y-105130400D01*
X146140082Y-105130400D01*
X146316778Y-105165547D01*
G37*
G36*
X143776778Y-105165547D02*
G01*
X143943224Y-105234491D01*
X144093022Y-105334583D01*
X144220417Y-105461978D01*
X144320509Y-105611776D01*
X144389453Y-105778222D01*
X144424600Y-105954918D01*
X144424600Y-106135082D01*
X144389453Y-106311778D01*
X144320509Y-106478224D01*
X144220417Y-106628022D01*
X144093022Y-106755417D01*
X143943224Y-106855509D01*
X143776778Y-106924453D01*
X143600082Y-106959600D01*
X143419918Y-106959600D01*
X143243222Y-106924453D01*
X143076776Y-106855509D01*
X142926978Y-106755417D01*
X142799583Y-106628022D01*
X142699491Y-106478224D01*
X142630547Y-106311778D01*
X142595400Y-106135082D01*
X142595400Y-105954918D01*
X142630547Y-105778222D01*
X142699491Y-105611776D01*
X142799583Y-105461978D01*
X142926978Y-105334583D01*
X143076776Y-105234491D01*
X143243222Y-105165547D01*
X143419918Y-105130400D01*
X143600082Y-105130400D01*
X143776778Y-105165547D01*
G37*
G36*
X141236778Y-105165547D02*
G01*
X141403224Y-105234491D01*
X141553022Y-105334583D01*
X141680417Y-105461978D01*
X141780509Y-105611776D01*
X141849453Y-105778222D01*
X141884600Y-105954918D01*
X141884600Y-106135082D01*
X141849453Y-106311778D01*
X141780509Y-106478224D01*
X141680417Y-106628022D01*
X141553022Y-106755417D01*
X141403224Y-106855509D01*
X141236778Y-106924453D01*
X141060082Y-106959600D01*
X140879918Y-106959600D01*
X140703222Y-106924453D01*
X140536776Y-106855509D01*
X140386978Y-106755417D01*
X140259583Y-106628022D01*
X140159491Y-106478224D01*
X140090547Y-106311778D01*
X140055400Y-106135082D01*
X140055400Y-105954918D01*
X140090547Y-105778222D01*
X140159491Y-105611776D01*
X140259583Y-105461978D01*
X140386978Y-105334583D01*
X140536776Y-105234491D01*
X140703222Y-105165547D01*
X140879918Y-105130400D01*
X141060082Y-105130400D01*
X141236778Y-105165547D01*
G37*
G36*
X158846200Y-105191000D02*
G01*
X158044200Y-105191000D01*
X158044200Y-104439000D01*
X158846200Y-104439000D01*
X158846200Y-105191000D01*
G37*
G36*
X158846200Y-103841000D02*
G01*
X158044200Y-103841000D01*
X158044200Y-103089000D01*
X158846200Y-103089000D01*
X158846200Y-103841000D01*
G37*
G36*
X143388800Y-100906400D02*
G01*
X142386800Y-100906400D01*
X142386800Y-99804400D01*
X143388800Y-99804400D01*
X143388800Y-100906400D01*
G37*
G36*
X144988800Y-100906400D02*
G01*
X143986800Y-100906400D01*
X143986800Y-99804400D01*
X144988800Y-99804400D01*
X144988800Y-100906400D01*
G37*
G36*
X152032000Y-99932000D02*
G01*
X150990000Y-99932000D01*
X150990000Y-99080000D01*
X152032000Y-99080000D01*
X152032000Y-99932000D01*
G37*
G36*
X150000000Y-99932000D02*
G01*
X148958000Y-99932000D01*
X148958000Y-99080000D01*
X150000000Y-99080000D01*
X150000000Y-99932000D01*
G37*
G36*
X156032500Y-99867000D02*
G01*
X154990500Y-99867000D01*
X154990500Y-99015000D01*
X156032500Y-99015000D01*
X156032500Y-99867000D01*
G37*
G36*
X144729300Y-98539600D02*
G01*
X143877300Y-98539600D01*
X143877300Y-97497600D01*
X144729300Y-97497600D01*
X144729300Y-98539600D01*
G37*
G36*
X143329300Y-98539600D02*
G01*
X142477300Y-98539600D01*
X142477300Y-97497600D01*
X143329300Y-97497600D01*
X143329300Y-98539600D01*
G37*
G36*
X152032000Y-98532000D02*
G01*
X150990000Y-98532000D01*
X150990000Y-97680000D01*
X152032000Y-97680000D01*
X152032000Y-98532000D01*
G37*
G36*
X150000000Y-98532000D02*
G01*
X148958000Y-98532000D01*
X148958000Y-97680000D01*
X150000000Y-97680000D01*
X150000000Y-98532000D01*
G37*
G36*
X156032500Y-98467000D02*
G01*
X154990500Y-98467000D01*
X154990500Y-97615000D01*
X156032500Y-97615000D01*
X156032500Y-98467000D01*
G37*
G36*
X156066000Y-97041000D02*
G01*
X155214000Y-97041000D01*
X155214000Y-95999000D01*
X156066000Y-95999000D01*
X156066000Y-97041000D01*
G37*
G36*
X154666000Y-97041000D02*
G01*
X153814000Y-97041000D01*
X153814000Y-95999000D01*
X154666000Y-95999000D01*
X154666000Y-97041000D01*
G37*
G36*
X144729300Y-96329800D02*
G01*
X143877300Y-96329800D01*
X143877300Y-95287800D01*
X144729300Y-95287800D01*
X144729300Y-96329800D01*
G37*
G36*
X143329300Y-96329800D02*
G01*
X142477300Y-96329800D01*
X142477300Y-95287800D01*
X143329300Y-95287800D01*
X143329300Y-96329800D01*
G37*
G36*
X148100100Y-95491600D02*
G01*
X147248100Y-95491600D01*
X147248100Y-94449600D01*
X148100100Y-94449600D01*
X148100100Y-95491600D01*
G37*
G36*
X149500100Y-95491600D02*
G01*
X148648100Y-95491600D01*
X148648100Y-94449600D01*
X149500100Y-94449600D01*
X149500100Y-95491600D01*
G37*
G36*
X139116199Y-93616824D02*
G01*
X139165874Y-93637400D01*
X139243226Y-93669440D01*
X139243227Y-93669441D01*
X139357549Y-93745828D01*
X139454772Y-93843051D01*
X139505812Y-93919439D01*
X139531160Y-93957374D01*
X139583776Y-94084402D01*
X139610600Y-94219253D01*
X139610600Y-94356747D01*
X139583776Y-94491598D01*
X139531160Y-94618626D01*
X139531159Y-94618627D01*
X139454772Y-94732949D01*
X139357549Y-94830172D01*
X139281161Y-94881212D01*
X139243226Y-94906560D01*
X139168815Y-94937382D01*
X139116199Y-94959176D01*
X138981347Y-94986000D01*
X138843853Y-94986000D01*
X138709001Y-94959176D01*
X138656385Y-94937382D01*
X138581974Y-94906560D01*
X138544039Y-94881212D01*
X138467651Y-94830172D01*
X138370428Y-94732949D01*
X138294041Y-94618627D01*
X138294040Y-94618626D01*
X138241424Y-94491598D01*
X138214600Y-94356747D01*
X138214600Y-94219253D01*
X138241424Y-94084402D01*
X138294040Y-93957374D01*
X138319388Y-93919439D01*
X138370428Y-93843051D01*
X138467651Y-93745828D01*
X138581973Y-93669441D01*
X138581974Y-93669440D01*
X138659326Y-93637400D01*
X138709001Y-93616824D01*
X138843853Y-93590000D01*
X138981347Y-93590000D01*
X139116199Y-93616824D01*
G37*
G36*
X144729300Y-94424800D02*
G01*
X143877300Y-94424800D01*
X143877300Y-93382800D01*
X144729300Y-93382800D01*
X144729300Y-94424800D01*
G37*
G36*
X143329300Y-94424800D02*
G01*
X142477300Y-94424800D01*
X142477300Y-93382800D01*
X143329300Y-93382800D01*
X143329300Y-94424800D01*
G37*
G36*
X148100100Y-93637400D02*
G01*
X147248100Y-93637400D01*
X147248100Y-92595400D01*
X148100100Y-92595400D01*
X148100100Y-93637400D01*
G37*
G36*
X149500100Y-93637400D02*
G01*
X148648100Y-93637400D01*
X148648100Y-92595400D01*
X149500100Y-92595400D01*
X149500100Y-93637400D01*
G37*
G36*
X154724400Y-93048600D02*
G01*
X153682400Y-93048600D01*
X153682400Y-92196600D01*
X154724400Y-92196600D01*
X154724400Y-93048600D01*
G37*
G36*
X151752600Y-93048600D02*
G01*
X150710600Y-93048600D01*
X150710600Y-92196600D01*
X151752600Y-92196600D01*
X151752600Y-93048600D01*
G37*
G36*
X149512800Y-91834000D02*
G01*
X148660800Y-91834000D01*
X148660800Y-90792000D01*
X149512800Y-90792000D01*
X149512800Y-91834000D01*
G37*
G36*
X148112800Y-91834000D02*
G01*
X147260800Y-91834000D01*
X147260800Y-90792000D01*
X148112800Y-90792000D01*
X148112800Y-91834000D01*
G37*
G36*
X154724400Y-91648600D02*
G01*
X153682400Y-91648600D01*
X153682400Y-90796600D01*
X154724400Y-90796600D01*
X154724400Y-91648600D01*
G37*
G36*
X151752600Y-91648600D02*
G01*
X150710600Y-91648600D01*
X150710600Y-90796600D01*
X151752600Y-90796600D01*
X151752600Y-91648600D01*
G37*
G36*
X139116199Y-88736824D02*
G01*
X139168815Y-88758618D01*
X139243226Y-88789440D01*
X139243227Y-88789441D01*
X139357549Y-88865828D01*
X139454772Y-88963051D01*
X139505812Y-89039439D01*
X139531160Y-89077374D01*
X139583776Y-89204402D01*
X139610600Y-89339253D01*
X139610600Y-89476747D01*
X139583776Y-89611598D01*
X139531160Y-89738626D01*
X139531159Y-89738627D01*
X139454772Y-89852949D01*
X139357549Y-89950172D01*
X139281161Y-90001212D01*
X139243226Y-90026560D01*
X139168815Y-90057382D01*
X139116199Y-90079176D01*
X138981347Y-90106000D01*
X138843853Y-90106000D01*
X138709001Y-90079176D01*
X138656385Y-90057382D01*
X138581974Y-90026560D01*
X138544039Y-90001212D01*
X138467651Y-89950172D01*
X138370428Y-89852949D01*
X138294041Y-89738627D01*
X138294040Y-89738626D01*
X138241424Y-89611598D01*
X138214600Y-89476747D01*
X138214600Y-89339253D01*
X138241424Y-89204402D01*
X138294040Y-89077374D01*
X138319388Y-89039439D01*
X138370428Y-88963051D01*
X138467651Y-88865828D01*
X138581973Y-88789441D01*
X138581974Y-88789440D01*
X138656385Y-88758618D01*
X138709001Y-88736824D01*
X138843853Y-88710000D01*
X138981347Y-88710000D01*
X139116199Y-88736824D01*
G37*
G36*
X166637000Y-88121000D02*
G01*
X165595000Y-88121000D01*
X165595000Y-87269000D01*
X166637000Y-87269000D01*
X166637000Y-88121000D01*
G37*
G36*
X137935000Y-88121000D02*
G01*
X136893000Y-88121000D01*
X136893000Y-87269000D01*
X137935000Y-87269000D01*
X137935000Y-88121000D01*
G37*
G36*
X164097000Y-88121000D02*
G01*
X163055000Y-88121000D01*
X163055000Y-87269000D01*
X164097000Y-87269000D01*
X164097000Y-88121000D01*
G37*
G36*
X140602000Y-88121000D02*
G01*
X139560000Y-88121000D01*
X139560000Y-87269000D01*
X140602000Y-87269000D01*
X140602000Y-88121000D01*
G37*
G36*
X157747000Y-88121000D02*
G01*
X156705000Y-88121000D01*
X156705000Y-87269000D01*
X157747000Y-87269000D01*
X157747000Y-88121000D01*
G37*
G36*
X147079000Y-88121000D02*
G01*
X146037000Y-88121000D01*
X146037000Y-87269000D01*
X147079000Y-87269000D01*
X147079000Y-88121000D01*
G37*
G36*
X160414000Y-88121000D02*
G01*
X159372000Y-88121000D01*
X159372000Y-87269000D01*
X160414000Y-87269000D01*
X160414000Y-88121000D01*
G37*
G36*
X144412000Y-88121000D02*
G01*
X143370000Y-88121000D01*
X143370000Y-87269000D01*
X144412000Y-87269000D01*
X144412000Y-88121000D01*
G37*
G36*
X160414000Y-86721000D02*
G01*
X159372000Y-86721000D01*
X159372000Y-85869000D01*
X160414000Y-85869000D01*
X160414000Y-86721000D01*
G37*
G36*
X147079000Y-86721000D02*
G01*
X146037000Y-86721000D01*
X146037000Y-85869000D01*
X147079000Y-85869000D01*
X147079000Y-86721000D01*
G37*
G36*
X157747000Y-86721000D02*
G01*
X156705000Y-86721000D01*
X156705000Y-85869000D01*
X157747000Y-85869000D01*
X157747000Y-86721000D01*
G37*
G36*
X144412000Y-86721000D02*
G01*
X143370000Y-86721000D01*
X143370000Y-85869000D01*
X144412000Y-85869000D01*
X144412000Y-86721000D01*
G37*
G36*
X140602000Y-86721000D02*
G01*
X139560000Y-86721000D01*
X139560000Y-85869000D01*
X140602000Y-85869000D01*
X140602000Y-86721000D01*
G37*
G36*
X164097000Y-86721000D02*
G01*
X163055000Y-86721000D01*
X163055000Y-85869000D01*
X164097000Y-85869000D01*
X164097000Y-86721000D01*
G37*
G36*
X166637000Y-86721000D02*
G01*
X165595000Y-86721000D01*
X165595000Y-85869000D01*
X166637000Y-85869000D01*
X166637000Y-86721000D01*
G37*
G36*
X137935000Y-86721000D02*
G01*
X136893000Y-86721000D01*
X136893000Y-85869000D01*
X137935000Y-85869000D01*
X137935000Y-86721000D01*
G37*
G36*
X157777000Y-85121000D02*
G01*
X156675000Y-85121000D01*
X156675000Y-84119000D01*
X157777000Y-84119000D01*
X157777000Y-85121000D01*
G37*
G36*
X137965000Y-85121000D02*
G01*
X136863000Y-85121000D01*
X136863000Y-84119000D01*
X137965000Y-84119000D01*
X137965000Y-85121000D01*
G37*
G36*
X140632000Y-85121000D02*
G01*
X139530000Y-85121000D01*
X139530000Y-84119000D01*
X140632000Y-84119000D01*
X140632000Y-85121000D01*
G37*
G36*
X144442000Y-85121000D02*
G01*
X143340000Y-85121000D01*
X143340000Y-84119000D01*
X144442000Y-84119000D01*
X144442000Y-85121000D01*
G37*
G36*
X147109000Y-85121000D02*
G01*
X146007000Y-85121000D01*
X146007000Y-84119000D01*
X147109000Y-84119000D01*
X147109000Y-85121000D01*
G37*
G36*
X164127000Y-85121000D02*
G01*
X163025000Y-85121000D01*
X163025000Y-84119000D01*
X164127000Y-84119000D01*
X164127000Y-85121000D01*
G37*
G36*
X160444000Y-85121000D02*
G01*
X159342000Y-85121000D01*
X159342000Y-84119000D01*
X160444000Y-84119000D01*
X160444000Y-85121000D01*
G37*
G36*
X149522000Y-85121000D02*
G01*
X148420000Y-85121000D01*
X148420000Y-84119000D01*
X149522000Y-84119000D01*
X149522000Y-85121000D01*
G37*
G36*
X155237000Y-85121000D02*
G01*
X154135000Y-85121000D01*
X154135000Y-84119000D01*
X155237000Y-84119000D01*
X155237000Y-85121000D01*
G37*
G36*
X166667000Y-85121000D02*
G01*
X165565000Y-85121000D01*
X165565000Y-84119000D01*
X166667000Y-84119000D01*
X166667000Y-85121000D01*
G37*
G36*
X142507000Y-84671000D02*
G01*
X141465000Y-84671000D01*
X141465000Y-83819000D01*
X142507000Y-83819000D01*
X142507000Y-84671000D01*
G37*
G36*
X162192000Y-84671000D02*
G01*
X161150000Y-84671000D01*
X161150000Y-83819000D01*
X162192000Y-83819000D01*
X162192000Y-84671000D01*
G37*
G36*
X140632000Y-83521000D02*
G01*
X139530000Y-83521000D01*
X139530000Y-82519000D01*
X140632000Y-82519000D01*
X140632000Y-83521000D01*
G37*
G36*
X160444000Y-83521000D02*
G01*
X159342000Y-83521000D01*
X159342000Y-82519000D01*
X160444000Y-82519000D01*
X160444000Y-83521000D01*
G37*
G36*
X164127000Y-83521000D02*
G01*
X163025000Y-83521000D01*
X163025000Y-82519000D01*
X164127000Y-82519000D01*
X164127000Y-83521000D01*
G37*
G36*
X137965000Y-83521000D02*
G01*
X136863000Y-83521000D01*
X136863000Y-82519000D01*
X137965000Y-82519000D01*
X137965000Y-83521000D01*
G37*
G36*
X166667000Y-83521000D02*
G01*
X165565000Y-83521000D01*
X165565000Y-82519000D01*
X166667000Y-82519000D01*
X166667000Y-83521000D01*
G37*
G36*
X155237000Y-83521000D02*
G01*
X154135000Y-83521000D01*
X154135000Y-82519000D01*
X155237000Y-82519000D01*
X155237000Y-83521000D01*
G37*
G36*
X147109000Y-83521000D02*
G01*
X146007000Y-83521000D01*
X146007000Y-82519000D01*
X147109000Y-82519000D01*
X147109000Y-83521000D01*
G37*
G36*
X157777000Y-83521000D02*
G01*
X156675000Y-83521000D01*
X156675000Y-82519000D01*
X157777000Y-82519000D01*
X157777000Y-83521000D01*
G37*
G36*
X144442000Y-83521000D02*
G01*
X143340000Y-83521000D01*
X143340000Y-82519000D01*
X144442000Y-82519000D01*
X144442000Y-83521000D01*
G37*
G36*
X149522000Y-83521000D02*
G01*
X148420000Y-83521000D01*
X148420000Y-82519000D01*
X149522000Y-82519000D01*
X149522000Y-83521000D01*
G37*
G36*
X162192000Y-83271000D02*
G01*
X161150000Y-83271000D01*
X161150000Y-82419000D01*
X162192000Y-82419000D01*
X162192000Y-83271000D01*
G37*
G36*
X142507000Y-83271000D02*
G01*
X141465000Y-83271000D01*
X141465000Y-82419000D01*
X142507000Y-82419000D01*
X142507000Y-83271000D01*
G37*
G36*
X151554000Y-77374000D02*
G01*
X150452000Y-77374000D01*
X150452000Y-76372000D01*
X151554000Y-76372000D01*
X151554000Y-77374000D01*
G37*
G36*
X153936900Y-77343200D02*
G01*
X152895100Y-77343200D01*
X152895100Y-76479200D01*
X153936900Y-76479200D01*
X153936900Y-77343200D01*
G37*
G36*
X165397000Y-75977000D02*
G01*
X164295000Y-75977000D01*
X164295000Y-74975000D01*
X165397000Y-74975000D01*
X165397000Y-75977000D01*
G37*
G36*
X145712000Y-75977000D02*
G01*
X144610000Y-75977000D01*
X144610000Y-74975000D01*
X145712000Y-74975000D01*
X145712000Y-75977000D01*
G37*
G36*
X159047000Y-75977000D02*
G01*
X157945000Y-75977000D01*
X157945000Y-74975000D01*
X159047000Y-74975000D01*
X159047000Y-75977000D01*
G37*
G36*
X139362000Y-75977000D02*
G01*
X138260000Y-75977000D01*
X138260000Y-74975000D01*
X139362000Y-74975000D01*
X139362000Y-75977000D01*
G37*
G36*
X151554000Y-75774000D02*
G01*
X150452000Y-75774000D01*
X150452000Y-74772000D01*
X151554000Y-74772000D01*
X151554000Y-75774000D01*
G37*
G36*
X153936900Y-75666800D02*
G01*
X152895100Y-75666800D01*
X152895100Y-74802800D01*
X153936900Y-74802800D01*
X153936900Y-75666800D01*
G37*
G36*
X139362000Y-74377000D02*
G01*
X138260000Y-74377000D01*
X138260000Y-73375000D01*
X139362000Y-73375000D01*
X139362000Y-74377000D01*
G37*
G36*
X145712000Y-74377000D02*
G01*
X144610000Y-74377000D01*
X144610000Y-73375000D01*
X145712000Y-73375000D01*
X145712000Y-74377000D01*
G37*
G36*
X159047000Y-74377000D02*
G01*
X157945000Y-74377000D01*
X157945000Y-73375000D01*
X159047000Y-73375000D01*
X159047000Y-74377000D01*
G37*
G36*
X165397000Y-74377000D02*
G01*
X164295000Y-74377000D01*
X164295000Y-73375000D01*
X165397000Y-73375000D01*
X165397000Y-74377000D01*
G37*
G36*
X158441000Y-72382500D02*
G01*
X156519000Y-72382500D01*
X156519000Y-71260500D01*
X158441000Y-71260500D01*
X158441000Y-72382500D01*
G37*
G36*
X147239600Y-72382500D02*
G01*
X145317600Y-72382500D01*
X145317600Y-71260500D01*
X147239600Y-71260500D01*
X147239600Y-72382500D01*
G37*
G36*
X154621000Y-71436000D02*
G01*
X152719000Y-71436000D01*
X152719000Y-69534000D01*
X154621000Y-69534000D01*
X154621000Y-71436000D01*
G37*
G36*
X151407395Y-69570546D02*
G01*
X151580466Y-69642234D01*
X151657818Y-69693919D01*
X151736227Y-69746310D01*
X151868690Y-69878773D01*
X151868691Y-69878775D01*
X151972766Y-70034534D01*
X152044454Y-70207605D01*
X152081000Y-70391333D01*
X152081000Y-70578667D01*
X152044454Y-70762395D01*
X151972766Y-70935466D01*
X151972765Y-70935467D01*
X151868690Y-71091227D01*
X151736227Y-71223690D01*
X151681137Y-71260500D01*
X151580466Y-71327766D01*
X151407395Y-71399454D01*
X151223667Y-71436000D01*
X151036333Y-71436000D01*
X150852605Y-71399454D01*
X150679534Y-71327766D01*
X150578863Y-71260500D01*
X150523773Y-71223690D01*
X150391310Y-71091227D01*
X150287235Y-70935467D01*
X150287234Y-70935466D01*
X150215546Y-70762395D01*
X150179000Y-70578667D01*
X150179000Y-70391333D01*
X150215546Y-70207605D01*
X150287234Y-70034534D01*
X150391309Y-69878775D01*
X150391310Y-69878773D01*
X150523773Y-69746310D01*
X150602182Y-69693919D01*
X150679534Y-69642234D01*
X150852605Y-69570546D01*
X151036333Y-69534000D01*
X151223667Y-69534000D01*
X151407395Y-69570546D01*
G37*
G36*
X165684384Y-68111232D02*
G01*
X165749087Y-68130860D01*
X165808714Y-68162731D01*
X165860978Y-68205622D01*
X165903869Y-68257886D01*
X165935740Y-68317513D01*
X165955368Y-68382216D01*
X165962600Y-68455641D01*
X165962600Y-69384359D01*
X165955368Y-69457784D01*
X165935740Y-69522487D01*
X165903869Y-69582114D01*
X165860978Y-69634378D01*
X165808714Y-69677269D01*
X165749087Y-69709140D01*
X165684384Y-69728768D01*
X165610959Y-69736000D01*
X164482241Y-69736000D01*
X164408816Y-69728768D01*
X164344113Y-69709140D01*
X164284486Y-69677269D01*
X164232222Y-69634378D01*
X164189331Y-69582114D01*
X164157460Y-69522487D01*
X164137832Y-69457784D01*
X164130600Y-69384359D01*
X164130600Y-68455641D01*
X164137832Y-68382216D01*
X164157460Y-68317513D01*
X164189331Y-68257886D01*
X164232222Y-68205622D01*
X164284486Y-68162731D01*
X164344113Y-68130860D01*
X164408816Y-68111232D01*
X164482241Y-68104000D01*
X165610959Y-68104000D01*
X165684384Y-68111232D01*
G37*
G36*
X162284384Y-68111232D02*
G01*
X162349087Y-68130860D01*
X162408714Y-68162731D01*
X162460978Y-68205622D01*
X162503869Y-68257886D01*
X162535740Y-68317513D01*
X162555368Y-68382216D01*
X162562600Y-68455641D01*
X162562600Y-69384359D01*
X162555368Y-69457784D01*
X162535740Y-69522487D01*
X162503869Y-69582114D01*
X162460978Y-69634378D01*
X162408714Y-69677269D01*
X162349087Y-69709140D01*
X162284384Y-69728768D01*
X162210959Y-69736000D01*
X161082241Y-69736000D01*
X161008816Y-69728768D01*
X160944113Y-69709140D01*
X160884486Y-69677269D01*
X160832222Y-69634378D01*
X160789331Y-69582114D01*
X160757460Y-69522487D01*
X160737832Y-69457784D01*
X160730600Y-69384359D01*
X160730600Y-68455641D01*
X160737832Y-68382216D01*
X160757460Y-68317513D01*
X160789331Y-68257886D01*
X160832222Y-68205622D01*
X160884486Y-68162731D01*
X160944113Y-68130860D01*
X161008816Y-68111232D01*
X161082241Y-68104000D01*
X162210959Y-68104000D01*
X162284384Y-68111232D01*
G37*
G36*
X139272784Y-68111232D02*
G01*
X139337487Y-68130860D01*
X139397114Y-68162731D01*
X139449378Y-68205622D01*
X139492269Y-68257886D01*
X139524140Y-68317513D01*
X139543768Y-68382216D01*
X139551000Y-68455641D01*
X139551000Y-69384359D01*
X139543768Y-69457784D01*
X139524140Y-69522487D01*
X139492269Y-69582114D01*
X139449378Y-69634378D01*
X139397114Y-69677269D01*
X139337487Y-69709140D01*
X139272784Y-69728768D01*
X139199359Y-69736000D01*
X138070641Y-69736000D01*
X137997216Y-69728768D01*
X137932513Y-69709140D01*
X137872886Y-69677269D01*
X137820622Y-69634378D01*
X137777731Y-69582114D01*
X137745860Y-69522487D01*
X137726232Y-69457784D01*
X137719000Y-69384359D01*
X137719000Y-68455641D01*
X137726232Y-68382216D01*
X137745860Y-68317513D01*
X137777731Y-68257886D01*
X137820622Y-68205622D01*
X137872886Y-68162731D01*
X137932513Y-68130860D01*
X137997216Y-68111232D01*
X138070641Y-68104000D01*
X139199359Y-68104000D01*
X139272784Y-68111232D01*
G37*
G36*
X142672784Y-68111232D02*
G01*
X142737487Y-68130860D01*
X142797114Y-68162731D01*
X142849378Y-68205622D01*
X142892269Y-68257886D01*
X142924140Y-68317513D01*
X142943768Y-68382216D01*
X142951000Y-68455641D01*
X142951000Y-69384359D01*
X142943768Y-69457784D01*
X142924140Y-69522487D01*
X142892269Y-69582114D01*
X142849378Y-69634378D01*
X142797114Y-69677269D01*
X142737487Y-69709140D01*
X142672784Y-69728768D01*
X142599359Y-69736000D01*
X141470641Y-69736000D01*
X141397216Y-69728768D01*
X141332513Y-69709140D01*
X141272886Y-69677269D01*
X141220622Y-69634378D01*
X141177731Y-69582114D01*
X141145860Y-69522487D01*
X141126232Y-69457784D01*
X141119000Y-69384359D01*
X141119000Y-68455641D01*
X141126232Y-68382216D01*
X141145860Y-68317513D01*
X141177731Y-68257886D01*
X141220622Y-68205622D01*
X141272886Y-68162731D01*
X141332513Y-68130860D01*
X141397216Y-68111232D01*
X141470641Y-68104000D01*
X142599359Y-68104000D01*
X142672784Y-68111232D01*
G37*
G36*
X147239600Y-69582500D02*
G01*
X145317600Y-69582500D01*
X145317600Y-68460500D01*
X147239600Y-68460500D01*
X147239600Y-69582500D01*
G37*
G36*
X158441000Y-69582500D02*
G01*
X156519000Y-69582500D01*
X156519000Y-68460500D01*
X158441000Y-68460500D01*
X158441000Y-69582500D01*
G37*
G36*
X142047784Y-66161232D02*
G01*
X142112487Y-66180860D01*
X142172114Y-66212731D01*
X142224378Y-66255622D01*
X142267269Y-66307886D01*
X142299140Y-66367513D01*
X142318768Y-66432216D01*
X142326000Y-66505641D01*
X142326000Y-67434359D01*
X142318768Y-67507784D01*
X142299140Y-67572487D01*
X142267269Y-67632114D01*
X142224378Y-67684378D01*
X142172114Y-67727269D01*
X142112487Y-67759140D01*
X142047784Y-67778768D01*
X141974359Y-67786000D01*
X140845641Y-67786000D01*
X140772216Y-67778768D01*
X140707513Y-67759140D01*
X140647886Y-67727269D01*
X140595622Y-67684378D01*
X140552731Y-67632114D01*
X140520860Y-67572487D01*
X140501232Y-67507784D01*
X140494000Y-67434359D01*
X140494000Y-66505641D01*
X140501232Y-66432216D01*
X140520860Y-66367513D01*
X140552731Y-66307886D01*
X140595622Y-66255622D01*
X140647886Y-66212731D01*
X140707513Y-66180860D01*
X140772216Y-66161232D01*
X140845641Y-66154000D01*
X141974359Y-66154000D01*
X142047784Y-66161232D01*
G37*
G36*
X165059384Y-66161232D02*
G01*
X165124087Y-66180860D01*
X165183714Y-66212731D01*
X165235978Y-66255622D01*
X165278869Y-66307886D01*
X165310740Y-66367513D01*
X165330368Y-66432216D01*
X165337600Y-66505641D01*
X165337600Y-67434359D01*
X165330368Y-67507784D01*
X165310740Y-67572487D01*
X165278869Y-67632114D01*
X165235978Y-67684378D01*
X165183714Y-67727269D01*
X165124087Y-67759140D01*
X165059384Y-67778768D01*
X164985959Y-67786000D01*
X163857241Y-67786000D01*
X163783816Y-67778768D01*
X163719113Y-67759140D01*
X163659486Y-67727269D01*
X163607222Y-67684378D01*
X163564331Y-67632114D01*
X163532460Y-67572487D01*
X163512832Y-67507784D01*
X163505600Y-67434359D01*
X163505600Y-66505641D01*
X163512832Y-66432216D01*
X163532460Y-66367513D01*
X163564331Y-66307886D01*
X163607222Y-66255622D01*
X163659486Y-66212731D01*
X163719113Y-66180860D01*
X163783816Y-66161232D01*
X163857241Y-66154000D01*
X164985959Y-66154000D01*
X165059384Y-66161232D01*
G37*
G36*
X162909384Y-66161232D02*
G01*
X162974087Y-66180860D01*
X163033714Y-66212731D01*
X163085978Y-66255622D01*
X163128869Y-66307886D01*
X163160740Y-66367513D01*
X163180368Y-66432216D01*
X163187600Y-66505641D01*
X163187600Y-67434359D01*
X163180368Y-67507784D01*
X163160740Y-67572487D01*
X163128869Y-67632114D01*
X163085978Y-67684378D01*
X163033714Y-67727269D01*
X162974087Y-67759140D01*
X162909384Y-67778768D01*
X162835959Y-67786000D01*
X161707241Y-67786000D01*
X161633816Y-67778768D01*
X161569113Y-67759140D01*
X161509486Y-67727269D01*
X161457222Y-67684378D01*
X161414331Y-67632114D01*
X161382460Y-67572487D01*
X161362832Y-67507784D01*
X161355600Y-67434359D01*
X161355600Y-66505641D01*
X161362832Y-66432216D01*
X161382460Y-66367513D01*
X161414331Y-66307886D01*
X161457222Y-66255622D01*
X161509486Y-66212731D01*
X161569113Y-66180860D01*
X161633816Y-66161232D01*
X161707241Y-66154000D01*
X162835959Y-66154000D01*
X162909384Y-66161232D01*
G37*
G36*
X139897784Y-66161232D02*
G01*
X139962487Y-66180860D01*
X140022114Y-66212731D01*
X140074378Y-66255622D01*
X140117269Y-66307886D01*
X140149140Y-66367513D01*
X140168768Y-66432216D01*
X140176000Y-66505641D01*
X140176000Y-67434359D01*
X140168768Y-67507784D01*
X140149140Y-67572487D01*
X140117269Y-67632114D01*
X140074378Y-67684378D01*
X140022114Y-67727269D01*
X139962487Y-67759140D01*
X139897784Y-67778768D01*
X139824359Y-67786000D01*
X138695641Y-67786000D01*
X138622216Y-67778768D01*
X138557513Y-67759140D01*
X138497886Y-67727269D01*
X138445622Y-67684378D01*
X138402731Y-67632114D01*
X138370860Y-67572487D01*
X138351232Y-67507784D01*
X138344000Y-67434359D01*
X138344000Y-66505641D01*
X138351232Y-66432216D01*
X138370860Y-66367513D01*
X138402731Y-66307886D01*
X138445622Y-66255622D01*
X138497886Y-66212731D01*
X138557513Y-66180860D01*
X138622216Y-66161232D01*
X138695641Y-66154000D01*
X139824359Y-66154000D01*
X139897784Y-66161232D01*
G37*
G36*
X158156000Y-67291000D02*
G01*
X156804000Y-67291000D01*
X156804000Y-66589000D01*
X158156000Y-66589000D01*
X158156000Y-67291000D01*
G37*
G36*
X154621000Y-66737000D02*
G01*
X152719000Y-66737000D01*
X152719000Y-64835000D01*
X154621000Y-64835000D01*
X154621000Y-66737000D01*
G37*
G36*
X151407395Y-64871546D02*
G01*
X151580466Y-64943234D01*
X151657818Y-64994919D01*
X151736227Y-65047310D01*
X151868690Y-65179773D01*
X151868691Y-65179775D01*
X151972766Y-65335534D01*
X152044454Y-65508605D01*
X152081000Y-65692333D01*
X152081000Y-65879667D01*
X152044454Y-66063395D01*
X151972766Y-66236466D01*
X151925045Y-66307886D01*
X151868690Y-66392227D01*
X151736227Y-66524690D01*
X151680388Y-66562000D01*
X151580466Y-66628766D01*
X151407395Y-66700454D01*
X151223667Y-66737000D01*
X151036333Y-66737000D01*
X150852605Y-66700454D01*
X150679534Y-66628766D01*
X150579612Y-66562000D01*
X150523773Y-66524690D01*
X150391310Y-66392227D01*
X150334955Y-66307886D01*
X150287234Y-66236466D01*
X150215546Y-66063395D01*
X150179000Y-65879667D01*
X150179000Y-65692333D01*
X150215546Y-65508605D01*
X150287234Y-65335534D01*
X150391309Y-65179775D01*
X150391310Y-65179773D01*
X150523773Y-65047310D01*
X150602182Y-64994919D01*
X150679534Y-64943234D01*
X150852605Y-64871546D01*
X151036333Y-64835000D01*
X151223667Y-64835000D01*
X151407395Y-64871546D01*
G37*
G36*
X158156000Y-65491000D02*
G01*
X156804000Y-65491000D01*
X156804000Y-64789000D01*
X158156000Y-64789000D01*
X158156000Y-65491000D01*
G37*
G36*
X167785843Y-64035214D02*
G01*
X167785846Y-64035215D01*
X167785845Y-64035215D01*
X167876839Y-64072906D01*
X167918063Y-64100451D01*
X167958730Y-64127624D01*
X168028376Y-64197270D01*
X168083095Y-64279163D01*
X168120786Y-64370157D01*
X168140000Y-64466753D01*
X168140000Y-64565247D01*
X168120786Y-64661843D01*
X168120785Y-64661845D01*
X168083094Y-64752839D01*
X168028375Y-64834731D01*
X167958731Y-64904375D01*
X167876839Y-64959094D01*
X167876838Y-64959095D01*
X167876837Y-64959095D01*
X167785843Y-64996786D01*
X167689247Y-65016000D01*
X167590753Y-65016000D01*
X167494157Y-64996786D01*
X167403163Y-64959095D01*
X167403162Y-64959095D01*
X167403161Y-64959094D01*
X167321269Y-64904375D01*
X167251625Y-64834731D01*
X167196906Y-64752839D01*
X167159215Y-64661845D01*
X167159214Y-64661843D01*
X167140000Y-64565247D01*
X167140000Y-64466753D01*
X167159214Y-64370157D01*
X167196905Y-64279163D01*
X167251624Y-64197270D01*
X167321270Y-64127624D01*
X167361937Y-64100451D01*
X167403161Y-64072906D01*
X167494155Y-64035215D01*
X167494154Y-64035215D01*
X167494157Y-64035214D01*
X167590753Y-64016000D01*
X167689247Y-64016000D01*
X167785843Y-64035214D01*
G37*
M02*
