M48
; DRILL file {KiCad (5.1.5)-3} date 08/07/2020 18:31:11
; FORMAT={-:-/ absolute / inch / decimal}
; #@! TF.CreationDate,2020-07-08T18:31:11-03:00
; #@! TF.GenerationSoftware,Kicad,Pcbnew,(5.1.5)-3
; #@! TF.FileFunction,Plated,1,4,PTH
FMAT,2
INCH
T1C0.0157
T2C0.0276
T3C0.0297
T4C0.0354
T5C0.0400
T6C0.0531
%
G90
G05
T1
X5.41Y-3.3275
X5.415Y-3.275
X5.416Y-2.959
X5.464Y-2.959
X5.465Y-3.253
X5.515Y-2.959
X5.515Y-3.275
X5.515Y-3.3275
X5.664Y-2.959
X5.665Y-3.275
X5.665Y-3.3275
X5.6815Y-3.6965
X5.6815Y-3.768
X5.682Y-3.858
X5.682Y-3.952
X5.714Y-2.959
X5.714Y-3.253
X5.719Y-3.545
X5.764Y-2.959
X5.765Y-3.275
X5.77Y-3.3275
X5.7887Y-3.545
X5.7943Y-3.7806
X5.805Y-4.04
X5.808Y-3.915
X5.809Y-3.4495
X5.814Y-3.6775
X5.814Y-3.591
X5.814Y-3.747
X5.83Y-3.396
X5.8405Y-3.45
X5.845Y-3.916
X5.862Y-3.3275
X5.869Y-3.593
X5.871Y-3.646
X5.872Y-3.731
X5.872Y-3.799
X5.874Y-3.45
X5.8815Y-4.0402
X5.886Y-3.853
X5.894Y-3.916
X5.9065Y-3.45
X5.909Y-3.689
X5.909Y-3.765
X5.945Y-3.028
X5.946Y-3.731
X5.946Y-3.799
X5.954Y-3.5854
X5.954Y-3.649
X5.966Y-3.854
X5.966Y-3.918
X5.975Y-3.689
X5.975Y-3.764
X6.006Y-3.4495
X6.007Y-3.396
X6.025Y-4.496
X6.0375Y-3.45
X6.041Y-3.028
X6.05Y-4.196
X6.05Y-4.257
X6.069Y-3.5937
X6.069Y-3.649
X6.069Y-3.689
X6.069Y-3.731
X6.069Y-3.799
X6.071Y-3.45
X6.076Y-3.851
X6.09Y-3.3315
X6.1035Y-3.45
X6.125Y-2.563
X6.125Y-3.916
X6.128Y-3.8
X6.129Y-3.675
X6.1347Y-3.64
X6.14Y-4.5615
X6.165Y-4.245
X6.166Y-4.302
X6.178Y-4.625
X6.189Y-2.959
X6.19Y-3.275
X6.19Y-3.3315
X6.2Y-2.563
X6.239Y-2.959
X6.239Y-4.073
X6.24Y-3.253
X6.24Y-4.126
X6.24Y-4.625
X6.2405Y-4.498
X6.2749Y-3.82
X6.275Y-2.563
X6.275Y-3.764
X6.276Y-3.878
X6.277Y-3.616
X6.277Y-3.6565
X6.289Y-2.959
X6.295Y-3.275
X6.295Y-3.3315
X6.295Y-3.524
X6.309Y-3.672
X6.341Y-4.078
X6.341Y-4.122
X6.369Y-3.625
X6.41Y-4.078
X6.41Y-4.122
X6.414Y-4.248
X6.415Y-4.305
X6.431Y-3.7
X6.439Y-2.959
X6.44Y-3.275
X6.44Y-3.3315
X6.489Y-2.959
X6.49Y-3.209
X6.506Y-4.326
X6.5317Y-4.5567
X6.54Y-3.275
X6.54Y-3.3315
X6.541Y-2.959
X6.559Y-4.326
X6.593Y-3.475
T2
X5.75Y-4.575
X5.75Y-4.6537
T3
X5.469Y-3.52
X5.469Y-3.7121
T4
X5.95Y-2.59
X6.05Y-2.59
X5.95Y-2.775
X6.05Y-2.775
X5.925Y-4.725
X6.025Y-4.725
X5.925Y-4.91
X6.025Y-4.91
T5
X5.55Y-4.175
X5.55Y-4.275
X5.65Y-4.175
X5.65Y-4.275
X5.75Y-4.175
X5.75Y-4.275
X5.85Y-4.175
X5.85Y-4.275
X5.95Y-4.175
X5.95Y-4.275
T6
X5.4581Y-4.7366
X5.4827Y-4.8134
X5.5673Y-4.8134
X5.5919Y-4.7366
X6.3621Y-4.7386
X6.3867Y-4.8154
X6.4713Y-4.8154
X6.4959Y-4.7386
X6.364Y-2.7134
X6.3886Y-2.6366
X6.4733Y-2.6366
X6.4979Y-2.7134
X5.4581Y-2.7134
X5.4827Y-2.6366
X5.5673Y-2.6366
X5.5919Y-2.7134
T0
M30
