G04 #@! TF.GenerationSoftware,KiCad,Pcbnew,(5.1.5)-3*
G04 #@! TF.CreationDate,2020-07-08T18:31:05-03:00*
G04 #@! TF.ProjectId,EEN60002020,45454e36-3030-4303-9230-32302e6b6963,rev?*
G04 #@! TF.SameCoordinates,Original*
G04 #@! TF.FileFunction,Paste,Bot*
G04 #@! TF.FilePolarity,Positive*
%FSLAX46Y46*%
G04 Gerber Fmt 4.6, Leading zero omitted, Abs format (unit mm)*
G04 Created by KiCad (PCBNEW (5.1.5)-3) date 2020-07-08 18:31:05*
%MOMM*%
%LPD*%
G04 APERTURE LIST*
%ADD10C,0.100000*%
%ADD11R,1.000000X0.900000*%
%ADD12R,1.250000X0.600000*%
%ADD13R,1.820000X1.020000*%
%ADD14R,0.940000X0.750000*%
%ADD15R,0.900000X1.000000*%
%ADD16R,0.939800X0.762000*%
%ADD17R,0.700000X0.650000*%
%ADD18R,0.750000X0.940000*%
G04 APERTURE END LIST*
D10*
G36*
X158685491Y-117001053D02*
G01*
X158706726Y-117004203D01*
X158727550Y-117009419D01*
X158747762Y-117016651D01*
X158767168Y-117025830D01*
X158785581Y-117036866D01*
X158802824Y-117049654D01*
X158818730Y-117064070D01*
X158833146Y-117079976D01*
X158845934Y-117097219D01*
X158856970Y-117115632D01*
X158866149Y-117135038D01*
X158873381Y-117155250D01*
X158878597Y-117176074D01*
X158881747Y-117197309D01*
X158882800Y-117218750D01*
X158882800Y-117731250D01*
X158881747Y-117752691D01*
X158878597Y-117773926D01*
X158873381Y-117794750D01*
X158866149Y-117814962D01*
X158856970Y-117834368D01*
X158845934Y-117852781D01*
X158833146Y-117870024D01*
X158818730Y-117885930D01*
X158802824Y-117900346D01*
X158785581Y-117913134D01*
X158767168Y-117924170D01*
X158747762Y-117933349D01*
X158727550Y-117940581D01*
X158706726Y-117945797D01*
X158685491Y-117948947D01*
X158664050Y-117950000D01*
X158226550Y-117950000D01*
X158205109Y-117948947D01*
X158183874Y-117945797D01*
X158163050Y-117940581D01*
X158142838Y-117933349D01*
X158123432Y-117924170D01*
X158105019Y-117913134D01*
X158087776Y-117900346D01*
X158071870Y-117885930D01*
X158057454Y-117870024D01*
X158044666Y-117852781D01*
X158033630Y-117834368D01*
X158024451Y-117814962D01*
X158017219Y-117794750D01*
X158012003Y-117773926D01*
X158008853Y-117752691D01*
X158007800Y-117731250D01*
X158007800Y-117218750D01*
X158008853Y-117197309D01*
X158012003Y-117176074D01*
X158017219Y-117155250D01*
X158024451Y-117135038D01*
X158033630Y-117115632D01*
X158044666Y-117097219D01*
X158057454Y-117079976D01*
X158071870Y-117064070D01*
X158087776Y-117049654D01*
X158105019Y-117036866D01*
X158123432Y-117025830D01*
X158142838Y-117016651D01*
X158163050Y-117009419D01*
X158183874Y-117004203D01*
X158205109Y-117001053D01*
X158226550Y-117000000D01*
X158664050Y-117000000D01*
X158685491Y-117001053D01*
G37*
G36*
X157110491Y-117001053D02*
G01*
X157131726Y-117004203D01*
X157152550Y-117009419D01*
X157172762Y-117016651D01*
X157192168Y-117025830D01*
X157210581Y-117036866D01*
X157227824Y-117049654D01*
X157243730Y-117064070D01*
X157258146Y-117079976D01*
X157270934Y-117097219D01*
X157281970Y-117115632D01*
X157291149Y-117135038D01*
X157298381Y-117155250D01*
X157303597Y-117176074D01*
X157306747Y-117197309D01*
X157307800Y-117218750D01*
X157307800Y-117731250D01*
X157306747Y-117752691D01*
X157303597Y-117773926D01*
X157298381Y-117794750D01*
X157291149Y-117814962D01*
X157281970Y-117834368D01*
X157270934Y-117852781D01*
X157258146Y-117870024D01*
X157243730Y-117885930D01*
X157227824Y-117900346D01*
X157210581Y-117913134D01*
X157192168Y-117924170D01*
X157172762Y-117933349D01*
X157152550Y-117940581D01*
X157131726Y-117945797D01*
X157110491Y-117948947D01*
X157089050Y-117950000D01*
X156651550Y-117950000D01*
X156630109Y-117948947D01*
X156608874Y-117945797D01*
X156588050Y-117940581D01*
X156567838Y-117933349D01*
X156548432Y-117924170D01*
X156530019Y-117913134D01*
X156512776Y-117900346D01*
X156496870Y-117885930D01*
X156482454Y-117870024D01*
X156469666Y-117852781D01*
X156458630Y-117834368D01*
X156449451Y-117814962D01*
X156442219Y-117794750D01*
X156437003Y-117773926D01*
X156433853Y-117752691D01*
X156432800Y-117731250D01*
X156432800Y-117218750D01*
X156433853Y-117197309D01*
X156437003Y-117176074D01*
X156442219Y-117155250D01*
X156449451Y-117135038D01*
X156458630Y-117115632D01*
X156469666Y-117097219D01*
X156482454Y-117079976D01*
X156496870Y-117064070D01*
X156512776Y-117049654D01*
X156530019Y-117036866D01*
X156548432Y-117025830D01*
X156567838Y-117016651D01*
X156588050Y-117009419D01*
X156608874Y-117004203D01*
X156630109Y-117001053D01*
X156651550Y-117000000D01*
X157089050Y-117000000D01*
X157110491Y-117001053D01*
G37*
D11*
X153670000Y-108165800D03*
X153670000Y-106565800D03*
D12*
X157480000Y-66940000D03*
X157480000Y-65140000D03*
D13*
X146278600Y-69021500D03*
X146278600Y-71821500D03*
X157480000Y-69021500D03*
X157480000Y-71821500D03*
D14*
X141986000Y-84245000D03*
X141986000Y-82845000D03*
X161671000Y-84245000D03*
X161671000Y-82845000D03*
X146558000Y-86295000D03*
X146558000Y-87695000D03*
X157226000Y-86295000D03*
X157226000Y-87695000D03*
X143891000Y-86295000D03*
X143891000Y-87695000D03*
X159893000Y-86295000D03*
X159893000Y-87695000D03*
X140081000Y-86295000D03*
X140081000Y-87695000D03*
X163576000Y-86295000D03*
X163576000Y-87695000D03*
X137414000Y-86295000D03*
X137414000Y-87695000D03*
X166116000Y-86295000D03*
X166116000Y-87695000D03*
X151231600Y-91222600D03*
X151231600Y-92622600D03*
X154203400Y-91222600D03*
X154203400Y-92622600D03*
D11*
X138811000Y-73876000D03*
X138811000Y-75476000D03*
X158496000Y-73876000D03*
X158496000Y-75476000D03*
X145161000Y-75476000D03*
X145161000Y-73876000D03*
X164846000Y-73876000D03*
X164846000Y-75476000D03*
X148971000Y-84620000D03*
X148971000Y-83020000D03*
X154686000Y-84620000D03*
X154686000Y-83020000D03*
X146558000Y-84620000D03*
X146558000Y-83020000D03*
X166116000Y-84620000D03*
X166116000Y-83020000D03*
X143891000Y-84620000D03*
X143891000Y-83020000D03*
X163576000Y-84620000D03*
X163576000Y-83020000D03*
X140081000Y-84620000D03*
X140081000Y-83020000D03*
X159893000Y-84620000D03*
X159893000Y-83020000D03*
X137414000Y-84620000D03*
X137414000Y-83020000D03*
X157226000Y-84620000D03*
X157226000Y-83020000D03*
D15*
X144487800Y-100355400D03*
X142887800Y-100355400D03*
D16*
X153416000Y-76911200D03*
X153416000Y-75234800D03*
D11*
X151003000Y-76873000D03*
X151003000Y-75273000D03*
D17*
X156591000Y-109260000D03*
X156591000Y-107910000D03*
X158445200Y-104815000D03*
X158445200Y-103465000D03*
X162941000Y-107910000D03*
X162941000Y-109260000D03*
D14*
X155511500Y-98041000D03*
X155511500Y-99441000D03*
D18*
X155640000Y-96520000D03*
X154240000Y-96520000D03*
D14*
X149479000Y-99506000D03*
X149479000Y-98106000D03*
X151511000Y-99506000D03*
X151511000Y-98106000D03*
D18*
X144303300Y-98018600D03*
X142903300Y-98018600D03*
X147686800Y-91313000D03*
X149086800Y-91313000D03*
X144303300Y-95808800D03*
X142903300Y-95808800D03*
X147674100Y-94970600D03*
X149074100Y-94970600D03*
X144303300Y-93903800D03*
X142903300Y-93903800D03*
X147674100Y-93116400D03*
X149074100Y-93116400D03*
M02*
