G04 #@! TF.GenerationSoftware,KiCad,Pcbnew,(5.1.5)-3*
G04 #@! TF.CreationDate,2020-07-08T18:31:05-03:00*
G04 #@! TF.ProjectId,EEN60002020,45454e36-3030-4303-9230-32302e6b6963,rev?*
G04 #@! TF.SameCoordinates,Original*
G04 #@! TF.FileFunction,Legend,Top*
G04 #@! TF.FilePolarity,Positive*
%FSLAX46Y46*%
G04 Gerber Fmt 4.6, Leading zero omitted, Abs format (unit mm)*
G04 Created by KiCad (PCBNEW (5.1.5)-3) date 2020-07-08 18:31:05*
%MOMM*%
%LPD*%
G04 APERTURE LIST*
%ADD10C,0.150000*%
%ADD11C,0.120000*%
%ADD12C,0.010000*%
%ADD13C,0.200000*%
%ADD14C,0.152400*%
%ADD15C,0.250000*%
%ADD16C,0.100000*%
%ADD17C,0.254000*%
G04 APERTURE END LIST*
D10*
X144835619Y-126167876D02*
X144788000Y-126120257D01*
X144740380Y-126025019D01*
X144740380Y-125786923D01*
X144788000Y-125691685D01*
X144835619Y-125644066D01*
X144930857Y-125596447D01*
X145026095Y-125596447D01*
X145168952Y-125644066D01*
X145740380Y-126215495D01*
X145740380Y-125596447D01*
X145073714Y-124739304D02*
X145740380Y-124739304D01*
X144692761Y-124977400D02*
X145407047Y-125215495D01*
X145407047Y-124596447D01*
X144740380Y-124358352D02*
X145740380Y-124025019D01*
X144740380Y-123691685D01*
X145740380Y-123358352D02*
X144740380Y-123358352D01*
X144740380Y-123120257D01*
X144788000Y-122977400D01*
X144883238Y-122882161D01*
X144978476Y-122834542D01*
X145168952Y-122786923D01*
X145311809Y-122786923D01*
X145502285Y-122834542D01*
X145597523Y-122882161D01*
X145692761Y-122977400D01*
X145740380Y-123120257D01*
X145740380Y-123358352D01*
X145645142Y-121786923D02*
X145692761Y-121834542D01*
X145740380Y-121977400D01*
X145740380Y-122072638D01*
X145692761Y-122215495D01*
X145597523Y-122310733D01*
X145502285Y-122358352D01*
X145311809Y-122405971D01*
X145168952Y-122405971D01*
X144978476Y-122358352D01*
X144883238Y-122310733D01*
X144788000Y-122215495D01*
X144740380Y-122072638D01*
X144740380Y-121977400D01*
X144788000Y-121834542D01*
X144835619Y-121786923D01*
D11*
X144576800Y-120700800D02*
X145211800Y-121462800D01*
X144957800Y-119811800D02*
X144957800Y-120700800D01*
X145846800Y-120700800D02*
X145211800Y-121462800D01*
X144957800Y-119811800D02*
X145465800Y-119811800D01*
X145465800Y-120700800D02*
X145846800Y-120700800D01*
X144957800Y-120700800D02*
X144576800Y-120700800D01*
X145465800Y-119811800D02*
X145465800Y-120700800D01*
D10*
X157789619Y-126142476D02*
X157742000Y-126094857D01*
X157694380Y-125999619D01*
X157694380Y-125761523D01*
X157742000Y-125666285D01*
X157789619Y-125618666D01*
X157884857Y-125571047D01*
X157980095Y-125571047D01*
X158122952Y-125618666D01*
X158694380Y-126190095D01*
X158694380Y-125571047D01*
X158027714Y-124713904D02*
X158694380Y-124713904D01*
X157646761Y-124952000D02*
X158361047Y-125190095D01*
X158361047Y-124571047D01*
X157694380Y-124332952D02*
X158694380Y-123999619D01*
X157694380Y-123666285D01*
X158694380Y-123332952D02*
X157694380Y-123332952D01*
X157694380Y-123094857D01*
X157742000Y-122952000D01*
X157837238Y-122856761D01*
X157932476Y-122809142D01*
X158122952Y-122761523D01*
X158265809Y-122761523D01*
X158456285Y-122809142D01*
X158551523Y-122856761D01*
X158646761Y-122952000D01*
X158694380Y-123094857D01*
X158694380Y-123332952D01*
X158599142Y-121761523D02*
X158646761Y-121809142D01*
X158694380Y-121952000D01*
X158694380Y-122047238D01*
X158646761Y-122190095D01*
X158551523Y-122285333D01*
X158456285Y-122332952D01*
X158265809Y-122380571D01*
X158122952Y-122380571D01*
X157932476Y-122332952D01*
X157837238Y-122285333D01*
X157742000Y-122190095D01*
X157694380Y-122047238D01*
X157694380Y-121952000D01*
X157742000Y-121809142D01*
X157789619Y-121761523D01*
D11*
X158826200Y-120396000D02*
X158191200Y-119634000D01*
X158445200Y-121285000D02*
X157937200Y-121285000D01*
X157937200Y-121285000D02*
X157937200Y-120396000D01*
X157937200Y-120396000D02*
X157556200Y-120396000D01*
X158445200Y-120396000D02*
X158826200Y-120396000D01*
X157556200Y-120396000D02*
X158191200Y-119634000D01*
X158445200Y-121285000D02*
X158445200Y-120396000D01*
D10*
X156849819Y-106159085D02*
X156802200Y-106111466D01*
X156754580Y-106016228D01*
X156754580Y-105778133D01*
X156802200Y-105682895D01*
X156849819Y-105635276D01*
X156945057Y-105587657D01*
X157040295Y-105587657D01*
X157183152Y-105635276D01*
X157754580Y-106206704D01*
X157754580Y-105587657D01*
X157468866Y-105206704D02*
X157468866Y-104730514D01*
X157754580Y-105301942D02*
X156754580Y-104968609D01*
X157754580Y-104635276D01*
X157754580Y-103730514D02*
X157278390Y-104063847D01*
X157754580Y-104301942D02*
X156754580Y-104301942D01*
X156754580Y-103920990D01*
X156802200Y-103825752D01*
X156849819Y-103778133D01*
X156945057Y-103730514D01*
X157087914Y-103730514D01*
X157183152Y-103778133D01*
X157230771Y-103825752D01*
X157278390Y-103920990D01*
X157278390Y-104301942D01*
X157659342Y-102730514D02*
X157706961Y-102778133D01*
X157754580Y-102920990D01*
X157754580Y-103016228D01*
X157706961Y-103159085D01*
X157611723Y-103254323D01*
X157516485Y-103301942D01*
X157326009Y-103349561D01*
X157183152Y-103349561D01*
X156992676Y-103301942D01*
X156897438Y-103254323D01*
X156802200Y-103159085D01*
X156754580Y-103016228D01*
X156754580Y-102920990D01*
X156802200Y-102778133D01*
X156849819Y-102730514D01*
X164528476Y-123864714D02*
X164528476Y-124531380D01*
X164290380Y-123483761D02*
X164052285Y-124198047D01*
X164671333Y-124198047D01*
X163242666Y-119848380D02*
X163861714Y-119848380D01*
X163528380Y-120229333D01*
X163671238Y-120229333D01*
X163766476Y-120276952D01*
X163814095Y-120324571D01*
X163861714Y-120419809D01*
X163861714Y-120657904D01*
X163814095Y-120753142D01*
X163766476Y-120800761D01*
X163671238Y-120848380D01*
X163385523Y-120848380D01*
X163290285Y-120800761D01*
X163242666Y-120753142D01*
X161012285Y-123531380D02*
X161012285Y-124340904D01*
X161059904Y-124436142D01*
X161107523Y-124483761D01*
X161202761Y-124531380D01*
X161393238Y-124531380D01*
X161488476Y-124483761D01*
X161536095Y-124436142D01*
X161583714Y-124340904D01*
X161583714Y-123531380D01*
X162059904Y-124531380D02*
X162059904Y-123531380D01*
X162440857Y-123531380D01*
X162536095Y-123579000D01*
X162583714Y-123626619D01*
X162631333Y-123721857D01*
X162631333Y-123864714D01*
X162583714Y-123959952D01*
X162536095Y-124007571D01*
X162440857Y-124055190D01*
X162059904Y-124055190D01*
X160528095Y-116800380D02*
X160528095Y-117609904D01*
X160575714Y-117705142D01*
X160623333Y-117752761D01*
X160718571Y-117800380D01*
X160909047Y-117800380D01*
X161004285Y-117752761D01*
X161051904Y-117705142D01*
X161099523Y-117609904D01*
X161099523Y-116800380D01*
X161528095Y-117752761D02*
X161670952Y-117800380D01*
X161909047Y-117800380D01*
X162004285Y-117752761D01*
X162051904Y-117705142D01*
X162099523Y-117609904D01*
X162099523Y-117514666D01*
X162051904Y-117419428D01*
X162004285Y-117371809D01*
X161909047Y-117324190D01*
X161718571Y-117276571D01*
X161623333Y-117228952D01*
X161575714Y-117181333D01*
X161528095Y-117086095D01*
X161528095Y-116990857D01*
X161575714Y-116895619D01*
X161623333Y-116848000D01*
X161718571Y-116800380D01*
X161956666Y-116800380D01*
X162099523Y-116848000D01*
X139382476Y-123864714D02*
X139382476Y-124531380D01*
X139144380Y-123483761D02*
X138906285Y-124198047D01*
X139525333Y-124198047D01*
X139747666Y-119848380D02*
X140366714Y-119848380D01*
X140033380Y-120229333D01*
X140176238Y-120229333D01*
X140271476Y-120276952D01*
X140319095Y-120324571D01*
X140366714Y-120419809D01*
X140366714Y-120657904D01*
X140319095Y-120753142D01*
X140271476Y-120800761D01*
X140176238Y-120848380D01*
X139890523Y-120848380D01*
X139795285Y-120800761D01*
X139747666Y-120753142D01*
X141200285Y-123531380D02*
X141200285Y-124340904D01*
X141247904Y-124436142D01*
X141295523Y-124483761D01*
X141390761Y-124531380D01*
X141581238Y-124531380D01*
X141676476Y-124483761D01*
X141724095Y-124436142D01*
X141771714Y-124340904D01*
X141771714Y-123531380D01*
X142247904Y-124531380D02*
X142247904Y-123531380D01*
X142628857Y-123531380D01*
X142724095Y-123579000D01*
X142771714Y-123626619D01*
X142819333Y-123721857D01*
X142819333Y-123864714D01*
X142771714Y-123959952D01*
X142724095Y-124007571D01*
X142628857Y-124055190D01*
X142247904Y-124055190D01*
X140843095Y-116673380D02*
X140843095Y-117482904D01*
X140890714Y-117578142D01*
X140938333Y-117625761D01*
X141033571Y-117673380D01*
X141224047Y-117673380D01*
X141319285Y-117625761D01*
X141366904Y-117578142D01*
X141414523Y-117482904D01*
X141414523Y-116673380D01*
X141843095Y-117625761D02*
X141985952Y-117673380D01*
X142224047Y-117673380D01*
X142319285Y-117625761D01*
X142366904Y-117578142D01*
X142414523Y-117482904D01*
X142414523Y-117387666D01*
X142366904Y-117292428D01*
X142319285Y-117244809D01*
X142224047Y-117197190D01*
X142033571Y-117149571D01*
X141938333Y-117101952D01*
X141890714Y-117054333D01*
X141843095Y-116959095D01*
X141843095Y-116863857D01*
X141890714Y-116768619D01*
X141938333Y-116721000D01*
X142033571Y-116673380D01*
X142271666Y-116673380D01*
X142414523Y-116721000D01*
X137168095Y-124976000D02*
X137072857Y-124928380D01*
X136930000Y-124928380D01*
X136787142Y-124976000D01*
X136691904Y-125071238D01*
X136644285Y-125166476D01*
X136596666Y-125356952D01*
X136596666Y-125499809D01*
X136644285Y-125690285D01*
X136691904Y-125785523D01*
X136787142Y-125880761D01*
X136930000Y-125928380D01*
X137025238Y-125928380D01*
X137168095Y-125880761D01*
X137215714Y-125833142D01*
X137215714Y-125499809D01*
X137025238Y-125499809D01*
X137644285Y-125928380D02*
X137644285Y-124928380D01*
X138215714Y-125928380D01*
X138215714Y-124928380D01*
X138691904Y-125928380D02*
X138691904Y-124928380D01*
X138930000Y-124928380D01*
X139072857Y-124976000D01*
X139168095Y-125071238D01*
X139215714Y-125166476D01*
X139263333Y-125356952D01*
X139263333Y-125499809D01*
X139215714Y-125690285D01*
X139168095Y-125785523D01*
X139072857Y-125880761D01*
X138930000Y-125928380D01*
X138691904Y-125928380D01*
X139691904Y-125928380D02*
X139691904Y-124928380D01*
X140072857Y-124928380D01*
X140168095Y-124976000D01*
X140215714Y-125023619D01*
X140263333Y-125118857D01*
X140263333Y-125261714D01*
X140215714Y-125356952D01*
X140168095Y-125404571D01*
X140072857Y-125452190D01*
X139691904Y-125452190D01*
X136533000Y-121761095D02*
X136485380Y-121856333D01*
X136485380Y-121999190D01*
X136533000Y-122142047D01*
X136628238Y-122237285D01*
X136723476Y-122284904D01*
X136913952Y-122332523D01*
X137056809Y-122332523D01*
X137247285Y-122284904D01*
X137342523Y-122237285D01*
X137437761Y-122142047D01*
X137485380Y-121999190D01*
X137485380Y-121903952D01*
X137437761Y-121761095D01*
X137390142Y-121713476D01*
X137056809Y-121713476D01*
X137056809Y-121903952D01*
X137485380Y-121284904D02*
X136485380Y-121284904D01*
X137485380Y-120713476D01*
X136485380Y-120713476D01*
X137485380Y-120237285D02*
X136485380Y-120237285D01*
X136485380Y-119999190D01*
X136533000Y-119856333D01*
X136628238Y-119761095D01*
X136723476Y-119713476D01*
X136913952Y-119665857D01*
X137056809Y-119665857D01*
X137247285Y-119713476D01*
X137342523Y-119761095D01*
X137437761Y-119856333D01*
X137485380Y-119999190D01*
X137485380Y-120237285D01*
X137437761Y-119284904D02*
X137485380Y-119142047D01*
X137485380Y-118903952D01*
X137437761Y-118808714D01*
X137390142Y-118761095D01*
X137294904Y-118713476D01*
X137199666Y-118713476D01*
X137104428Y-118761095D01*
X137056809Y-118808714D01*
X137009190Y-118903952D01*
X136961571Y-119094428D01*
X136913952Y-119189666D01*
X136866333Y-119237285D01*
X136771095Y-119284904D01*
X136675857Y-119284904D01*
X136580619Y-119237285D01*
X136533000Y-119189666D01*
X136485380Y-119094428D01*
X136485380Y-118856333D01*
X136533000Y-118713476D01*
X164600095Y-124976000D02*
X164504857Y-124928380D01*
X164362000Y-124928380D01*
X164219142Y-124976000D01*
X164123904Y-125071238D01*
X164076285Y-125166476D01*
X164028666Y-125356952D01*
X164028666Y-125499809D01*
X164076285Y-125690285D01*
X164123904Y-125785523D01*
X164219142Y-125880761D01*
X164362000Y-125928380D01*
X164457238Y-125928380D01*
X164600095Y-125880761D01*
X164647714Y-125833142D01*
X164647714Y-125499809D01*
X164457238Y-125499809D01*
X165076285Y-125928380D02*
X165076285Y-124928380D01*
X165647714Y-125928380D01*
X165647714Y-124928380D01*
X166123904Y-125928380D02*
X166123904Y-124928380D01*
X166362000Y-124928380D01*
X166504857Y-124976000D01*
X166600095Y-125071238D01*
X166647714Y-125166476D01*
X166695333Y-125356952D01*
X166695333Y-125499809D01*
X166647714Y-125690285D01*
X166600095Y-125785523D01*
X166504857Y-125880761D01*
X166362000Y-125928380D01*
X166123904Y-125928380D01*
X167123904Y-125928380D02*
X167123904Y-124928380D01*
X167504857Y-124928380D01*
X167600095Y-124976000D01*
X167647714Y-125023619D01*
X167695333Y-125118857D01*
X167695333Y-125261714D01*
X167647714Y-125356952D01*
X167600095Y-125404571D01*
X167504857Y-125452190D01*
X167123904Y-125452190D01*
X143922714Y-120848380D02*
X143351285Y-120848380D01*
X143637000Y-120848380D02*
X143637000Y-119848380D01*
X143541761Y-119991238D01*
X143446523Y-120086476D01*
X143351285Y-120134095D01*
X160496285Y-121975619D02*
X160543904Y-121928000D01*
X160639142Y-121880380D01*
X160877238Y-121880380D01*
X160972476Y-121928000D01*
X161020095Y-121975619D01*
X161067714Y-122070857D01*
X161067714Y-122166095D01*
X161020095Y-122308952D01*
X160448666Y-122880380D01*
X161067714Y-122880380D01*
X160432714Y-120848380D02*
X159861285Y-120848380D01*
X160147000Y-120848380D02*
X160147000Y-119848380D01*
X160051761Y-119991238D01*
X159956523Y-120086476D01*
X159861285Y-120134095D01*
X166378000Y-121634095D02*
X166330380Y-121729333D01*
X166330380Y-121872190D01*
X166378000Y-122015047D01*
X166473238Y-122110285D01*
X166568476Y-122157904D01*
X166758952Y-122205523D01*
X166901809Y-122205523D01*
X167092285Y-122157904D01*
X167187523Y-122110285D01*
X167282761Y-122015047D01*
X167330380Y-121872190D01*
X167330380Y-121776952D01*
X167282761Y-121634095D01*
X167235142Y-121586476D01*
X166901809Y-121586476D01*
X166901809Y-121776952D01*
X167330380Y-121157904D02*
X166330380Y-121157904D01*
X167330380Y-120586476D01*
X166330380Y-120586476D01*
X167330380Y-120110285D02*
X166330380Y-120110285D01*
X166330380Y-119872190D01*
X166378000Y-119729333D01*
X166473238Y-119634095D01*
X166568476Y-119586476D01*
X166758952Y-119538857D01*
X166901809Y-119538857D01*
X167092285Y-119586476D01*
X167187523Y-119634095D01*
X167282761Y-119729333D01*
X167330380Y-119872190D01*
X167330380Y-120110285D01*
X167282761Y-119157904D02*
X167330380Y-119015047D01*
X167330380Y-118776952D01*
X167282761Y-118681714D01*
X167235142Y-118634095D01*
X167139904Y-118586476D01*
X167044666Y-118586476D01*
X166949428Y-118634095D01*
X166901809Y-118681714D01*
X166854190Y-118776952D01*
X166806571Y-118967428D01*
X166758952Y-119062666D01*
X166711333Y-119110285D01*
X166616095Y-119157904D01*
X166520857Y-119157904D01*
X166425619Y-119110285D01*
X166378000Y-119062666D01*
X166330380Y-118967428D01*
X166330380Y-118729333D01*
X166378000Y-118586476D01*
X160988523Y-125023619D02*
X161036142Y-124976000D01*
X161131380Y-124928380D01*
X161369476Y-124928380D01*
X161464714Y-124976000D01*
X161512333Y-125023619D01*
X161559952Y-125118857D01*
X161559952Y-125214095D01*
X161512333Y-125356952D01*
X160940904Y-125928380D01*
X161559952Y-125928380D01*
X162417095Y-125261714D02*
X162417095Y-125928380D01*
X162179000Y-124880761D02*
X161940904Y-125595047D01*
X162559952Y-125595047D01*
X162798047Y-124928380D02*
X163131380Y-125928380D01*
X163464714Y-124928380D01*
X160480523Y-118292619D02*
X160528142Y-118245000D01*
X160623380Y-118197380D01*
X160861476Y-118197380D01*
X160956714Y-118245000D01*
X161004333Y-118292619D01*
X161051952Y-118387857D01*
X161051952Y-118483095D01*
X161004333Y-118625952D01*
X160432904Y-119197380D01*
X161051952Y-119197380D01*
X161909095Y-118530714D02*
X161909095Y-119197380D01*
X161671000Y-118149761D02*
X161432904Y-118864047D01*
X162051952Y-118864047D01*
X162290047Y-118197380D02*
X162623380Y-119197380D01*
X162956714Y-118197380D01*
X141176523Y-125023619D02*
X141224142Y-124976000D01*
X141319380Y-124928380D01*
X141557476Y-124928380D01*
X141652714Y-124976000D01*
X141700333Y-125023619D01*
X141747952Y-125118857D01*
X141747952Y-125214095D01*
X141700333Y-125356952D01*
X141128904Y-125928380D01*
X141747952Y-125928380D01*
X142605095Y-125261714D02*
X142605095Y-125928380D01*
X142367000Y-124880761D02*
X142128904Y-125595047D01*
X142747952Y-125595047D01*
X142986047Y-124928380D02*
X143319380Y-125928380D01*
X143652714Y-124928380D01*
X140795523Y-118165619D02*
X140843142Y-118118000D01*
X140938380Y-118070380D01*
X141176476Y-118070380D01*
X141271714Y-118118000D01*
X141319333Y-118165619D01*
X141366952Y-118260857D01*
X141366952Y-118356095D01*
X141319333Y-118498952D01*
X140747904Y-119070380D01*
X141366952Y-119070380D01*
X142224095Y-118403714D02*
X142224095Y-119070380D01*
X141986000Y-118022761D02*
X141747904Y-118737047D01*
X142366952Y-118737047D01*
X142605047Y-118070380D02*
X142938380Y-119070380D01*
X143271714Y-118070380D01*
X161401238Y-70064380D02*
X161972666Y-70064380D01*
X161686952Y-71064380D02*
X161686952Y-70064380D01*
X162306000Y-70683428D02*
X163067904Y-70683428D01*
X162686952Y-71064380D02*
X162686952Y-70302476D01*
X165806476Y-71064380D02*
X165473142Y-70588190D01*
X165235047Y-71064380D02*
X165235047Y-70064380D01*
X165616000Y-70064380D01*
X165711238Y-70112000D01*
X165758857Y-70159619D01*
X165806476Y-70254857D01*
X165806476Y-70397714D01*
X165758857Y-70492952D01*
X165711238Y-70540571D01*
X165616000Y-70588190D01*
X165235047Y-70588190D01*
X166235047Y-70683428D02*
X166996952Y-70683428D01*
X161869476Y-65730380D02*
X161536142Y-65254190D01*
X161298047Y-65730380D02*
X161298047Y-64730380D01*
X161679000Y-64730380D01*
X161774238Y-64778000D01*
X161821857Y-64825619D01*
X161869476Y-64920857D01*
X161869476Y-65063714D01*
X161821857Y-65158952D01*
X161774238Y-65206571D01*
X161679000Y-65254190D01*
X161298047Y-65254190D01*
X162298047Y-65349428D02*
X163059952Y-65349428D01*
X162679000Y-65730380D02*
X162679000Y-64968476D01*
X164449238Y-64730380D02*
X165020666Y-64730380D01*
X164734952Y-65730380D02*
X164734952Y-64730380D01*
X165354000Y-65349428D02*
X166115904Y-65349428D01*
X142819476Y-71064380D02*
X142486142Y-70588190D01*
X142248047Y-71064380D02*
X142248047Y-70064380D01*
X142629000Y-70064380D01*
X142724238Y-70112000D01*
X142771857Y-70159619D01*
X142819476Y-70254857D01*
X142819476Y-70397714D01*
X142771857Y-70492952D01*
X142724238Y-70540571D01*
X142629000Y-70588190D01*
X142248047Y-70588190D01*
X143248047Y-70683428D02*
X144009952Y-70683428D01*
X138287238Y-70064380D02*
X138858666Y-70064380D01*
X138572952Y-71064380D02*
X138572952Y-70064380D01*
X139192000Y-70683428D02*
X139953904Y-70683428D01*
X139572952Y-71064380D02*
X139572952Y-70302476D01*
X138882476Y-65730380D02*
X138549142Y-65254190D01*
X138311047Y-65730380D02*
X138311047Y-64730380D01*
X138692000Y-64730380D01*
X138787238Y-64778000D01*
X138834857Y-64825619D01*
X138882476Y-64920857D01*
X138882476Y-65063714D01*
X138834857Y-65158952D01*
X138787238Y-65206571D01*
X138692000Y-65254190D01*
X138311047Y-65254190D01*
X139311047Y-65349428D02*
X140072952Y-65349428D01*
X139692000Y-65730380D02*
X139692000Y-64968476D01*
X141462238Y-64730380D02*
X142033666Y-64730380D01*
X141747952Y-65730380D02*
X141747952Y-64730380D01*
X142367000Y-65349428D02*
X143128904Y-65349428D01*
X164131666Y-70064380D02*
X164750714Y-70064380D01*
X164417380Y-70445333D01*
X164560238Y-70445333D01*
X164655476Y-70492952D01*
X164703095Y-70540571D01*
X164750714Y-70635809D01*
X164750714Y-70873904D01*
X164703095Y-70969142D01*
X164655476Y-71016761D01*
X164560238Y-71064380D01*
X164274523Y-71064380D01*
X164179285Y-71016761D01*
X164131666Y-70969142D01*
X161194714Y-71064380D02*
X160623285Y-71064380D01*
X160909000Y-71064380D02*
X160909000Y-70064380D01*
X160813761Y-70207238D01*
X160718523Y-70302476D01*
X160623285Y-70350095D01*
X164147476Y-65063714D02*
X164147476Y-65730380D01*
X163909380Y-64682761D02*
X163671285Y-65397047D01*
X164290333Y-65397047D01*
X160242285Y-64825619D02*
X160289904Y-64778000D01*
X160385142Y-64730380D01*
X160623238Y-64730380D01*
X160718476Y-64778000D01*
X160766095Y-64825619D01*
X160813714Y-64920857D01*
X160813714Y-65016095D01*
X160766095Y-65158952D01*
X160194666Y-65730380D01*
X160813714Y-65730380D01*
X141160476Y-65063714D02*
X141160476Y-65730380D01*
X140922380Y-64682761D02*
X140684285Y-65397047D01*
X141303333Y-65397047D01*
X137255285Y-64825619D02*
X137302904Y-64778000D01*
X137398142Y-64730380D01*
X137636238Y-64730380D01*
X137731476Y-64778000D01*
X137779095Y-64825619D01*
X137826714Y-64920857D01*
X137826714Y-65016095D01*
X137779095Y-65158952D01*
X137207666Y-65730380D01*
X137826714Y-65730380D01*
X138080714Y-71064380D02*
X137509285Y-71064380D01*
X137795000Y-71064380D02*
X137795000Y-70064380D01*
X137699761Y-70207238D01*
X137604523Y-70302476D01*
X137509285Y-70350095D01*
X141144666Y-70064380D02*
X141763714Y-70064380D01*
X141430380Y-70445333D01*
X141573238Y-70445333D01*
X141668476Y-70492952D01*
X141716095Y-70540571D01*
X141763714Y-70635809D01*
X141763714Y-70873904D01*
X141716095Y-70969142D01*
X141668476Y-71016761D01*
X141573238Y-71064380D01*
X141287523Y-71064380D01*
X141192285Y-71016761D01*
X141144666Y-70969142D01*
D11*
X156845000Y-64770000D02*
X158115000Y-64770000D01*
X158115000Y-69215000D02*
X158750000Y-68580000D01*
X158750000Y-68580000D02*
X159385000Y-68580000D01*
X156210000Y-68580000D02*
X156845000Y-69215000D01*
X158115000Y-64770000D02*
X158115000Y-69215000D01*
X156845000Y-69215000D02*
X156845000Y-64770000D01*
X155575000Y-68580000D02*
X156210000Y-68580000D01*
X160020000Y-68580000D02*
X159385000Y-68580000D01*
X157480000Y-71120000D02*
X160020000Y-68580000D01*
X154940000Y-68580000D02*
X157480000Y-71120000D01*
X155575000Y-68580000D02*
X154940000Y-68580000D01*
X144145000Y-67310000D02*
X144780000Y-67310000D01*
X146685000Y-64770000D02*
X144145000Y-67310000D01*
X149225000Y-67310000D02*
X146685000Y-64770000D01*
X148590000Y-67310000D02*
X149225000Y-67310000D01*
X147320000Y-71120000D02*
X146050000Y-71120000D01*
X147320000Y-66675000D02*
X147320000Y-71120000D01*
X147955000Y-67310000D02*
X147320000Y-66675000D01*
X148590000Y-67310000D02*
X147955000Y-67310000D01*
X145415000Y-67310000D02*
X144780000Y-67310000D01*
X146050000Y-66675000D02*
X145415000Y-67310000D01*
X146050000Y-71120000D02*
X146050000Y-66675000D01*
D12*
G36*
X139919430Y-112380848D02*
G01*
X139918811Y-112467931D01*
X139467086Y-112926891D01*
X139015361Y-113385852D01*
X139015032Y-113596471D01*
X139014703Y-113807089D01*
X138739610Y-113807089D01*
X138732522Y-113860530D01*
X138729838Y-113884888D01*
X138725313Y-113930759D01*
X138719191Y-113995405D01*
X138711712Y-114076091D01*
X138703119Y-114170081D01*
X138693654Y-114274637D01*
X138683558Y-114387025D01*
X138673074Y-114504507D01*
X138662444Y-114624348D01*
X138651909Y-114743811D01*
X138641713Y-114860159D01*
X138632095Y-114970657D01*
X138623300Y-115072569D01*
X138615568Y-115163158D01*
X138609142Y-115239687D01*
X138604263Y-115299421D01*
X138601175Y-115339624D01*
X138600117Y-115357559D01*
X138600118Y-115357644D01*
X138607827Y-115372035D01*
X138630981Y-115401748D01*
X138669895Y-115447131D01*
X138724884Y-115508529D01*
X138796264Y-115586288D01*
X138884349Y-115680754D01*
X138989454Y-115792272D01*
X139111895Y-115921188D01*
X139146310Y-115957287D01*
X139692137Y-116529416D01*
X139603881Y-116617436D01*
X139532485Y-116539758D01*
X139506366Y-116511686D01*
X139465566Y-116468274D01*
X139412777Y-116412366D01*
X139350691Y-116346808D01*
X139282000Y-116274441D01*
X139209396Y-116198112D01*
X139165960Y-116152524D01*
X139084416Y-116067119D01*
X139018504Y-115998710D01*
X138966544Y-115946053D01*
X138926855Y-115907905D01*
X138897757Y-115883020D01*
X138877569Y-115870156D01*
X138864610Y-115868068D01*
X138857200Y-115875513D01*
X138853658Y-115891246D01*
X138852303Y-115914023D01*
X138852121Y-115920239D01*
X138842703Y-115963061D01*
X138819497Y-116014819D01*
X138787136Y-116067328D01*
X138750252Y-116112403D01*
X138735493Y-116126328D01*
X138659767Y-116175047D01*
X138571308Y-116202306D01*
X138493100Y-116208773D01*
X138404468Y-116196576D01*
X138322612Y-116160813D01*
X138250164Y-116102722D01*
X138236797Y-116088262D01*
X138187918Y-116032733D01*
X137342326Y-116032733D01*
X137342326Y-116208773D01*
X137115990Y-116208773D01*
X137115990Y-116126531D01*
X137113150Y-116070386D01*
X137103607Y-116031416D01*
X137092009Y-116010219D01*
X137083723Y-115995052D01*
X137076627Y-115973062D01*
X137070252Y-115940987D01*
X137064128Y-115895569D01*
X137057784Y-115833548D01*
X137050750Y-115751662D01*
X137045934Y-115690746D01*
X137023839Y-115405343D01*
X136481435Y-115954805D01*
X136383363Y-116054228D01*
X136289216Y-116149815D01*
X136200715Y-116239810D01*
X136119580Y-116322457D01*
X136047531Y-116396001D01*
X135986288Y-116458684D01*
X135937573Y-116508752D01*
X135903104Y-116544448D01*
X135884621Y-116563995D01*
X135854257Y-116594944D01*
X135828929Y-116616530D01*
X135815305Y-116623723D01*
X135797905Y-116615297D01*
X135772540Y-116594245D01*
X135763942Y-116585671D01*
X135727486Y-116547620D01*
X135928198Y-116343658D01*
X135979404Y-116291699D01*
X136045431Y-116224820D01*
X136123382Y-116145950D01*
X136210362Y-116058014D01*
X136303474Y-115963941D01*
X136399821Y-115866658D01*
X136496508Y-115769093D01*
X136565866Y-115699145D01*
X136671297Y-115592550D01*
X136759871Y-115502307D01*
X136832719Y-115427192D01*
X136890977Y-115365986D01*
X136935775Y-115317466D01*
X136957979Y-115292129D01*
X137136276Y-115292129D01*
X137158599Y-115577555D01*
X137165331Y-115661219D01*
X137171843Y-115737727D01*
X137177766Y-115803081D01*
X137182732Y-115853281D01*
X137186371Y-115884329D01*
X137187542Y-115891273D01*
X137194162Y-115919565D01*
X138143636Y-115919565D01*
X138149974Y-115840606D01*
X138169110Y-115747315D01*
X138209154Y-115664791D01*
X138267582Y-115596038D01*
X138341871Y-115544063D01*
X138425252Y-115512863D01*
X138452302Y-115498228D01*
X138465844Y-115466819D01*
X138466128Y-115465434D01*
X138467753Y-115452174D01*
X138465744Y-115438595D01*
X138458142Y-115422181D01*
X138442984Y-115400411D01*
X138418312Y-115370767D01*
X138382164Y-115330732D01*
X138332580Y-115277785D01*
X138267599Y-115209409D01*
X138263401Y-115205005D01*
X138193507Y-115131611D01*
X138119200Y-115053437D01*
X138045586Y-114975864D01*
X137977771Y-114904275D01*
X137920860Y-114844051D01*
X137908168Y-114830587D01*
X137859513Y-114779820D01*
X137816291Y-114736375D01*
X137781605Y-114703241D01*
X137758556Y-114683405D01*
X137750818Y-114679046D01*
X137739278Y-114688170D01*
X137712290Y-114713200D01*
X137671979Y-114752052D01*
X137620471Y-114802643D01*
X137559891Y-114862888D01*
X137492364Y-114930704D01*
X137437174Y-114986565D01*
X137136276Y-115292129D01*
X136957979Y-115292129D01*
X136968249Y-115280411D01*
X136989529Y-115253599D01*
X137000749Y-115235808D01*
X137003246Y-115227570D01*
X137002300Y-115209590D01*
X136999427Y-115168892D01*
X136994813Y-115107819D01*
X136988642Y-115028713D01*
X136981102Y-114933914D01*
X136972379Y-114825767D01*
X136962657Y-114706612D01*
X136952124Y-114578791D01*
X136943635Y-114476635D01*
X136895604Y-113900674D01*
X137019195Y-113900674D01*
X137019727Y-113913104D01*
X137022231Y-113948110D01*
X137026504Y-114003215D01*
X137032347Y-114075943D01*
X137039557Y-114163814D01*
X137047934Y-114264351D01*
X137057277Y-114375077D01*
X137066242Y-114480205D01*
X137076398Y-114599483D01*
X137085858Y-114712080D01*
X137094404Y-114815305D01*
X137101821Y-114906473D01*
X137107892Y-114982895D01*
X137112399Y-115041883D01*
X137115127Y-115080749D01*
X137115884Y-115095844D01*
X137117065Y-115105238D01*
X137121744Y-115108966D01*
X137131724Y-115105471D01*
X137148810Y-115093199D01*
X137174804Y-115070594D01*
X137211510Y-115036100D01*
X137260733Y-114988162D01*
X137324274Y-114925224D01*
X137391695Y-114857968D01*
X137667399Y-114582477D01*
X137665467Y-114580406D01*
X137847710Y-114580406D01*
X137856016Y-114591780D01*
X137879267Y-114618563D01*
X137915135Y-114658292D01*
X137961287Y-114708507D01*
X138015394Y-114766746D01*
X138075126Y-114830547D01*
X138138152Y-114897449D01*
X138202142Y-114964990D01*
X138264764Y-115030710D01*
X138323690Y-115092146D01*
X138376588Y-115146837D01*
X138421128Y-115192322D01*
X138454980Y-115226138D01*
X138475812Y-115245826D01*
X138481494Y-115249837D01*
X138483366Y-115236891D01*
X138487254Y-115201134D01*
X138492943Y-115144804D01*
X138500219Y-115070140D01*
X138508869Y-114979380D01*
X138518678Y-114874762D01*
X138529434Y-114758526D01*
X138540921Y-114632908D01*
X138550093Y-114531618D01*
X138561826Y-114400279D01*
X138572665Y-114276552D01*
X138582430Y-114162681D01*
X138590937Y-114060911D01*
X138598005Y-113973487D01*
X138603451Y-113902653D01*
X138607092Y-113850653D01*
X138608747Y-113819732D01*
X138608558Y-113811703D01*
X138598666Y-113818854D01*
X138573476Y-113841841D01*
X138535190Y-113878439D01*
X138486011Y-113926422D01*
X138428139Y-113983566D01*
X138363778Y-114047647D01*
X138295129Y-114116438D01*
X138224395Y-114187716D01*
X138153778Y-114259255D01*
X138085480Y-114328830D01*
X138021704Y-114394217D01*
X137964650Y-114453191D01*
X137916522Y-114503527D01*
X137879522Y-114542999D01*
X137855852Y-114569383D01*
X137847710Y-114580406D01*
X137665467Y-114580406D01*
X137564591Y-114472295D01*
X137512232Y-114416377D01*
X137453465Y-114353948D01*
X137390615Y-114287443D01*
X137326005Y-114219298D01*
X137261958Y-114151948D01*
X137200797Y-114087828D01*
X137144847Y-114029372D01*
X137096430Y-113979018D01*
X137057870Y-113939198D01*
X137031491Y-113912350D01*
X137019616Y-113900908D01*
X137019195Y-113900674D01*
X136895604Y-113900674D01*
X136883599Y-113756726D01*
X136283062Y-113125158D01*
X135682525Y-112493589D01*
X135682966Y-112405315D01*
X135683408Y-112317040D01*
X135780417Y-112420666D01*
X135834709Y-112478463D01*
X135898808Y-112546368D01*
X135970984Y-112622572D01*
X136049508Y-112705269D01*
X136132651Y-112792653D01*
X136218681Y-112882915D01*
X136305870Y-112974250D01*
X136392487Y-113064849D01*
X136476803Y-113152907D01*
X136557088Y-113236615D01*
X136631613Y-113314167D01*
X136698646Y-113383757D01*
X136756459Y-113443576D01*
X136803321Y-113491818D01*
X136837504Y-113526676D01*
X136857276Y-113546343D01*
X136861610Y-113550116D01*
X136861908Y-113536992D01*
X136860269Y-113503389D01*
X136856977Y-113453880D01*
X136852318Y-113393037D01*
X136850318Y-113368732D01*
X136835423Y-113190951D01*
X136952045Y-113190951D01*
X136958066Y-113219243D01*
X136961137Y-113241618D01*
X136965452Y-113283717D01*
X136970512Y-113340178D01*
X136975819Y-113405635D01*
X136977656Y-113429862D01*
X136983073Y-113499421D01*
X136988541Y-113564018D01*
X136993512Y-113617548D01*
X136997439Y-113653910D01*
X136998325Y-113660509D01*
X137001666Y-113674056D01*
X137008899Y-113689914D01*
X137021560Y-113709861D01*
X137041189Y-113735673D01*
X137069322Y-113769129D01*
X137107498Y-113812007D01*
X137157254Y-113866083D01*
X137220129Y-113933136D01*
X137297659Y-114014943D01*
X137376749Y-114097950D01*
X137455436Y-114180094D01*
X137528888Y-114256169D01*
X137595276Y-114324325D01*
X137652773Y-114382712D01*
X137699549Y-114429481D01*
X137733776Y-114462782D01*
X137753627Y-114480767D01*
X137757860Y-114483442D01*
X137768997Y-114473741D01*
X137795029Y-114448441D01*
X137833430Y-114410082D01*
X137881672Y-114361200D01*
X137937230Y-114304334D01*
X137977408Y-114262906D01*
X138187169Y-114046000D01*
X137568663Y-114046000D01*
X137568663Y-113807089D01*
X138323119Y-113807089D01*
X138323119Y-113913542D01*
X138461435Y-113775654D01*
X138559553Y-113677840D01*
X138750643Y-113677840D01*
X138752471Y-113693270D01*
X138761723Y-113701867D01*
X138784050Y-113705613D01*
X138825105Y-113706489D01*
X138832376Y-113706495D01*
X138914109Y-113706495D01*
X138914109Y-113487172D01*
X138832376Y-113568179D01*
X138786270Y-113617428D01*
X138758694Y-113655159D01*
X138750643Y-113677840D01*
X138559553Y-113677840D01*
X138599752Y-113637766D01*
X138599752Y-113514952D01*
X138600137Y-113458450D01*
X138601900Y-113422505D01*
X138605950Y-113402530D01*
X138613199Y-113393937D01*
X138624130Y-113392139D01*
X138636288Y-113389498D01*
X138645273Y-113378912D01*
X138652174Y-113356381D01*
X138658076Y-113317909D01*
X138664065Y-113259498D01*
X138665987Y-113238104D01*
X138670148Y-113190951D01*
X136952045Y-113190951D01*
X136835423Y-113190951D01*
X136675891Y-113190951D01*
X136675891Y-113077782D01*
X136743686Y-113077782D01*
X136783338Y-113076696D01*
X136804884Y-113071454D01*
X136807520Y-113068334D01*
X136946384Y-113068334D01*
X136953692Y-113075462D01*
X136979007Y-113077662D01*
X136996092Y-113077782D01*
X137053119Y-113077782D01*
X137265779Y-113077782D01*
X138680302Y-113077782D01*
X138632458Y-113028786D01*
X138558150Y-112968324D01*
X138466184Y-112921691D01*
X138355002Y-112888249D01*
X138244529Y-112869753D01*
X138172227Y-112861122D01*
X138172227Y-112952040D01*
X137593812Y-112952040D01*
X137593812Y-112848893D01*
X137508935Y-112857496D01*
X137449632Y-112864756D01*
X137386449Y-112874379D01*
X137348614Y-112881252D01*
X137273168Y-112896407D01*
X137269474Y-112987095D01*
X137265779Y-113077782D01*
X137053119Y-113077782D01*
X137053119Y-113027485D01*
X137051456Y-112995976D01*
X137047303Y-112978463D01*
X137045629Y-112977188D01*
X137027013Y-112985254D01*
X136999817Y-113004820D01*
X136972552Y-113028944D01*
X136953733Y-113050682D01*
X136952057Y-113053508D01*
X136946384Y-113068334D01*
X136807520Y-113068334D01*
X136815338Y-113059081D01*
X136819558Y-113045604D01*
X136836781Y-113010627D01*
X136869862Y-112968579D01*
X136913107Y-112925356D01*
X136960826Y-112886854D01*
X136992170Y-112866801D01*
X137027877Y-112844851D01*
X137046181Y-112826411D01*
X137052612Y-112804668D01*
X137053106Y-112791718D01*
X137053106Y-112788575D01*
X137694406Y-112788575D01*
X137694406Y-112851446D01*
X138071633Y-112851446D01*
X138071633Y-112788575D01*
X137694406Y-112788575D01*
X137053106Y-112788575D01*
X137053119Y-112750852D01*
X137158952Y-112750852D01*
X137207645Y-112752029D01*
X137245595Y-112755165D01*
X137266692Y-112759671D01*
X137268977Y-112761495D01*
X137282359Y-112764295D01*
X137314926Y-112763148D01*
X137361084Y-112758393D01*
X137392624Y-112754003D01*
X137449812Y-112745378D01*
X137502114Y-112737591D01*
X137541418Y-112731847D01*
X137552945Y-112730215D01*
X137583063Y-112720888D01*
X137593812Y-112706272D01*
X137597080Y-112700320D01*
X137608770Y-112695778D01*
X137631712Y-112692470D01*
X137668735Y-112690215D01*
X137722668Y-112688834D01*
X137796340Y-112688150D01*
X137883020Y-112687980D01*
X137975529Y-112688077D01*
X138045906Y-112688530D01*
X138097164Y-112689590D01*
X138132320Y-112691503D01*
X138154389Y-112694519D01*
X138166385Y-112698885D01*
X138171324Y-112704849D01*
X138172227Y-112711784D01*
X138179921Y-112733795D01*
X138205121Y-112746321D01*
X138251009Y-112750788D01*
X138259264Y-112750852D01*
X138336973Y-112758868D01*
X138425233Y-112780936D01*
X138516085Y-112814084D01*
X138601570Y-112855339D01*
X138673726Y-112901731D01*
X138683072Y-112909082D01*
X138713533Y-112932998D01*
X138731572Y-112942576D01*
X138744169Y-112939480D01*
X138757100Y-112926704D01*
X138795293Y-112901678D01*
X138844998Y-112892071D01*
X138898524Y-112897067D01*
X138948178Y-112915851D01*
X138986267Y-112947606D01*
X138989025Y-112951297D01*
X139017526Y-113010575D01*
X139022828Y-113071934D01*
X139005518Y-113130427D01*
X138966180Y-113181104D01*
X138961370Y-113185289D01*
X138933440Y-113205167D01*
X138905102Y-113213921D01*
X138865263Y-113214553D01*
X138855311Y-113213992D01*
X138816332Y-113212562D01*
X138796254Y-113215839D01*
X138788985Y-113225728D01*
X138788240Y-113234961D01*
X138786716Y-113261744D01*
X138782935Y-113302025D01*
X138780218Y-113326124D01*
X138776277Y-113364401D01*
X138777916Y-113383996D01*
X138787421Y-113391158D01*
X138804351Y-113392139D01*
X138814392Y-113388901D01*
X138830590Y-113378420D01*
X138854145Y-113359548D01*
X138886257Y-113331135D01*
X138928128Y-113292035D01*
X138980957Y-113241097D01*
X139045945Y-113177173D01*
X139124291Y-113099114D01*
X139217197Y-113005772D01*
X139325863Y-112895998D01*
X139378231Y-112842952D01*
X139920049Y-112293767D01*
X139919430Y-112380848D01*
G37*
X139919430Y-112380848D02*
X139918811Y-112467931D01*
X139467086Y-112926891D01*
X139015361Y-113385852D01*
X139015032Y-113596471D01*
X139014703Y-113807089D01*
X138739610Y-113807089D01*
X138732522Y-113860530D01*
X138729838Y-113884888D01*
X138725313Y-113930759D01*
X138719191Y-113995405D01*
X138711712Y-114076091D01*
X138703119Y-114170081D01*
X138693654Y-114274637D01*
X138683558Y-114387025D01*
X138673074Y-114504507D01*
X138662444Y-114624348D01*
X138651909Y-114743811D01*
X138641713Y-114860159D01*
X138632095Y-114970657D01*
X138623300Y-115072569D01*
X138615568Y-115163158D01*
X138609142Y-115239687D01*
X138604263Y-115299421D01*
X138601175Y-115339624D01*
X138600117Y-115357559D01*
X138600118Y-115357644D01*
X138607827Y-115372035D01*
X138630981Y-115401748D01*
X138669895Y-115447131D01*
X138724884Y-115508529D01*
X138796264Y-115586288D01*
X138884349Y-115680754D01*
X138989454Y-115792272D01*
X139111895Y-115921188D01*
X139146310Y-115957287D01*
X139692137Y-116529416D01*
X139603881Y-116617436D01*
X139532485Y-116539758D01*
X139506366Y-116511686D01*
X139465566Y-116468274D01*
X139412777Y-116412366D01*
X139350691Y-116346808D01*
X139282000Y-116274441D01*
X139209396Y-116198112D01*
X139165960Y-116152524D01*
X139084416Y-116067119D01*
X139018504Y-115998710D01*
X138966544Y-115946053D01*
X138926855Y-115907905D01*
X138897757Y-115883020D01*
X138877569Y-115870156D01*
X138864610Y-115868068D01*
X138857200Y-115875513D01*
X138853658Y-115891246D01*
X138852303Y-115914023D01*
X138852121Y-115920239D01*
X138842703Y-115963061D01*
X138819497Y-116014819D01*
X138787136Y-116067328D01*
X138750252Y-116112403D01*
X138735493Y-116126328D01*
X138659767Y-116175047D01*
X138571308Y-116202306D01*
X138493100Y-116208773D01*
X138404468Y-116196576D01*
X138322612Y-116160813D01*
X138250164Y-116102722D01*
X138236797Y-116088262D01*
X138187918Y-116032733D01*
X137342326Y-116032733D01*
X137342326Y-116208773D01*
X137115990Y-116208773D01*
X137115990Y-116126531D01*
X137113150Y-116070386D01*
X137103607Y-116031416D01*
X137092009Y-116010219D01*
X137083723Y-115995052D01*
X137076627Y-115973062D01*
X137070252Y-115940987D01*
X137064128Y-115895569D01*
X137057784Y-115833548D01*
X137050750Y-115751662D01*
X137045934Y-115690746D01*
X137023839Y-115405343D01*
X136481435Y-115954805D01*
X136383363Y-116054228D01*
X136289216Y-116149815D01*
X136200715Y-116239810D01*
X136119580Y-116322457D01*
X136047531Y-116396001D01*
X135986288Y-116458684D01*
X135937573Y-116508752D01*
X135903104Y-116544448D01*
X135884621Y-116563995D01*
X135854257Y-116594944D01*
X135828929Y-116616530D01*
X135815305Y-116623723D01*
X135797905Y-116615297D01*
X135772540Y-116594245D01*
X135763942Y-116585671D01*
X135727486Y-116547620D01*
X135928198Y-116343658D01*
X135979404Y-116291699D01*
X136045431Y-116224820D01*
X136123382Y-116145950D01*
X136210362Y-116058014D01*
X136303474Y-115963941D01*
X136399821Y-115866658D01*
X136496508Y-115769093D01*
X136565866Y-115699145D01*
X136671297Y-115592550D01*
X136759871Y-115502307D01*
X136832719Y-115427192D01*
X136890977Y-115365986D01*
X136935775Y-115317466D01*
X136957979Y-115292129D01*
X137136276Y-115292129D01*
X137158599Y-115577555D01*
X137165331Y-115661219D01*
X137171843Y-115737727D01*
X137177766Y-115803081D01*
X137182732Y-115853281D01*
X137186371Y-115884329D01*
X137187542Y-115891273D01*
X137194162Y-115919565D01*
X138143636Y-115919565D01*
X138149974Y-115840606D01*
X138169110Y-115747315D01*
X138209154Y-115664791D01*
X138267582Y-115596038D01*
X138341871Y-115544063D01*
X138425252Y-115512863D01*
X138452302Y-115498228D01*
X138465844Y-115466819D01*
X138466128Y-115465434D01*
X138467753Y-115452174D01*
X138465744Y-115438595D01*
X138458142Y-115422181D01*
X138442984Y-115400411D01*
X138418312Y-115370767D01*
X138382164Y-115330732D01*
X138332580Y-115277785D01*
X138267599Y-115209409D01*
X138263401Y-115205005D01*
X138193507Y-115131611D01*
X138119200Y-115053437D01*
X138045586Y-114975864D01*
X137977771Y-114904275D01*
X137920860Y-114844051D01*
X137908168Y-114830587D01*
X137859513Y-114779820D01*
X137816291Y-114736375D01*
X137781605Y-114703241D01*
X137758556Y-114683405D01*
X137750818Y-114679046D01*
X137739278Y-114688170D01*
X137712290Y-114713200D01*
X137671979Y-114752052D01*
X137620471Y-114802643D01*
X137559891Y-114862888D01*
X137492364Y-114930704D01*
X137437174Y-114986565D01*
X137136276Y-115292129D01*
X136957979Y-115292129D01*
X136968249Y-115280411D01*
X136989529Y-115253599D01*
X137000749Y-115235808D01*
X137003246Y-115227570D01*
X137002300Y-115209590D01*
X136999427Y-115168892D01*
X136994813Y-115107819D01*
X136988642Y-115028713D01*
X136981102Y-114933914D01*
X136972379Y-114825767D01*
X136962657Y-114706612D01*
X136952124Y-114578791D01*
X136943635Y-114476635D01*
X136895604Y-113900674D01*
X137019195Y-113900674D01*
X137019727Y-113913104D01*
X137022231Y-113948110D01*
X137026504Y-114003215D01*
X137032347Y-114075943D01*
X137039557Y-114163814D01*
X137047934Y-114264351D01*
X137057277Y-114375077D01*
X137066242Y-114480205D01*
X137076398Y-114599483D01*
X137085858Y-114712080D01*
X137094404Y-114815305D01*
X137101821Y-114906473D01*
X137107892Y-114982895D01*
X137112399Y-115041883D01*
X137115127Y-115080749D01*
X137115884Y-115095844D01*
X137117065Y-115105238D01*
X137121744Y-115108966D01*
X137131724Y-115105471D01*
X137148810Y-115093199D01*
X137174804Y-115070594D01*
X137211510Y-115036100D01*
X137260733Y-114988162D01*
X137324274Y-114925224D01*
X137391695Y-114857968D01*
X137667399Y-114582477D01*
X137665467Y-114580406D01*
X137847710Y-114580406D01*
X137856016Y-114591780D01*
X137879267Y-114618563D01*
X137915135Y-114658292D01*
X137961287Y-114708507D01*
X138015394Y-114766746D01*
X138075126Y-114830547D01*
X138138152Y-114897449D01*
X138202142Y-114964990D01*
X138264764Y-115030710D01*
X138323690Y-115092146D01*
X138376588Y-115146837D01*
X138421128Y-115192322D01*
X138454980Y-115226138D01*
X138475812Y-115245826D01*
X138481494Y-115249837D01*
X138483366Y-115236891D01*
X138487254Y-115201134D01*
X138492943Y-115144804D01*
X138500219Y-115070140D01*
X138508869Y-114979380D01*
X138518678Y-114874762D01*
X138529434Y-114758526D01*
X138540921Y-114632908D01*
X138550093Y-114531618D01*
X138561826Y-114400279D01*
X138572665Y-114276552D01*
X138582430Y-114162681D01*
X138590937Y-114060911D01*
X138598005Y-113973487D01*
X138603451Y-113902653D01*
X138607092Y-113850653D01*
X138608747Y-113819732D01*
X138608558Y-113811703D01*
X138598666Y-113818854D01*
X138573476Y-113841841D01*
X138535190Y-113878439D01*
X138486011Y-113926422D01*
X138428139Y-113983566D01*
X138363778Y-114047647D01*
X138295129Y-114116438D01*
X138224395Y-114187716D01*
X138153778Y-114259255D01*
X138085480Y-114328830D01*
X138021704Y-114394217D01*
X137964650Y-114453191D01*
X137916522Y-114503527D01*
X137879522Y-114542999D01*
X137855852Y-114569383D01*
X137847710Y-114580406D01*
X137665467Y-114580406D01*
X137564591Y-114472295D01*
X137512232Y-114416377D01*
X137453465Y-114353948D01*
X137390615Y-114287443D01*
X137326005Y-114219298D01*
X137261958Y-114151948D01*
X137200797Y-114087828D01*
X137144847Y-114029372D01*
X137096430Y-113979018D01*
X137057870Y-113939198D01*
X137031491Y-113912350D01*
X137019616Y-113900908D01*
X137019195Y-113900674D01*
X136895604Y-113900674D01*
X136883599Y-113756726D01*
X136283062Y-113125158D01*
X135682525Y-112493589D01*
X135682966Y-112405315D01*
X135683408Y-112317040D01*
X135780417Y-112420666D01*
X135834709Y-112478463D01*
X135898808Y-112546368D01*
X135970984Y-112622572D01*
X136049508Y-112705269D01*
X136132651Y-112792653D01*
X136218681Y-112882915D01*
X136305870Y-112974250D01*
X136392487Y-113064849D01*
X136476803Y-113152907D01*
X136557088Y-113236615D01*
X136631613Y-113314167D01*
X136698646Y-113383757D01*
X136756459Y-113443576D01*
X136803321Y-113491818D01*
X136837504Y-113526676D01*
X136857276Y-113546343D01*
X136861610Y-113550116D01*
X136861908Y-113536992D01*
X136860269Y-113503389D01*
X136856977Y-113453880D01*
X136852318Y-113393037D01*
X136850318Y-113368732D01*
X136835423Y-113190951D01*
X136952045Y-113190951D01*
X136958066Y-113219243D01*
X136961137Y-113241618D01*
X136965452Y-113283717D01*
X136970512Y-113340178D01*
X136975819Y-113405635D01*
X136977656Y-113429862D01*
X136983073Y-113499421D01*
X136988541Y-113564018D01*
X136993512Y-113617548D01*
X136997439Y-113653910D01*
X136998325Y-113660509D01*
X137001666Y-113674056D01*
X137008899Y-113689914D01*
X137021560Y-113709861D01*
X137041189Y-113735673D01*
X137069322Y-113769129D01*
X137107498Y-113812007D01*
X137157254Y-113866083D01*
X137220129Y-113933136D01*
X137297659Y-114014943D01*
X137376749Y-114097950D01*
X137455436Y-114180094D01*
X137528888Y-114256169D01*
X137595276Y-114324325D01*
X137652773Y-114382712D01*
X137699549Y-114429481D01*
X137733776Y-114462782D01*
X137753627Y-114480767D01*
X137757860Y-114483442D01*
X137768997Y-114473741D01*
X137795029Y-114448441D01*
X137833430Y-114410082D01*
X137881672Y-114361200D01*
X137937230Y-114304334D01*
X137977408Y-114262906D01*
X138187169Y-114046000D01*
X137568663Y-114046000D01*
X137568663Y-113807089D01*
X138323119Y-113807089D01*
X138323119Y-113913542D01*
X138461435Y-113775654D01*
X138559553Y-113677840D01*
X138750643Y-113677840D01*
X138752471Y-113693270D01*
X138761723Y-113701867D01*
X138784050Y-113705613D01*
X138825105Y-113706489D01*
X138832376Y-113706495D01*
X138914109Y-113706495D01*
X138914109Y-113487172D01*
X138832376Y-113568179D01*
X138786270Y-113617428D01*
X138758694Y-113655159D01*
X138750643Y-113677840D01*
X138559553Y-113677840D01*
X138599752Y-113637766D01*
X138599752Y-113514952D01*
X138600137Y-113458450D01*
X138601900Y-113422505D01*
X138605950Y-113402530D01*
X138613199Y-113393937D01*
X138624130Y-113392139D01*
X138636288Y-113389498D01*
X138645273Y-113378912D01*
X138652174Y-113356381D01*
X138658076Y-113317909D01*
X138664065Y-113259498D01*
X138665987Y-113238104D01*
X138670148Y-113190951D01*
X136952045Y-113190951D01*
X136835423Y-113190951D01*
X136675891Y-113190951D01*
X136675891Y-113077782D01*
X136743686Y-113077782D01*
X136783338Y-113076696D01*
X136804884Y-113071454D01*
X136807520Y-113068334D01*
X136946384Y-113068334D01*
X136953692Y-113075462D01*
X136979007Y-113077662D01*
X136996092Y-113077782D01*
X137053119Y-113077782D01*
X137265779Y-113077782D01*
X138680302Y-113077782D01*
X138632458Y-113028786D01*
X138558150Y-112968324D01*
X138466184Y-112921691D01*
X138355002Y-112888249D01*
X138244529Y-112869753D01*
X138172227Y-112861122D01*
X138172227Y-112952040D01*
X137593812Y-112952040D01*
X137593812Y-112848893D01*
X137508935Y-112857496D01*
X137449632Y-112864756D01*
X137386449Y-112874379D01*
X137348614Y-112881252D01*
X137273168Y-112896407D01*
X137269474Y-112987095D01*
X137265779Y-113077782D01*
X137053119Y-113077782D01*
X137053119Y-113027485D01*
X137051456Y-112995976D01*
X137047303Y-112978463D01*
X137045629Y-112977188D01*
X137027013Y-112985254D01*
X136999817Y-113004820D01*
X136972552Y-113028944D01*
X136953733Y-113050682D01*
X136952057Y-113053508D01*
X136946384Y-113068334D01*
X136807520Y-113068334D01*
X136815338Y-113059081D01*
X136819558Y-113045604D01*
X136836781Y-113010627D01*
X136869862Y-112968579D01*
X136913107Y-112925356D01*
X136960826Y-112886854D01*
X136992170Y-112866801D01*
X137027877Y-112844851D01*
X137046181Y-112826411D01*
X137052612Y-112804668D01*
X137053106Y-112791718D01*
X137053106Y-112788575D01*
X137694406Y-112788575D01*
X137694406Y-112851446D01*
X138071633Y-112851446D01*
X138071633Y-112788575D01*
X137694406Y-112788575D01*
X137053106Y-112788575D01*
X137053119Y-112750852D01*
X137158952Y-112750852D01*
X137207645Y-112752029D01*
X137245595Y-112755165D01*
X137266692Y-112759671D01*
X137268977Y-112761495D01*
X137282359Y-112764295D01*
X137314926Y-112763148D01*
X137361084Y-112758393D01*
X137392624Y-112754003D01*
X137449812Y-112745378D01*
X137502114Y-112737591D01*
X137541418Y-112731847D01*
X137552945Y-112730215D01*
X137583063Y-112720888D01*
X137593812Y-112706272D01*
X137597080Y-112700320D01*
X137608770Y-112695778D01*
X137631712Y-112692470D01*
X137668735Y-112690215D01*
X137722668Y-112688834D01*
X137796340Y-112688150D01*
X137883020Y-112687980D01*
X137975529Y-112688077D01*
X138045906Y-112688530D01*
X138097164Y-112689590D01*
X138132320Y-112691503D01*
X138154389Y-112694519D01*
X138166385Y-112698885D01*
X138171324Y-112704849D01*
X138172227Y-112711784D01*
X138179921Y-112733795D01*
X138205121Y-112746321D01*
X138251009Y-112750788D01*
X138259264Y-112750852D01*
X138336973Y-112758868D01*
X138425233Y-112780936D01*
X138516085Y-112814084D01*
X138601570Y-112855339D01*
X138673726Y-112901731D01*
X138683072Y-112909082D01*
X138713533Y-112932998D01*
X138731572Y-112942576D01*
X138744169Y-112939480D01*
X138757100Y-112926704D01*
X138795293Y-112901678D01*
X138844998Y-112892071D01*
X138898524Y-112897067D01*
X138948178Y-112915851D01*
X138986267Y-112947606D01*
X138989025Y-112951297D01*
X139017526Y-113010575D01*
X139022828Y-113071934D01*
X139005518Y-113130427D01*
X138966180Y-113181104D01*
X138961370Y-113185289D01*
X138933440Y-113205167D01*
X138905102Y-113213921D01*
X138865263Y-113214553D01*
X138855311Y-113213992D01*
X138816332Y-113212562D01*
X138796254Y-113215839D01*
X138788985Y-113225728D01*
X138788240Y-113234961D01*
X138786716Y-113261744D01*
X138782935Y-113302025D01*
X138780218Y-113326124D01*
X138776277Y-113364401D01*
X138777916Y-113383996D01*
X138787421Y-113391158D01*
X138804351Y-113392139D01*
X138814392Y-113388901D01*
X138830590Y-113378420D01*
X138854145Y-113359548D01*
X138886257Y-113331135D01*
X138928128Y-113292035D01*
X138980957Y-113241097D01*
X139045945Y-113177173D01*
X139124291Y-113099114D01*
X139217197Y-113005772D01*
X139325863Y-112895998D01*
X139378231Y-112842952D01*
X139920049Y-112293767D01*
X139919430Y-112380848D01*
G36*
X139542822Y-118333822D02*
G01*
X136022029Y-118333822D01*
X136022029Y-117466198D01*
X139542822Y-117466198D01*
X139542822Y-118333822D01*
G37*
X139542822Y-118333822D02*
X136022029Y-118333822D01*
X136022029Y-117466198D01*
X139542822Y-117466198D01*
X139542822Y-118333822D01*
D11*
X135370000Y-112240000D02*
X135370000Y-109700000D01*
X135370000Y-112240000D02*
X137910000Y-112240000D01*
X135620000Y-111990000D02*
X135620000Y-102640000D01*
X156480000Y-111990000D02*
X135620000Y-111990000D01*
X156480000Y-102640000D02*
X156480000Y-111990000D01*
X135620000Y-102640000D02*
X156480000Y-102640000D01*
D13*
X162560000Y-86162000D02*
X162560000Y-86812000D01*
X143497300Y-96108400D02*
X143497300Y-95458400D01*
X151084400Y-82423000D02*
X151734400Y-82423000D01*
X166370000Y-93655000D02*
X166370000Y-94305000D01*
X162547300Y-94305000D02*
X162547300Y-93655000D01*
X155631000Y-115062000D02*
X156281000Y-115062000D01*
X161234000Y-115062000D02*
X160584000Y-115062000D01*
X158821000Y-115062000D02*
X158171000Y-115062000D01*
D14*
X155473400Y-123723400D02*
X155473400Y-123977400D01*
X156438600Y-123977400D02*
X156438600Y-123723400D01*
X152552400Y-114935000D02*
X152552400Y-115189000D01*
X153517600Y-115189000D02*
X153517600Y-114935000D01*
D13*
X153091000Y-76073000D02*
X153741000Y-76073000D01*
D14*
X151485600Y-76200000D02*
X151485600Y-75946000D01*
X150520400Y-75946000D02*
X150520400Y-76200000D01*
D13*
X165025500Y-111023400D02*
X166825500Y-111023400D01*
X147421600Y-86533000D02*
X147421600Y-85933000D01*
X164355500Y-113485000D02*
X164955500Y-113485000D01*
X164955500Y-113485000D02*
X164955500Y-116385000D01*
X164955500Y-116385000D02*
X164355500Y-116385000D01*
X164355500Y-116385000D02*
X164355500Y-113485000D01*
X162805500Y-113335000D02*
X164005500Y-113335000D01*
X162755000Y-106290000D02*
X165980000Y-106290000D01*
X160480000Y-101990000D02*
X165980000Y-101990000D01*
X148550000Y-117205000D02*
G75*
G03X148550000Y-117205000I-2500000J0D01*
G01*
D15*
X145665000Y-90750000D02*
G75*
G03X145665000Y-90750000I-125000J0D01*
G01*
D11*
X168221000Y-75140000D02*
X166696000Y-75140000D01*
X168221000Y-82340000D02*
X168221000Y-75140000D01*
X166696000Y-82340000D02*
X168221000Y-82340000D01*
X155121000Y-75140000D02*
X156646000Y-75140000D01*
X155121000Y-82340000D02*
X155121000Y-75140000D01*
X156646000Y-82340000D02*
X155121000Y-82340000D01*
X156646000Y-83940000D02*
X156646000Y-82340000D01*
D16*
X141412600Y-86098000D02*
X141412600Y-97598000D01*
X141412600Y-97598000D02*
X136412600Y-97598000D01*
X136412600Y-97598000D02*
X136412600Y-86098000D01*
X136412600Y-86098000D02*
X141412600Y-86098000D01*
D11*
X148536000Y-75140000D02*
X147011000Y-75140000D01*
X148536000Y-82340000D02*
X148536000Y-75140000D01*
X147011000Y-82340000D02*
X148536000Y-82340000D01*
X135436000Y-75140000D02*
X136961000Y-75140000D01*
X135436000Y-82340000D02*
X135436000Y-75140000D01*
X136961000Y-82340000D02*
X135436000Y-82340000D01*
X136961000Y-83940000D02*
X136961000Y-82340000D01*
D13*
X162865000Y-87720000D02*
X166065000Y-87720000D01*
X166065000Y-87720000D02*
X166065000Y-92620000D01*
X166065000Y-92620000D02*
X162865000Y-92620000D01*
X162865000Y-92620000D02*
X162865000Y-87720000D01*
X161015000Y-87590000D02*
X162515000Y-87590000D01*
D10*
X140422380Y-113363333D02*
X141136666Y-113363333D01*
X141279523Y-113410952D01*
X141374761Y-113506190D01*
X141422380Y-113649047D01*
X141422380Y-113744285D01*
X140422380Y-112982380D02*
X140422380Y-112363333D01*
X140803333Y-112696666D01*
X140803333Y-112553809D01*
X140850952Y-112458571D01*
X140898571Y-112410952D01*
X140993809Y-112363333D01*
X141231904Y-112363333D01*
X141327142Y-112410952D01*
X141374761Y-112458571D01*
X141422380Y-112553809D01*
X141422380Y-112839523D01*
X141374761Y-112934761D01*
X141327142Y-112982380D01*
D17*
X143353971Y-86661171D02*
X143293495Y-86721647D01*
X143112066Y-86782123D01*
X142991114Y-86782123D01*
X142809685Y-86721647D01*
X142688733Y-86600695D01*
X142628257Y-86479742D01*
X142567780Y-86237838D01*
X142567780Y-86056409D01*
X142628257Y-85814504D01*
X142688733Y-85693552D01*
X142809685Y-85572600D01*
X142991114Y-85512123D01*
X143112066Y-85512123D01*
X143293495Y-85572600D01*
X143353971Y-85633076D01*
X143837780Y-85633076D02*
X143898257Y-85572600D01*
X144019209Y-85512123D01*
X144321590Y-85512123D01*
X144442542Y-85572600D01*
X144503019Y-85633076D01*
X144563495Y-85754028D01*
X144563495Y-85874980D01*
X144503019Y-86056409D01*
X143777304Y-86782123D01*
X144563495Y-86782123D01*
X145773019Y-86782123D02*
X145047304Y-86782123D01*
X145410161Y-86782123D02*
X145410161Y-85512123D01*
X145289209Y-85693552D01*
X145168257Y-85814504D01*
X145047304Y-85874980D01*
X159456071Y-99005571D02*
X159395595Y-99066047D01*
X159214166Y-99126523D01*
X159093214Y-99126523D01*
X158911785Y-99066047D01*
X158790833Y-98945095D01*
X158730357Y-98824142D01*
X158669880Y-98582238D01*
X158669880Y-98400809D01*
X158730357Y-98158904D01*
X158790833Y-98037952D01*
X158911785Y-97917000D01*
X159093214Y-97856523D01*
X159214166Y-97856523D01*
X159395595Y-97917000D01*
X159456071Y-97977476D01*
X159939880Y-97977476D02*
X160000357Y-97917000D01*
X160121309Y-97856523D01*
X160423690Y-97856523D01*
X160544642Y-97917000D01*
X160605119Y-97977476D01*
X160665595Y-98098428D01*
X160665595Y-98219380D01*
X160605119Y-98400809D01*
X159879404Y-99126523D01*
X160665595Y-99126523D01*
X161149404Y-97977476D02*
X161209880Y-97917000D01*
X161330833Y-97856523D01*
X161633214Y-97856523D01*
X161754166Y-97917000D01*
X161814642Y-97977476D01*
X161875119Y-98098428D01*
X161875119Y-98219380D01*
X161814642Y-98400809D01*
X161088928Y-99126523D01*
X161875119Y-99126523D01*
X161540371Y-85562923D02*
X161117038Y-84958161D01*
X160814657Y-85562923D02*
X160814657Y-84292923D01*
X161298466Y-84292923D01*
X161419419Y-84353400D01*
X161479895Y-84413876D01*
X161540371Y-84534828D01*
X161540371Y-84716257D01*
X161479895Y-84837209D01*
X161419419Y-84897685D01*
X161298466Y-84958161D01*
X160814657Y-84958161D01*
X162024180Y-84413876D02*
X162084657Y-84353400D01*
X162205609Y-84292923D01*
X162507990Y-84292923D01*
X162628942Y-84353400D01*
X162689419Y-84413876D01*
X162749895Y-84534828D01*
X162749895Y-84655780D01*
X162689419Y-84837209D01*
X161963704Y-85562923D01*
X162749895Y-85562923D01*
X163354657Y-85562923D02*
X163596561Y-85562923D01*
X163717514Y-85502447D01*
X163777990Y-85441971D01*
X163898942Y-85260542D01*
X163959419Y-85018638D01*
X163959419Y-84534828D01*
X163898942Y-84413876D01*
X163838466Y-84353400D01*
X163717514Y-84292923D01*
X163475609Y-84292923D01*
X163354657Y-84353400D01*
X163294180Y-84413876D01*
X163233704Y-84534828D01*
X163233704Y-84837209D01*
X163294180Y-84958161D01*
X163354657Y-85018638D01*
X163475609Y-85079114D01*
X163717514Y-85079114D01*
X163838466Y-85018638D01*
X163898942Y-84958161D01*
X163959419Y-84837209D01*
X144846523Y-99165228D02*
X144241761Y-99588561D01*
X144846523Y-99890942D02*
X143576523Y-99890942D01*
X143576523Y-99407133D01*
X143637000Y-99286180D01*
X143697476Y-99225704D01*
X143818428Y-99165228D01*
X143999857Y-99165228D01*
X144120809Y-99225704D01*
X144181285Y-99286180D01*
X144241761Y-99407133D01*
X144241761Y-99890942D01*
X144846523Y-97955704D02*
X144846523Y-98681419D01*
X144846523Y-98318561D02*
X143576523Y-98318561D01*
X143757952Y-98439514D01*
X143878904Y-98560466D01*
X143939380Y-98681419D01*
X143999857Y-96867133D02*
X144846523Y-96867133D01*
X143516047Y-97169514D02*
X144423190Y-97471895D01*
X144423190Y-96685704D01*
X153584123Y-83264828D02*
X152979361Y-83688161D01*
X153584123Y-83990542D02*
X152314123Y-83990542D01*
X152314123Y-83506733D01*
X152374600Y-83385780D01*
X152435076Y-83325304D01*
X152556028Y-83264828D01*
X152737457Y-83264828D01*
X152858409Y-83325304D01*
X152918885Y-83385780D01*
X152979361Y-83506733D01*
X152979361Y-83990542D01*
X153584123Y-82055304D02*
X153584123Y-82781019D01*
X153584123Y-82418161D02*
X152314123Y-82418161D01*
X152495552Y-82539114D01*
X152616504Y-82660066D01*
X152676980Y-82781019D01*
X152435076Y-81571495D02*
X152374600Y-81511019D01*
X152314123Y-81390066D01*
X152314123Y-81087685D01*
X152374600Y-80966733D01*
X152435076Y-80906257D01*
X152556028Y-80845780D01*
X152676980Y-80845780D01*
X152858409Y-80906257D01*
X153584123Y-81631971D01*
X153584123Y-80845780D01*
X166207923Y-97336428D02*
X165603161Y-97759761D01*
X166207923Y-98062142D02*
X164937923Y-98062142D01*
X164937923Y-97578333D01*
X164998400Y-97457380D01*
X165058876Y-97396904D01*
X165179828Y-97336428D01*
X165361257Y-97336428D01*
X165482209Y-97396904D01*
X165542685Y-97457380D01*
X165603161Y-97578333D01*
X165603161Y-98062142D01*
X166207923Y-96126904D02*
X166207923Y-96852619D01*
X166207923Y-96489761D02*
X164937923Y-96489761D01*
X165119352Y-96610714D01*
X165240304Y-96731666D01*
X165300780Y-96852619D01*
X166207923Y-94917380D02*
X166207923Y-95643095D01*
X166207923Y-95280238D02*
X164937923Y-95280238D01*
X165119352Y-95401190D01*
X165240304Y-95522142D01*
X165300780Y-95643095D01*
X163921923Y-97336428D02*
X163317161Y-97759761D01*
X163921923Y-98062142D02*
X162651923Y-98062142D01*
X162651923Y-97578333D01*
X162712400Y-97457380D01*
X162772876Y-97396904D01*
X162893828Y-97336428D01*
X163075257Y-97336428D01*
X163196209Y-97396904D01*
X163256685Y-97457380D01*
X163317161Y-97578333D01*
X163317161Y-98062142D01*
X163921923Y-96126904D02*
X163921923Y-96852619D01*
X163921923Y-96489761D02*
X162651923Y-96489761D01*
X162833352Y-96610714D01*
X162954304Y-96731666D01*
X163014780Y-96852619D01*
X162651923Y-95340714D02*
X162651923Y-95219761D01*
X162712400Y-95098809D01*
X162772876Y-95038333D01*
X162893828Y-94977857D01*
X163135733Y-94917380D01*
X163438114Y-94917380D01*
X163680019Y-94977857D01*
X163800971Y-95038333D01*
X163861447Y-95098809D01*
X163921923Y-95219761D01*
X163921923Y-95340714D01*
X163861447Y-95461666D01*
X163800971Y-95522142D01*
X163680019Y-95582619D01*
X163438114Y-95643095D01*
X163135733Y-95643095D01*
X162893828Y-95582619D01*
X162772876Y-95522142D01*
X162712400Y-95461666D01*
X162651923Y-95340714D01*
X156670223Y-117839066D02*
X156065461Y-118262400D01*
X156670223Y-118564780D02*
X155400223Y-118564780D01*
X155400223Y-118080971D01*
X155460700Y-117960019D01*
X155521176Y-117899542D01*
X155642128Y-117839066D01*
X155823557Y-117839066D01*
X155944509Y-117899542D01*
X156004985Y-117960019D01*
X156065461Y-118080971D01*
X156065461Y-118564780D01*
X156670223Y-117234304D02*
X156670223Y-116992400D01*
X156609747Y-116871447D01*
X156549271Y-116810971D01*
X156367842Y-116690019D01*
X156125938Y-116629542D01*
X155642128Y-116629542D01*
X155521176Y-116690019D01*
X155460700Y-116750495D01*
X155400223Y-116871447D01*
X155400223Y-117113352D01*
X155460700Y-117234304D01*
X155521176Y-117294780D01*
X155642128Y-117355257D01*
X155944509Y-117355257D01*
X156065461Y-117294780D01*
X156125938Y-117234304D01*
X156186414Y-117113352D01*
X156186414Y-116871447D01*
X156125938Y-116750495D01*
X156065461Y-116690019D01*
X155944509Y-116629542D01*
X161293023Y-112606666D02*
X160688261Y-113030000D01*
X161293023Y-113332380D02*
X160023023Y-113332380D01*
X160023023Y-112848571D01*
X160083500Y-112727619D01*
X160143976Y-112667142D01*
X160264928Y-112606666D01*
X160446357Y-112606666D01*
X160567309Y-112667142D01*
X160627785Y-112727619D01*
X160688261Y-112848571D01*
X160688261Y-113332380D01*
X160567309Y-111880952D02*
X160506833Y-112001904D01*
X160446357Y-112062380D01*
X160325404Y-112122857D01*
X160264928Y-112122857D01*
X160143976Y-112062380D01*
X160083500Y-112001904D01*
X160023023Y-111880952D01*
X160023023Y-111639047D01*
X160083500Y-111518095D01*
X160143976Y-111457619D01*
X160264928Y-111397142D01*
X160325404Y-111397142D01*
X160446357Y-111457619D01*
X160506833Y-111518095D01*
X160567309Y-111639047D01*
X160567309Y-111880952D01*
X160627785Y-112001904D01*
X160688261Y-112062380D01*
X160809214Y-112122857D01*
X161051119Y-112122857D01*
X161172071Y-112062380D01*
X161232547Y-112001904D01*
X161293023Y-111880952D01*
X161293023Y-111639047D01*
X161232547Y-111518095D01*
X161172071Y-111457619D01*
X161051119Y-111397142D01*
X160809214Y-111397142D01*
X160688261Y-111457619D01*
X160627785Y-111518095D01*
X160567309Y-111639047D01*
X159007023Y-112606666D02*
X158402261Y-113030000D01*
X159007023Y-113332380D02*
X157737023Y-113332380D01*
X157737023Y-112848571D01*
X157797500Y-112727619D01*
X157857976Y-112667142D01*
X157978928Y-112606666D01*
X158160357Y-112606666D01*
X158281309Y-112667142D01*
X158341785Y-112727619D01*
X158402261Y-112848571D01*
X158402261Y-113332380D01*
X157737023Y-112183333D02*
X157737023Y-111336666D01*
X159007023Y-111880952D01*
X156530523Y-121522066D02*
X155925761Y-121945400D01*
X156530523Y-122247780D02*
X155260523Y-122247780D01*
X155260523Y-121763971D01*
X155321000Y-121643019D01*
X155381476Y-121582542D01*
X155502428Y-121522066D01*
X155683857Y-121522066D01*
X155804809Y-121582542D01*
X155865285Y-121643019D01*
X155925761Y-121763971D01*
X155925761Y-122247780D01*
X155260523Y-120433495D02*
X155260523Y-120675400D01*
X155321000Y-120796352D01*
X155381476Y-120856828D01*
X155562904Y-120977780D01*
X155804809Y-121038257D01*
X156288619Y-121038257D01*
X156409571Y-120977780D01*
X156470047Y-120917304D01*
X156530523Y-120796352D01*
X156530523Y-120554447D01*
X156470047Y-120433495D01*
X156409571Y-120373019D01*
X156288619Y-120312542D01*
X155986238Y-120312542D01*
X155865285Y-120373019D01*
X155804809Y-120433495D01*
X155744333Y-120554447D01*
X155744333Y-120796352D01*
X155804809Y-120917304D01*
X155865285Y-120977780D01*
X155986238Y-121038257D01*
X153622223Y-117839066D02*
X153017461Y-118262400D01*
X153622223Y-118564780D02*
X152352223Y-118564780D01*
X152352223Y-118080971D01*
X152412700Y-117960019D01*
X152473176Y-117899542D01*
X152594128Y-117839066D01*
X152775557Y-117839066D01*
X152896509Y-117899542D01*
X152956985Y-117960019D01*
X153017461Y-118080971D01*
X153017461Y-118564780D01*
X152352223Y-116690019D02*
X152352223Y-117294780D01*
X152956985Y-117355257D01*
X152896509Y-117294780D01*
X152836033Y-117173828D01*
X152836033Y-116871447D01*
X152896509Y-116750495D01*
X152956985Y-116690019D01*
X153077938Y-116629542D01*
X153380319Y-116629542D01*
X153501271Y-116690019D01*
X153561747Y-116750495D01*
X153622223Y-116871447D01*
X153622223Y-117173828D01*
X153561747Y-117294780D01*
X153501271Y-117355257D01*
X153990523Y-78951666D02*
X153385761Y-79375000D01*
X153990523Y-79677380D02*
X152720523Y-79677380D01*
X152720523Y-79193571D01*
X152781000Y-79072619D01*
X152841476Y-79012142D01*
X152962428Y-78951666D01*
X153143857Y-78951666D01*
X153264809Y-79012142D01*
X153325285Y-79072619D01*
X153385761Y-79193571D01*
X153385761Y-79677380D01*
X153143857Y-77863095D02*
X153990523Y-77863095D01*
X152660047Y-78165476D02*
X153567190Y-78467857D01*
X153567190Y-77681666D01*
X151577523Y-78951666D02*
X150972761Y-79375000D01*
X151577523Y-79677380D02*
X150307523Y-79677380D01*
X150307523Y-79193571D01*
X150368000Y-79072619D01*
X150428476Y-79012142D01*
X150549428Y-78951666D01*
X150730857Y-78951666D01*
X150851809Y-79012142D01*
X150912285Y-79072619D01*
X150972761Y-79193571D01*
X150972761Y-79677380D01*
X150428476Y-78467857D02*
X150368000Y-78407380D01*
X150307523Y-78286428D01*
X150307523Y-77984047D01*
X150368000Y-77863095D01*
X150428476Y-77802619D01*
X150549428Y-77742142D01*
X150670380Y-77742142D01*
X150851809Y-77802619D01*
X151577523Y-78528333D01*
X151577523Y-77742142D01*
X165713833Y-108803923D02*
X165109071Y-108803923D01*
X165109071Y-107533923D01*
X166802404Y-108803923D02*
X166076690Y-108803923D01*
X166439547Y-108803923D02*
X166439547Y-107533923D01*
X166318595Y-107715352D01*
X166197642Y-107836304D01*
X166076690Y-107896780D01*
X146306419Y-84872285D02*
X145883085Y-84872285D01*
X145883085Y-85537523D02*
X145883085Y-84267523D01*
X146487847Y-84267523D01*
X147576419Y-85537523D02*
X146971657Y-85537523D01*
X146971657Y-84267523D01*
X148544038Y-84690857D02*
X148544038Y-85537523D01*
X148241657Y-84207047D02*
X147939276Y-85114190D01*
X148725466Y-85114190D01*
X141728371Y-100333628D02*
X141788847Y-100394104D01*
X141849323Y-100575533D01*
X141849323Y-100696485D01*
X141788847Y-100877914D01*
X141667895Y-100998866D01*
X141546942Y-101059342D01*
X141305038Y-101119819D01*
X141123609Y-101119819D01*
X140881704Y-101059342D01*
X140760752Y-100998866D01*
X140639800Y-100877914D01*
X140579323Y-100696485D01*
X140579323Y-100575533D01*
X140639800Y-100394104D01*
X140700276Y-100333628D01*
X140700276Y-99849819D02*
X140639800Y-99789342D01*
X140579323Y-99668390D01*
X140579323Y-99366009D01*
X140639800Y-99245057D01*
X140700276Y-99184580D01*
X140821228Y-99124104D01*
X140942180Y-99124104D01*
X141123609Y-99184580D01*
X141849323Y-99910295D01*
X141849323Y-99124104D01*
X141002657Y-98035533D02*
X141849323Y-98035533D01*
X140518847Y-98337914D02*
X141425990Y-98640295D01*
X141425990Y-97854104D01*
X159889371Y-95152028D02*
X159949847Y-95212504D01*
X160010323Y-95393933D01*
X160010323Y-95514885D01*
X159949847Y-95696314D01*
X159828895Y-95817266D01*
X159707942Y-95877742D01*
X159466038Y-95938219D01*
X159284609Y-95938219D01*
X159042704Y-95877742D01*
X158921752Y-95817266D01*
X158800800Y-95696314D01*
X158740323Y-95514885D01*
X158740323Y-95393933D01*
X158800800Y-95212504D01*
X158861276Y-95152028D01*
X158861276Y-94668219D02*
X158800800Y-94607742D01*
X158740323Y-94486790D01*
X158740323Y-94184409D01*
X158800800Y-94063457D01*
X158861276Y-94002980D01*
X158982228Y-93942504D01*
X159103180Y-93942504D01*
X159284609Y-94002980D01*
X160010323Y-94728695D01*
X160010323Y-93942504D01*
X158740323Y-93519171D02*
X158740323Y-92732980D01*
X159224133Y-93156314D01*
X159224133Y-92974885D01*
X159284609Y-92853933D01*
X159345085Y-92793457D01*
X159466038Y-92732980D01*
X159768419Y-92732980D01*
X159889371Y-92793457D01*
X159949847Y-92853933D01*
X160010323Y-92974885D01*
X160010323Y-93337742D01*
X159949847Y-93458695D01*
X159889371Y-93519171D01*
X144598571Y-90961028D02*
X144659047Y-91021504D01*
X144719523Y-91202933D01*
X144719523Y-91323885D01*
X144659047Y-91505314D01*
X144538095Y-91626266D01*
X144417142Y-91686742D01*
X144175238Y-91747219D01*
X143993809Y-91747219D01*
X143751904Y-91686742D01*
X143630952Y-91626266D01*
X143510000Y-91505314D01*
X143449523Y-91323885D01*
X143449523Y-91202933D01*
X143510000Y-91021504D01*
X143570476Y-90961028D01*
X144719523Y-89751504D02*
X144719523Y-90477219D01*
X144719523Y-90114361D02*
X143449523Y-90114361D01*
X143630952Y-90235314D01*
X143751904Y-90356266D01*
X143812380Y-90477219D01*
X143872857Y-88662933D02*
X144719523Y-88662933D01*
X143389047Y-88965314D02*
X144296190Y-89267695D01*
X144296190Y-88481504D01*
X150313571Y-83468028D02*
X150374047Y-83528504D01*
X150434523Y-83709933D01*
X150434523Y-83830885D01*
X150374047Y-84012314D01*
X150253095Y-84133266D01*
X150132142Y-84193742D01*
X149890238Y-84254219D01*
X149708809Y-84254219D01*
X149466904Y-84193742D01*
X149345952Y-84133266D01*
X149225000Y-84012314D01*
X149164523Y-83830885D01*
X149164523Y-83709933D01*
X149225000Y-83528504D01*
X149285476Y-83468028D01*
X150434523Y-82258504D02*
X150434523Y-82984219D01*
X150434523Y-82621361D02*
X149164523Y-82621361D01*
X149345952Y-82742314D01*
X149466904Y-82863266D01*
X149527380Y-82984219D01*
X149164523Y-81472314D02*
X149164523Y-81351361D01*
X149225000Y-81230409D01*
X149285476Y-81169933D01*
X149406428Y-81109457D01*
X149648333Y-81048980D01*
X149950714Y-81048980D01*
X150192619Y-81109457D01*
X150313571Y-81169933D01*
X150374047Y-81230409D01*
X150434523Y-81351361D01*
X150434523Y-81472314D01*
X150374047Y-81593266D01*
X150313571Y-81653742D01*
X150192619Y-81714219D01*
X149950714Y-81774695D01*
X149648333Y-81774695D01*
X149406428Y-81714219D01*
X149285476Y-81653742D01*
X149225000Y-81593266D01*
X149164523Y-81472314D01*
X166234533Y-85441971D02*
X166174057Y-85502447D01*
X165992628Y-85562923D01*
X165871676Y-85562923D01*
X165690247Y-85502447D01*
X165569295Y-85381495D01*
X165508819Y-85260542D01*
X165448342Y-85018638D01*
X165448342Y-84837209D01*
X165508819Y-84595304D01*
X165569295Y-84474352D01*
X165690247Y-84353400D01*
X165871676Y-84292923D01*
X165992628Y-84292923D01*
X166174057Y-84353400D01*
X166234533Y-84413876D01*
X166960247Y-84837209D02*
X166839295Y-84776733D01*
X166778819Y-84716257D01*
X166718342Y-84595304D01*
X166718342Y-84534828D01*
X166778819Y-84413876D01*
X166839295Y-84353400D01*
X166960247Y-84292923D01*
X167202152Y-84292923D01*
X167323104Y-84353400D01*
X167383580Y-84413876D01*
X167444057Y-84534828D01*
X167444057Y-84595304D01*
X167383580Y-84716257D01*
X167323104Y-84776733D01*
X167202152Y-84837209D01*
X166960247Y-84837209D01*
X166839295Y-84897685D01*
X166778819Y-84958161D01*
X166718342Y-85079114D01*
X166718342Y-85321019D01*
X166778819Y-85441971D01*
X166839295Y-85502447D01*
X166960247Y-85562923D01*
X167202152Y-85562923D01*
X167323104Y-85502447D01*
X167383580Y-85441971D01*
X167444057Y-85321019D01*
X167444057Y-85079114D01*
X167383580Y-84958161D01*
X167323104Y-84897685D01*
X167202152Y-84837209D01*
X144598571Y-93607466D02*
X144659047Y-93667942D01*
X144719523Y-93849371D01*
X144719523Y-93970323D01*
X144659047Y-94151752D01*
X144538095Y-94272704D01*
X144417142Y-94333180D01*
X144175238Y-94393657D01*
X143993809Y-94393657D01*
X143751904Y-94333180D01*
X143630952Y-94272704D01*
X143510000Y-94151752D01*
X143449523Y-93970323D01*
X143449523Y-93849371D01*
X143510000Y-93667942D01*
X143570476Y-93607466D01*
X143449523Y-93184133D02*
X143449523Y-92337466D01*
X144719523Y-92881752D01*
X154326771Y-85809666D02*
X154387247Y-85870142D01*
X154447723Y-86051571D01*
X154447723Y-86172523D01*
X154387247Y-86353952D01*
X154266295Y-86474904D01*
X154145342Y-86535380D01*
X153903438Y-86595857D01*
X153722009Y-86595857D01*
X153480104Y-86535380D01*
X153359152Y-86474904D01*
X153238200Y-86353952D01*
X153177723Y-86172523D01*
X153177723Y-86051571D01*
X153238200Y-85870142D01*
X153298676Y-85809666D01*
X153177723Y-84660619D02*
X153177723Y-85265380D01*
X153782485Y-85325857D01*
X153722009Y-85265380D01*
X153661533Y-85144428D01*
X153661533Y-84842047D01*
X153722009Y-84721095D01*
X153782485Y-84660619D01*
X153903438Y-84600142D01*
X154205819Y-84600142D01*
X154326771Y-84660619D01*
X154387247Y-84721095D01*
X154447723Y-84842047D01*
X154447723Y-85144428D01*
X154387247Y-85265380D01*
X154326771Y-85325857D01*
X162665833Y-111222971D02*
X162605357Y-111283447D01*
X162423928Y-111343923D01*
X162302976Y-111343923D01*
X162121547Y-111283447D01*
X162000595Y-111162495D01*
X161940119Y-111041542D01*
X161879642Y-110799638D01*
X161879642Y-110618209D01*
X161940119Y-110376304D01*
X162000595Y-110255352D01*
X162121547Y-110134400D01*
X162302976Y-110073923D01*
X162423928Y-110073923D01*
X162605357Y-110134400D01*
X162665833Y-110194876D01*
X163875357Y-111343923D02*
X163149642Y-111343923D01*
X163512500Y-111343923D02*
X163512500Y-110073923D01*
X163391547Y-110255352D01*
X163270595Y-110376304D01*
X163149642Y-110436780D01*
X163479238Y-118151123D02*
X163479238Y-116881123D01*
X164809714Y-118030171D02*
X164749238Y-118090647D01*
X164567809Y-118151123D01*
X164446857Y-118151123D01*
X164265428Y-118090647D01*
X164144476Y-117969695D01*
X164084000Y-117848742D01*
X164023523Y-117606838D01*
X164023523Y-117425409D01*
X164084000Y-117183504D01*
X164144476Y-117062552D01*
X164265428Y-116941600D01*
X164446857Y-116881123D01*
X164567809Y-116881123D01*
X164749238Y-116941600D01*
X164809714Y-117002076D01*
X166019238Y-118151123D02*
X165293523Y-118151123D01*
X165656380Y-118151123D02*
X165656380Y-116881123D01*
X165535428Y-117062552D01*
X165414476Y-117183504D01*
X165293523Y-117243980D01*
X160824333Y-108276571D02*
X160763857Y-108337047D01*
X160582428Y-108397523D01*
X160461476Y-108397523D01*
X160280047Y-108337047D01*
X160159095Y-108216095D01*
X160098619Y-108095142D01*
X160038142Y-107853238D01*
X160038142Y-107671809D01*
X160098619Y-107429904D01*
X160159095Y-107308952D01*
X160280047Y-107188000D01*
X160461476Y-107127523D01*
X160582428Y-107127523D01*
X160763857Y-107188000D01*
X160824333Y-107248476D01*
X161247666Y-107127523D02*
X162033857Y-107127523D01*
X161610523Y-107611333D01*
X161791952Y-107611333D01*
X161912904Y-107671809D01*
X161973380Y-107732285D01*
X162033857Y-107853238D01*
X162033857Y-108155619D01*
X161973380Y-108276571D01*
X161912904Y-108337047D01*
X161791952Y-108397523D01*
X161429095Y-108397523D01*
X161308142Y-108337047D01*
X161247666Y-108276571D01*
X146503571Y-113521066D02*
X146564047Y-113581542D01*
X146624523Y-113762971D01*
X146624523Y-113883923D01*
X146564047Y-114065352D01*
X146443095Y-114186304D01*
X146322142Y-114246780D01*
X146080238Y-114307257D01*
X145898809Y-114307257D01*
X145656904Y-114246780D01*
X145535952Y-114186304D01*
X145415000Y-114065352D01*
X145354523Y-113883923D01*
X145354523Y-113762971D01*
X145415000Y-113581542D01*
X145475476Y-113521066D01*
X145475476Y-113037257D02*
X145415000Y-112976780D01*
X145354523Y-112855828D01*
X145354523Y-112553447D01*
X145415000Y-112432495D01*
X145475476Y-112372019D01*
X145596428Y-112311542D01*
X145717380Y-112311542D01*
X145898809Y-112372019D01*
X146624523Y-113097733D01*
X146624523Y-112311542D01*
X145412580Y-88509323D02*
X145412580Y-89537419D01*
X145473057Y-89658371D01*
X145533533Y-89718847D01*
X145654485Y-89779323D01*
X145896390Y-89779323D01*
X146017342Y-89718847D01*
X146077819Y-89658371D01*
X146138295Y-89537419D01*
X146138295Y-88509323D01*
X147408295Y-89779323D02*
X146682580Y-89779323D01*
X147045438Y-89779323D02*
X147045438Y-88509323D01*
X146924485Y-88690752D01*
X146803533Y-88811704D01*
X146682580Y-88872180D01*
D10*
X155408380Y-84581904D02*
X155408380Y-84010476D01*
X156408380Y-84296190D02*
X155408380Y-84296190D01*
X156408380Y-83153333D02*
X156408380Y-83724761D01*
X156408380Y-83439047D02*
X155408380Y-83439047D01*
X155551238Y-83534285D01*
X155646476Y-83629523D01*
X155694095Y-83724761D01*
D17*
X138882361Y-99639361D02*
X139487123Y-99639361D01*
X138217123Y-100062695D02*
X138882361Y-99639361D01*
X138217123Y-99216028D01*
X139487123Y-98127457D02*
X139487123Y-98853171D01*
X139487123Y-98490314D02*
X138217123Y-98490314D01*
X138398552Y-98611266D01*
X138519504Y-98732219D01*
X138579980Y-98853171D01*
D10*
X135723380Y-84581904D02*
X135723380Y-84010476D01*
X136723380Y-84296190D02*
X135723380Y-84296190D01*
X135818619Y-83724761D02*
X135771000Y-83677142D01*
X135723380Y-83581904D01*
X135723380Y-83343809D01*
X135771000Y-83248571D01*
X135818619Y-83200952D01*
X135913857Y-83153333D01*
X136009095Y-83153333D01*
X136151952Y-83200952D01*
X136723380Y-83772380D01*
X136723380Y-83153333D01*
D17*
X158069038Y-88890323D02*
X158069038Y-87620323D01*
X159399514Y-88769371D02*
X159339038Y-88829847D01*
X159157609Y-88890323D01*
X159036657Y-88890323D01*
X158855228Y-88829847D01*
X158734276Y-88708895D01*
X158673800Y-88587942D01*
X158613323Y-88346038D01*
X158613323Y-88164609D01*
X158673800Y-87922704D01*
X158734276Y-87801752D01*
X158855228Y-87680800D01*
X159036657Y-87620323D01*
X159157609Y-87620323D01*
X159339038Y-87680800D01*
X159399514Y-87741276D01*
X159883323Y-87741276D02*
X159943800Y-87680800D01*
X160064752Y-87620323D01*
X160367133Y-87620323D01*
X160488085Y-87680800D01*
X160548561Y-87741276D01*
X160609038Y-87862228D01*
X160609038Y-87983180D01*
X160548561Y-88164609D01*
X159822847Y-88890323D01*
X160609038Y-88890323D01*
M02*
